%TF.GenerationSoftware,KiCad,Pcbnew,9.0.4*%
%TF.CreationDate,2025-09-05T01:27:12-04:00*%
%TF.ProjectId,max5719_breakout,6d617835-3731-4395-9f62-7265616b6f75,rev?*%
%TF.SameCoordinates,Original*%
%TF.FileFunction,Soldermask,Top*%
%TF.FilePolarity,Negative*%
%FSLAX46Y46*%
G04 Gerber Fmt 4.6, Leading zero omitted, Abs format (unit mm)*
G04 Created by KiCad (PCBNEW 9.0.4) date 2025-09-05 01:27:12*
%MOMM*%
%LPD*%
G01*
G04 APERTURE LIST*
G04 Aperture macros list*
%AMRoundRect*
0 Rectangle with rounded corners*
0 $1 Rounding radius*
0 $2 $3 $4 $5 $6 $7 $8 $9 X,Y pos of 4 corners*
0 Add a 4 corners polygon primitive as box body*
4,1,4,$2,$3,$4,$5,$6,$7,$8,$9,$2,$3,0*
0 Add four circle primitives for the rounded corners*
1,1,$1+$1,$2,$3*
1,1,$1+$1,$4,$5*
1,1,$1+$1,$6,$7*
1,1,$1+$1,$8,$9*
0 Add four rect primitives between the rounded corners*
20,1,$1+$1,$2,$3,$4,$5,0*
20,1,$1+$1,$4,$5,$6,$7,0*
20,1,$1+$1,$6,$7,$8,$9,0*
20,1,$1+$1,$8,$9,$2,$3,0*%
%AMFreePoly0*
4,1,23,0.500000,-0.750000,0.000000,-0.750000,0.000000,-0.745722,-0.065263,-0.745722,-0.191342,-0.711940,-0.304381,-0.646677,-0.396677,-0.554381,-0.461940,-0.441342,-0.495722,-0.315263,-0.495722,-0.250000,-0.500000,-0.250000,-0.500000,0.250000,-0.495722,0.250000,-0.495722,0.315263,-0.461940,0.441342,-0.396677,0.554381,-0.304381,0.646677,-0.191342,0.711940,-0.065263,0.745722,0.000000,0.745722,
0.000000,0.750000,0.500000,0.750000,0.500000,-0.750000,0.500000,-0.750000,$1*%
%AMFreePoly1*
4,1,23,0.000000,0.745722,0.065263,0.745722,0.191342,0.711940,0.304381,0.646677,0.396677,0.554381,0.461940,0.441342,0.495722,0.315263,0.495722,0.250000,0.500000,0.250000,0.500000,-0.250000,0.495722,-0.250000,0.495722,-0.315263,0.461940,-0.441342,0.396677,-0.554381,0.304381,-0.646677,0.191342,-0.711940,0.065263,-0.745722,0.000000,-0.745722,0.000000,-0.750000,-0.500000,-0.750000,
-0.500000,0.750000,0.000000,0.750000,0.000000,0.745722,0.000000,0.745722,$1*%
G04 Aperture macros list end*
%ADD10RoundRect,0.250000X0.325000X0.650000X-0.325000X0.650000X-0.325000X-0.650000X0.325000X-0.650000X0*%
%ADD11RoundRect,0.250000X0.312500X0.625000X-0.312500X0.625000X-0.312500X-0.625000X0.312500X-0.625000X0*%
%ADD12RoundRect,0.250000X-0.312500X-0.625000X0.312500X-0.625000X0.312500X0.625000X-0.312500X0.625000X0*%
%ADD13RoundRect,0.243750X0.456250X-0.243750X0.456250X0.243750X-0.456250X0.243750X-0.456250X-0.243750X0*%
%ADD14RoundRect,0.243750X-0.456250X0.243750X-0.456250X-0.243750X0.456250X-0.243750X0.456250X0.243750X0*%
%ADD15RoundRect,0.250000X-0.450000X0.262500X-0.450000X-0.262500X0.450000X-0.262500X0.450000X0.262500X0*%
%ADD16RoundRect,0.250000X0.450000X-0.262500X0.450000X0.262500X-0.450000X0.262500X-0.450000X-0.262500X0*%
%ADD17R,0.800000X2.700000*%
%ADD18RoundRect,0.250000X-0.262500X-0.450000X0.262500X-0.450000X0.262500X0.450000X-0.262500X0.450000X0*%
%ADD19RoundRect,0.150000X-0.825000X-0.150000X0.825000X-0.150000X0.825000X0.150000X-0.825000X0.150000X0*%
%ADD20RoundRect,0.250000X-0.412500X-0.650000X0.412500X-0.650000X0.412500X0.650000X-0.412500X0.650000X0*%
%ADD21RoundRect,0.250000X0.420000X0.945000X-0.420000X0.945000X-0.420000X-0.945000X0.420000X-0.945000X0*%
%ADD22RoundRect,0.250000X-0.475000X0.250000X-0.475000X-0.250000X0.475000X-0.250000X0.475000X0.250000X0*%
%ADD23C,1.000000*%
%ADD24C,0.800000*%
%ADD25C,7.400000*%
%ADD26C,3.000000*%
%ADD27RoundRect,0.250001X-1.599999X1.099999X-1.599999X-1.099999X1.599999X-1.099999X1.599999X1.099999X0*%
%ADD28O,3.700000X2.700000*%
%ADD29FreePoly0,90.000000*%
%ADD30FreePoly1,90.000000*%
%ADD31RoundRect,0.250000X-0.650000X0.412500X-0.650000X-0.412500X0.650000X-0.412500X0.650000X0.412500X0*%
%ADD32RoundRect,0.150000X0.825000X0.150000X-0.825000X0.150000X-0.825000X-0.150000X0.825000X-0.150000X0*%
%ADD33RoundRect,0.237500X-0.237500X0.250000X-0.237500X-0.250000X0.237500X-0.250000X0.237500X0.250000X0*%
%ADD34O,2.500000X1.600000*%
%ADD35O,7.000000X3.500000*%
%ADD36RoundRect,0.250000X0.262500X0.450000X-0.262500X0.450000X-0.262500X-0.450000X0.262500X-0.450000X0*%
%ADD37RoundRect,0.250000X0.250000X0.475000X-0.250000X0.475000X-0.250000X-0.475000X0.250000X-0.475000X0*%
%ADD38RoundRect,0.250000X-0.250000X-0.475000X0.250000X-0.475000X0.250000X0.475000X-0.250000X0.475000X0*%
%ADD39C,2.050000*%
%ADD40C,2.250000*%
%ADD41R,2.700000X0.800000*%
%ADD42R,0.800000X1.300000*%
%ADD43RoundRect,0.250000X0.945000X-0.420000X0.945000X0.420000X-0.945000X0.420000X-0.945000X-0.420000X0*%
%ADD44RoundRect,0.250000X0.475000X-0.250000X0.475000X0.250000X-0.475000X0.250000X-0.475000X-0.250000X0*%
%ADD45RoundRect,0.150000X0.150000X-0.512500X0.150000X0.512500X-0.150000X0.512500X-0.150000X-0.512500X0*%
%ADD46RoundRect,0.250000X0.412500X0.650000X-0.412500X0.650000X-0.412500X-0.650000X0.412500X-0.650000X0*%
%ADD47R,1.700000X1.700000*%
%ADD48C,1.700000*%
%ADD49RoundRect,0.250000X-0.420000X-0.945000X0.420000X-0.945000X0.420000X0.945000X-0.420000X0.945000X0*%
%ADD50FreePoly0,270.000000*%
%ADD51FreePoly1,270.000000*%
%ADD52RoundRect,0.150000X0.512500X0.150000X-0.512500X0.150000X-0.512500X-0.150000X0.512500X-0.150000X0*%
%ADD53RoundRect,0.237500X-0.250000X-0.237500X0.250000X-0.237500X0.250000X0.237500X-0.250000X0.237500X0*%
%ADD54RoundRect,0.250000X0.650000X-0.412500X0.650000X0.412500X-0.650000X0.412500X-0.650000X-0.412500X0*%
G04 APERTURE END LIST*
%TO.C,JP1*%
G36*
X82341000Y-58189000D02*
G01*
X83841000Y-58189000D01*
X83841000Y-57889000D01*
X82341000Y-57889000D01*
X82341000Y-58189000D01*
G37*
%TO.C,JP2*%
G36*
X73931000Y-57254000D02*
G01*
X72431000Y-57254000D01*
X72431000Y-57554000D01*
X73931000Y-57554000D01*
X73931000Y-57254000D01*
G37*
%TO.C,JP3*%
G36*
X81301000Y-64874000D02*
G01*
X79801000Y-64874000D01*
X79801000Y-65174000D01*
X81301000Y-65174000D01*
X81301000Y-64874000D01*
G37*
%TD*%
D10*
%TO.C,C25*%
X69261000Y-60960000D03*
X66311000Y-60960000D03*
%TD*%
D11*
%TO.C,R22*%
X45912500Y-90805000D03*
X42987500Y-90805000D03*
%TD*%
D12*
%TO.C,R21*%
X49145000Y-90805000D03*
X52070000Y-90805000D03*
%TD*%
D13*
%TO.C,D3*%
X103411000Y-41577500D03*
X103411000Y-39702500D03*
%TD*%
D14*
%TO.C,D1*%
X92616000Y-39702500D03*
X92616000Y-41577500D03*
%TD*%
D15*
%TO.C,R12*%
X105062000Y-55475500D03*
X105062000Y-57300500D03*
%TD*%
D16*
%TO.C,R10*%
X105062000Y-68476500D03*
X105062000Y-66651500D03*
%TD*%
D17*
%TO.C,L2*%
X88636000Y-78359000D03*
X86436000Y-78359000D03*
%TD*%
D18*
%TO.C,R7*%
X61628000Y-78552000D03*
X63453000Y-78552000D03*
%TD*%
D19*
%TO.C,U6*%
X62201000Y-38354000D03*
X62201000Y-39624000D03*
X62201000Y-40894000D03*
X62201000Y-42164000D03*
X62201000Y-43434000D03*
X62201000Y-44704000D03*
X62201000Y-45974000D03*
X62201000Y-47244000D03*
X67151000Y-47244000D03*
X67151000Y-45974000D03*
X67151000Y-44704000D03*
X67151000Y-43434000D03*
X67151000Y-42164000D03*
X67151000Y-40894000D03*
X67151000Y-39624000D03*
X67151000Y-38354000D03*
%TD*%
D20*
%TO.C,C15*%
X99689500Y-61214000D03*
X102814500Y-61214000D03*
%TD*%
D21*
%TO.C,C18*%
X102792000Y-57912000D03*
X99712000Y-57912000D03*
%TD*%
D20*
%TO.C,C6*%
X101213500Y-71374000D03*
X104338500Y-71374000D03*
%TD*%
D13*
%TO.C,D2*%
X56421000Y-84988000D03*
X56421000Y-83113000D03*
%TD*%
D22*
%TO.C,C22*%
X56356000Y-60518000D03*
X56356000Y-62418000D03*
%TD*%
D23*
%TO.C,TP1*%
X88392000Y-40894000D03*
%TD*%
D22*
%TO.C,C26*%
X70391000Y-37404000D03*
X70391000Y-39304000D03*
%TD*%
D24*
%TO.C,H1*%
X36849000Y-62484000D03*
X37661779Y-60521779D03*
X37661779Y-64446221D03*
X39624000Y-59709000D03*
D25*
X39624000Y-62484000D03*
D24*
X39624000Y-65259000D03*
X41586221Y-60521779D03*
X41586221Y-64446221D03*
X42399000Y-62484000D03*
%TD*%
D26*
%TO.C,J1*%
X104394000Y-87698000D03*
D27*
X97094000Y-85598000D03*
D28*
X97094000Y-89798000D03*
X91594000Y-85598000D03*
X91594000Y-89798000D03*
%TD*%
D29*
%TO.C,JP1*%
X83091000Y-58689000D03*
D30*
X83091000Y-57389000D03*
%TD*%
D31*
%TO.C,C5*%
X82456000Y-80275500D03*
X82456000Y-83400500D03*
%TD*%
D18*
%TO.C,R9*%
X74431500Y-78552000D03*
X76256500Y-78552000D03*
%TD*%
%TO.C,R16*%
X24741500Y-66802000D03*
X26566500Y-66802000D03*
%TD*%
D32*
%TO.C,U9*%
X46524750Y-87630000D03*
X46524750Y-86360000D03*
X46524750Y-85090000D03*
X46524750Y-83820000D03*
X41574750Y-83820000D03*
X41574750Y-85090000D03*
X41574750Y-86360000D03*
X41574750Y-87630000D03*
%TD*%
D15*
%TO.C,R6*%
X94902000Y-67159500D03*
X94902000Y-68984500D03*
%TD*%
D33*
%TO.C,R3*%
X105062000Y-63095500D03*
X105062000Y-64920500D03*
%TD*%
D15*
%TO.C,R11*%
X105062000Y-59285500D03*
X105062000Y-61110500D03*
%TD*%
D16*
%TO.C,R15*%
X103411000Y-45616500D03*
X103411000Y-43791500D03*
%TD*%
D34*
%TO.C,J5*%
X33274000Y-86360000D03*
D35*
X28194000Y-91440000D03*
D34*
X33274000Y-88900000D03*
D35*
X28194000Y-81280000D03*
%TD*%
D21*
%TO.C,C21*%
X102538000Y-53848000D03*
X99458000Y-53848000D03*
%TD*%
D36*
%TO.C,R17*%
X68698500Y-65278000D03*
X66873500Y-65278000D03*
%TD*%
D37*
%TO.C,C29*%
X72390000Y-67818000D03*
X70490000Y-67818000D03*
%TD*%
D15*
%TO.C,R23*%
X38969750Y-84812500D03*
X38969750Y-86637500D03*
%TD*%
D38*
%TO.C,C12*%
X100302000Y-64008000D03*
X102202000Y-64008000D03*
%TD*%
D39*
%TO.C,J2*%
X24638000Y-60960000D03*
D40*
X22098000Y-63500000D03*
X27178000Y-63500000D03*
X22098000Y-58420000D03*
X27178000Y-58420000D03*
%TD*%
D41*
%TO.C,L1*%
X94461000Y-79358000D03*
X94461000Y-77158000D03*
%TD*%
D42*
%TO.C,U4*%
X30386000Y-63170000D03*
X31656000Y-63170000D03*
X32926000Y-63170000D03*
X32926000Y-53670000D03*
X31656000Y-53670000D03*
X30386000Y-53670000D03*
%TD*%
D43*
%TO.C,C17*%
X65692000Y-84156000D03*
X65692000Y-81076000D03*
%TD*%
D44*
%TO.C,C11*%
X71534000Y-82804000D03*
X71534000Y-80904000D03*
%TD*%
D43*
%TO.C,C20*%
X61882000Y-84410000D03*
X61882000Y-81330000D03*
%TD*%
D24*
%TO.C,H2*%
X95199221Y-35744221D03*
X96012000Y-33782000D03*
X96012000Y-37706442D03*
X97974221Y-32969221D03*
D25*
X97974221Y-35744221D03*
D24*
X97974221Y-38519221D03*
X99936442Y-33782000D03*
X99936442Y-37706442D03*
X100749221Y-35744221D03*
%TD*%
D33*
%TO.C,R1*%
X94902000Y-63095500D03*
X94902000Y-64920500D03*
%TD*%
D45*
%TO.C,U1*%
X90904000Y-68574500D03*
X91854000Y-68574500D03*
X92804000Y-68574500D03*
X92804000Y-66299500D03*
X90904000Y-66299500D03*
%TD*%
D23*
%TO.C,TP2*%
X39477750Y-80391000D03*
%TD*%
D15*
%TO.C,R14*%
X56421000Y-79074000D03*
X56421000Y-80899000D03*
%TD*%
D38*
%TO.C,C10*%
X91031000Y-63754000D03*
X92931000Y-63754000D03*
%TD*%
D32*
%TO.C,U7*%
X76643000Y-65659000D03*
X76643000Y-64389000D03*
X76643000Y-63119000D03*
X76643000Y-61849000D03*
X71693000Y-61849000D03*
X71693000Y-63119000D03*
X71693000Y-64389000D03*
X71693000Y-65659000D03*
%TD*%
D46*
%TO.C,C3*%
X101290500Y-74549000D03*
X98165500Y-74549000D03*
%TD*%
D44*
%TO.C,C32*%
X49129750Y-82611000D03*
X49129750Y-80711000D03*
%TD*%
D37*
%TO.C,C8*%
X76548000Y-86172000D03*
X74648000Y-86172000D03*
%TD*%
D22*
%TO.C,C24*%
X59596000Y-37404000D03*
X59596000Y-39304000D03*
%TD*%
D38*
%TO.C,C30*%
X77028000Y-59436000D03*
X78928000Y-59436000D03*
%TD*%
D44*
%TO.C,C7*%
X87790000Y-68514000D03*
X87790000Y-66614000D03*
%TD*%
D47*
%TO.C,J4*%
X55213000Y-34544000D03*
D48*
X52673000Y-34544000D03*
X50133000Y-34544000D03*
X47593000Y-34544000D03*
X45053000Y-34544000D03*
X42513000Y-34544000D03*
X39973000Y-34544000D03*
X37433000Y-34544000D03*
X34893000Y-34544000D03*
X32353000Y-34544000D03*
X29813000Y-34544000D03*
X27273000Y-34544000D03*
X24733000Y-34544000D03*
X22193000Y-34544000D03*
%TD*%
D24*
%TO.C,H3*%
X79013000Y-91948000D03*
X79825779Y-89985779D03*
X79825779Y-93910221D03*
X81788000Y-89173000D03*
D25*
X81788000Y-91948000D03*
D24*
X81788000Y-94723000D03*
X83750221Y-89985779D03*
X83750221Y-93910221D03*
X84563000Y-91948000D03*
%TD*%
D49*
%TO.C,C19*%
X89806000Y-53594000D03*
X92886000Y-53594000D03*
%TD*%
D44*
%TO.C,C9*%
X98204000Y-68514000D03*
X98204000Y-66614000D03*
%TD*%
D22*
%TO.C,C31*%
X38969750Y-89347000D03*
X38969750Y-91247000D03*
%TD*%
D15*
%TO.C,R5*%
X95156000Y-59285500D03*
X95156000Y-61110500D03*
%TD*%
%TO.C,R19*%
X72996000Y-37441500D03*
X72996000Y-39266500D03*
%TD*%
D50*
%TO.C,JP2*%
X73181000Y-56754000D03*
D51*
X73181000Y-58054000D03*
%TD*%
D16*
%TO.C,R13*%
X92616000Y-45616500D03*
X92616000Y-43791500D03*
%TD*%
D41*
%TO.C,L3*%
X99822000Y-79332000D03*
X99822000Y-77132000D03*
%TD*%
D47*
%TO.C,J3*%
X22193000Y-49784000D03*
D48*
X24733000Y-49784000D03*
X27273000Y-49784000D03*
X29813000Y-49784000D03*
X32353000Y-49784000D03*
X34893000Y-49784000D03*
X37433000Y-49784000D03*
X39973000Y-49784000D03*
X42513000Y-49784000D03*
X45053000Y-49784000D03*
X47593000Y-49784000D03*
X50133000Y-49784000D03*
X52673000Y-49784000D03*
X55213000Y-49784000D03*
%TD*%
D50*
%TO.C,JP3*%
X80551000Y-64374000D03*
D51*
X80551000Y-65674000D03*
%TD*%
D32*
%TO.C,U8*%
X83091000Y-46609000D03*
X83091000Y-45339000D03*
X83091000Y-44069000D03*
X83091000Y-42799000D03*
X83091000Y-41529000D03*
X83091000Y-40259000D03*
X83091000Y-38989000D03*
X78141000Y-38989000D03*
X78141000Y-40259000D03*
X78141000Y-41529000D03*
X78141000Y-42799000D03*
X78141000Y-44069000D03*
X78141000Y-45339000D03*
X78141000Y-46609000D03*
%TD*%
D18*
%TO.C,R20*%
X48979250Y-84963000D03*
X50804250Y-84963000D03*
%TD*%
D19*
%TO.C,U5*%
X59088000Y-61849000D03*
X59088000Y-63119000D03*
X59088000Y-64389000D03*
X59088000Y-65659000D03*
X64038000Y-65659000D03*
X64038000Y-64389000D03*
X64038000Y-63119000D03*
X64038000Y-61849000D03*
%TD*%
D44*
%TO.C,C27*%
X85631000Y-41209000D03*
X85631000Y-39309000D03*
%TD*%
D15*
%TO.C,R4*%
X95156000Y-54459500D03*
X95156000Y-56284500D03*
%TD*%
D20*
%TO.C,C1*%
X91815500Y-74549000D03*
X94940500Y-74549000D03*
%TD*%
D52*
%TO.C,U2*%
X76735500Y-82804000D03*
X76735500Y-81854000D03*
X76735500Y-80904000D03*
X74460500Y-80904000D03*
X74460500Y-82804000D03*
%TD*%
D22*
%TO.C,C23*%
X56356000Y-64328000D03*
X56356000Y-66228000D03*
%TD*%
D20*
%TO.C,C13*%
X89783500Y-60579000D03*
X92908500Y-60579000D03*
%TD*%
D15*
%TO.C,R18*%
X75471000Y-37441500D03*
X75471000Y-39266500D03*
%TD*%
D38*
%TO.C,C28*%
X73251000Y-46609000D03*
X75151000Y-46609000D03*
%TD*%
D49*
%TO.C,C16*%
X89806000Y-57404000D03*
X92886000Y-57404000D03*
%TD*%
D53*
%TO.C,R2*%
X70621500Y-78552000D03*
X72446500Y-78552000D03*
%TD*%
D18*
%TO.C,R8*%
X66557500Y-78552000D03*
X68382500Y-78552000D03*
%TD*%
D45*
%TO.C,U3*%
X100302000Y-68701500D03*
X101252000Y-68701500D03*
X102202000Y-68701500D03*
X102202000Y-66426500D03*
X100302000Y-66426500D03*
%TD*%
D54*
%TO.C,C14*%
X68994000Y-84178500D03*
X68994000Y-81053500D03*
%TD*%
D46*
%TO.C,C4*%
X91511500Y-71247000D03*
X88386500Y-71247000D03*
%TD*%
D23*
%TO.C,TP3*%
X56642000Y-74168000D03*
%TD*%
D31*
%TO.C,C2*%
X79642000Y-80279500D03*
X79642000Y-83404500D03*
%TD*%
M02*
