%TF.GenerationSoftware,KiCad,Pcbnew,9.0.4*%
%TF.CreationDate,2025-09-05T01:27:12-04:00*%
%TF.ProjectId,max5719_breakout,6d617835-3731-4395-9f62-7265616b6f75,rev?*%
%TF.SameCoordinates,Original*%
%TF.FileFunction,Paste,Top*%
%TF.FilePolarity,Positive*%
%FSLAX46Y46*%
G04 Gerber Fmt 4.6, Leading zero omitted, Abs format (unit mm)*
G04 Created by KiCad (PCBNEW 9.0.4) date 2025-09-05 01:27:12*
%MOMM*%
%LPD*%
G01*
G04 APERTURE LIST*
G04 Aperture macros list*
%AMRoundRect*
0 Rectangle with rounded corners*
0 $1 Rounding radius*
0 $2 $3 $4 $5 $6 $7 $8 $9 X,Y pos of 4 corners*
0 Add a 4 corners polygon primitive as box body*
4,1,4,$2,$3,$4,$5,$6,$7,$8,$9,$2,$3,0*
0 Add four circle primitives for the rounded corners*
1,1,$1+$1,$2,$3*
1,1,$1+$1,$4,$5*
1,1,$1+$1,$6,$7*
1,1,$1+$1,$8,$9*
0 Add four rect primitives between the rounded corners*
20,1,$1+$1,$2,$3,$4,$5,0*
20,1,$1+$1,$4,$5,$6,$7,0*
20,1,$1+$1,$6,$7,$8,$9,0*
20,1,$1+$1,$8,$9,$2,$3,0*%
G04 Aperture macros list end*
%ADD10RoundRect,0.250000X0.325000X0.650000X-0.325000X0.650000X-0.325000X-0.650000X0.325000X-0.650000X0*%
%ADD11RoundRect,0.250000X0.312500X0.625000X-0.312500X0.625000X-0.312500X-0.625000X0.312500X-0.625000X0*%
%ADD12RoundRect,0.250000X-0.312500X-0.625000X0.312500X-0.625000X0.312500X0.625000X-0.312500X0.625000X0*%
%ADD13RoundRect,0.243750X0.456250X-0.243750X0.456250X0.243750X-0.456250X0.243750X-0.456250X-0.243750X0*%
%ADD14RoundRect,0.243750X-0.456250X0.243750X-0.456250X-0.243750X0.456250X-0.243750X0.456250X0.243750X0*%
%ADD15RoundRect,0.250000X-0.450000X0.262500X-0.450000X-0.262500X0.450000X-0.262500X0.450000X0.262500X0*%
%ADD16RoundRect,0.250000X0.450000X-0.262500X0.450000X0.262500X-0.450000X0.262500X-0.450000X-0.262500X0*%
%ADD17R,0.800000X2.700000*%
%ADD18RoundRect,0.250000X-0.262500X-0.450000X0.262500X-0.450000X0.262500X0.450000X-0.262500X0.450000X0*%
%ADD19RoundRect,0.150000X-0.825000X-0.150000X0.825000X-0.150000X0.825000X0.150000X-0.825000X0.150000X0*%
%ADD20RoundRect,0.250000X-0.412500X-0.650000X0.412500X-0.650000X0.412500X0.650000X-0.412500X0.650000X0*%
%ADD21RoundRect,0.250000X0.420000X0.945000X-0.420000X0.945000X-0.420000X-0.945000X0.420000X-0.945000X0*%
%ADD22RoundRect,0.250000X-0.475000X0.250000X-0.475000X-0.250000X0.475000X-0.250000X0.475000X0.250000X0*%
%ADD23RoundRect,0.250000X-0.650000X0.412500X-0.650000X-0.412500X0.650000X-0.412500X0.650000X0.412500X0*%
%ADD24RoundRect,0.150000X0.825000X0.150000X-0.825000X0.150000X-0.825000X-0.150000X0.825000X-0.150000X0*%
%ADD25RoundRect,0.237500X-0.237500X0.250000X-0.237500X-0.250000X0.237500X-0.250000X0.237500X0.250000X0*%
%ADD26RoundRect,0.250000X0.262500X0.450000X-0.262500X0.450000X-0.262500X-0.450000X0.262500X-0.450000X0*%
%ADD27RoundRect,0.250000X0.250000X0.475000X-0.250000X0.475000X-0.250000X-0.475000X0.250000X-0.475000X0*%
%ADD28RoundRect,0.250000X-0.250000X-0.475000X0.250000X-0.475000X0.250000X0.475000X-0.250000X0.475000X0*%
%ADD29R,2.700000X0.800000*%
%ADD30R,0.800000X1.300000*%
%ADD31RoundRect,0.250000X0.945000X-0.420000X0.945000X0.420000X-0.945000X0.420000X-0.945000X-0.420000X0*%
%ADD32RoundRect,0.250000X0.475000X-0.250000X0.475000X0.250000X-0.475000X0.250000X-0.475000X-0.250000X0*%
%ADD33RoundRect,0.150000X0.150000X-0.512500X0.150000X0.512500X-0.150000X0.512500X-0.150000X-0.512500X0*%
%ADD34RoundRect,0.250000X0.412500X0.650000X-0.412500X0.650000X-0.412500X-0.650000X0.412500X-0.650000X0*%
%ADD35RoundRect,0.250000X-0.420000X-0.945000X0.420000X-0.945000X0.420000X0.945000X-0.420000X0.945000X0*%
%ADD36RoundRect,0.150000X0.512500X0.150000X-0.512500X0.150000X-0.512500X-0.150000X0.512500X-0.150000X0*%
%ADD37RoundRect,0.237500X-0.250000X-0.237500X0.250000X-0.237500X0.250000X0.237500X-0.250000X0.237500X0*%
%ADD38RoundRect,0.250000X0.650000X-0.412500X0.650000X0.412500X-0.650000X0.412500X-0.650000X-0.412500X0*%
G04 APERTURE END LIST*
D10*
%TO.C,C25*%
X69261000Y-60960000D03*
X66311000Y-60960000D03*
%TD*%
D11*
%TO.C,R22*%
X45912500Y-90805000D03*
X42987500Y-90805000D03*
%TD*%
D12*
%TO.C,R21*%
X49145000Y-90805000D03*
X52070000Y-90805000D03*
%TD*%
D13*
%TO.C,D3*%
X103411000Y-41577500D03*
X103411000Y-39702500D03*
%TD*%
D14*
%TO.C,D1*%
X92616000Y-39702500D03*
X92616000Y-41577500D03*
%TD*%
D15*
%TO.C,R12*%
X105062000Y-55475500D03*
X105062000Y-57300500D03*
%TD*%
D16*
%TO.C,R10*%
X105062000Y-68476500D03*
X105062000Y-66651500D03*
%TD*%
D17*
%TO.C,L2*%
X88636000Y-78359000D03*
X86436000Y-78359000D03*
%TD*%
D18*
%TO.C,R7*%
X61628000Y-78552000D03*
X63453000Y-78552000D03*
%TD*%
D19*
%TO.C,U6*%
X62201000Y-38354000D03*
X62201000Y-39624000D03*
X62201000Y-40894000D03*
X62201000Y-42164000D03*
X62201000Y-43434000D03*
X62201000Y-44704000D03*
X62201000Y-45974000D03*
X62201000Y-47244000D03*
X67151000Y-47244000D03*
X67151000Y-45974000D03*
X67151000Y-44704000D03*
X67151000Y-43434000D03*
X67151000Y-42164000D03*
X67151000Y-40894000D03*
X67151000Y-39624000D03*
X67151000Y-38354000D03*
%TD*%
D20*
%TO.C,C15*%
X99689500Y-61214000D03*
X102814500Y-61214000D03*
%TD*%
D21*
%TO.C,C18*%
X102792000Y-57912000D03*
X99712000Y-57912000D03*
%TD*%
D20*
%TO.C,C6*%
X101213500Y-71374000D03*
X104338500Y-71374000D03*
%TD*%
D13*
%TO.C,D2*%
X56421000Y-84988000D03*
X56421000Y-83113000D03*
%TD*%
D22*
%TO.C,C22*%
X56356000Y-60518000D03*
X56356000Y-62418000D03*
%TD*%
%TO.C,C26*%
X70391000Y-37404000D03*
X70391000Y-39304000D03*
%TD*%
D23*
%TO.C,C5*%
X82456000Y-80275500D03*
X82456000Y-83400500D03*
%TD*%
D18*
%TO.C,R9*%
X74431500Y-78552000D03*
X76256500Y-78552000D03*
%TD*%
%TO.C,R16*%
X24741500Y-66802000D03*
X26566500Y-66802000D03*
%TD*%
D24*
%TO.C,U9*%
X46524750Y-87630000D03*
X46524750Y-86360000D03*
X46524750Y-85090000D03*
X46524750Y-83820000D03*
X41574750Y-83820000D03*
X41574750Y-85090000D03*
X41574750Y-86360000D03*
X41574750Y-87630000D03*
%TD*%
D15*
%TO.C,R6*%
X94902000Y-67159500D03*
X94902000Y-68984500D03*
%TD*%
D25*
%TO.C,R3*%
X105062000Y-63095500D03*
X105062000Y-64920500D03*
%TD*%
D15*
%TO.C,R11*%
X105062000Y-59285500D03*
X105062000Y-61110500D03*
%TD*%
D16*
%TO.C,R15*%
X103411000Y-45616500D03*
X103411000Y-43791500D03*
%TD*%
D21*
%TO.C,C21*%
X102538000Y-53848000D03*
X99458000Y-53848000D03*
%TD*%
D26*
%TO.C,R17*%
X68698500Y-65278000D03*
X66873500Y-65278000D03*
%TD*%
D27*
%TO.C,C29*%
X72390000Y-67818000D03*
X70490000Y-67818000D03*
%TD*%
D15*
%TO.C,R23*%
X38969750Y-84812500D03*
X38969750Y-86637500D03*
%TD*%
D28*
%TO.C,C12*%
X100302000Y-64008000D03*
X102202000Y-64008000D03*
%TD*%
D29*
%TO.C,L1*%
X94461000Y-79358000D03*
X94461000Y-77158000D03*
%TD*%
D30*
%TO.C,U4*%
X30386000Y-63170000D03*
X31656000Y-63170000D03*
X32926000Y-63170000D03*
X32926000Y-53670000D03*
X31656000Y-53670000D03*
X30386000Y-53670000D03*
%TD*%
D31*
%TO.C,C17*%
X65692000Y-84156000D03*
X65692000Y-81076000D03*
%TD*%
D32*
%TO.C,C11*%
X71534000Y-82804000D03*
X71534000Y-80904000D03*
%TD*%
D31*
%TO.C,C20*%
X61882000Y-84410000D03*
X61882000Y-81330000D03*
%TD*%
D25*
%TO.C,R1*%
X94902000Y-63095500D03*
X94902000Y-64920500D03*
%TD*%
D33*
%TO.C,U1*%
X90904000Y-68574500D03*
X91854000Y-68574500D03*
X92804000Y-68574500D03*
X92804000Y-66299500D03*
X90904000Y-66299500D03*
%TD*%
D15*
%TO.C,R14*%
X56421000Y-79074000D03*
X56421000Y-80899000D03*
%TD*%
D28*
%TO.C,C10*%
X91031000Y-63754000D03*
X92931000Y-63754000D03*
%TD*%
D24*
%TO.C,U7*%
X76643000Y-65659000D03*
X76643000Y-64389000D03*
X76643000Y-63119000D03*
X76643000Y-61849000D03*
X71693000Y-61849000D03*
X71693000Y-63119000D03*
X71693000Y-64389000D03*
X71693000Y-65659000D03*
%TD*%
D34*
%TO.C,C3*%
X101290500Y-74549000D03*
X98165500Y-74549000D03*
%TD*%
D32*
%TO.C,C32*%
X49129750Y-82611000D03*
X49129750Y-80711000D03*
%TD*%
D27*
%TO.C,C8*%
X76548000Y-86172000D03*
X74648000Y-86172000D03*
%TD*%
D22*
%TO.C,C24*%
X59596000Y-37404000D03*
X59596000Y-39304000D03*
%TD*%
D28*
%TO.C,C30*%
X77028000Y-59436000D03*
X78928000Y-59436000D03*
%TD*%
D32*
%TO.C,C7*%
X87790000Y-68514000D03*
X87790000Y-66614000D03*
%TD*%
D35*
%TO.C,C19*%
X89806000Y-53594000D03*
X92886000Y-53594000D03*
%TD*%
D32*
%TO.C,C9*%
X98204000Y-68514000D03*
X98204000Y-66614000D03*
%TD*%
D22*
%TO.C,C31*%
X38969750Y-89347000D03*
X38969750Y-91247000D03*
%TD*%
D15*
%TO.C,R5*%
X95156000Y-59285500D03*
X95156000Y-61110500D03*
%TD*%
%TO.C,R19*%
X72996000Y-37441500D03*
X72996000Y-39266500D03*
%TD*%
D16*
%TO.C,R13*%
X92616000Y-45616500D03*
X92616000Y-43791500D03*
%TD*%
D29*
%TO.C,L3*%
X99822000Y-79332000D03*
X99822000Y-77132000D03*
%TD*%
D24*
%TO.C,U8*%
X83091000Y-46609000D03*
X83091000Y-45339000D03*
X83091000Y-44069000D03*
X83091000Y-42799000D03*
X83091000Y-41529000D03*
X83091000Y-40259000D03*
X83091000Y-38989000D03*
X78141000Y-38989000D03*
X78141000Y-40259000D03*
X78141000Y-41529000D03*
X78141000Y-42799000D03*
X78141000Y-44069000D03*
X78141000Y-45339000D03*
X78141000Y-46609000D03*
%TD*%
D18*
%TO.C,R20*%
X48979250Y-84963000D03*
X50804250Y-84963000D03*
%TD*%
D19*
%TO.C,U5*%
X59088000Y-61849000D03*
X59088000Y-63119000D03*
X59088000Y-64389000D03*
X59088000Y-65659000D03*
X64038000Y-65659000D03*
X64038000Y-64389000D03*
X64038000Y-63119000D03*
X64038000Y-61849000D03*
%TD*%
D32*
%TO.C,C27*%
X85631000Y-41209000D03*
X85631000Y-39309000D03*
%TD*%
D15*
%TO.C,R4*%
X95156000Y-54459500D03*
X95156000Y-56284500D03*
%TD*%
D20*
%TO.C,C1*%
X91815500Y-74549000D03*
X94940500Y-74549000D03*
%TD*%
D36*
%TO.C,U2*%
X76735500Y-82804000D03*
X76735500Y-81854000D03*
X76735500Y-80904000D03*
X74460500Y-80904000D03*
X74460500Y-82804000D03*
%TD*%
D22*
%TO.C,C23*%
X56356000Y-64328000D03*
X56356000Y-66228000D03*
%TD*%
D20*
%TO.C,C13*%
X89783500Y-60579000D03*
X92908500Y-60579000D03*
%TD*%
D15*
%TO.C,R18*%
X75471000Y-37441500D03*
X75471000Y-39266500D03*
%TD*%
D28*
%TO.C,C28*%
X73251000Y-46609000D03*
X75151000Y-46609000D03*
%TD*%
D35*
%TO.C,C16*%
X89806000Y-57404000D03*
X92886000Y-57404000D03*
%TD*%
D37*
%TO.C,R2*%
X70621500Y-78552000D03*
X72446500Y-78552000D03*
%TD*%
D18*
%TO.C,R8*%
X66557500Y-78552000D03*
X68382500Y-78552000D03*
%TD*%
D33*
%TO.C,U3*%
X100302000Y-68701500D03*
X101252000Y-68701500D03*
X102202000Y-68701500D03*
X102202000Y-66426500D03*
X100302000Y-66426500D03*
%TD*%
D38*
%TO.C,C14*%
X68994000Y-84178500D03*
X68994000Y-81053500D03*
%TD*%
D34*
%TO.C,C4*%
X91511500Y-71247000D03*
X88386500Y-71247000D03*
%TD*%
D23*
%TO.C,C2*%
X79642000Y-80279500D03*
X79642000Y-83404500D03*
%TD*%
M02*
