%TF.GenerationSoftware,KiCad,Pcbnew,9.0.4*%
%TF.CreationDate,2025-09-05T01:27:12-04:00*%
%TF.ProjectId,max5719_breakout,6d617835-3731-4395-9f62-7265616b6f75,rev?*%
%TF.SameCoordinates,Original*%
%TF.FileFunction,Legend,Top*%
%TF.FilePolarity,Positive*%
%FSLAX46Y46*%
G04 Gerber Fmt 4.6, Leading zero omitted, Abs format (unit mm)*
G04 Created by KiCad (PCBNEW 9.0.4) date 2025-09-05 01:27:12*
%MOMM*%
%LPD*%
G01*
G04 APERTURE LIST*
%ADD10C,0.200000*%
%ADD11C,0.175000*%
%ADD12C,0.150000*%
%ADD13C,0.120000*%
G04 APERTURE END LIST*
D10*
X19907000Y-30734000D02*
X58007000Y-30734000D01*
X58007000Y-53848000D01*
X19907000Y-53848000D01*
X19907000Y-30734000D01*
X32861000Y-38354000D02*
X43275000Y-38354000D01*
X43275000Y-46736000D01*
X32861000Y-46736000D01*
X32861000Y-38354000D01*
D11*
G36*
X35282000Y-45647295D02*
G01*
X34578971Y-45647295D01*
X34578971Y-45507698D01*
X35076964Y-45341771D01*
X35181084Y-45308304D01*
X35068330Y-45270990D01*
X34578971Y-45103140D01*
X34578971Y-44978332D01*
X35282000Y-44978332D01*
X35282000Y-45067749D01*
X34693264Y-45067749D01*
X35282000Y-45271460D01*
X35282000Y-45355150D01*
X34683220Y-45557877D01*
X35282000Y-45557877D01*
X35282000Y-45647295D01*
G37*
G36*
X35282000Y-44812790D02*
G01*
X34578971Y-44812790D01*
X34578971Y-44720039D01*
X35282000Y-44720039D01*
X35282000Y-44812790D01*
G37*
G36*
X35282000Y-44559241D02*
G01*
X34578971Y-44559241D01*
X34578971Y-44419644D01*
X35076964Y-44253718D01*
X35181084Y-44220251D01*
X35068330Y-44182937D01*
X34578971Y-44015087D01*
X34578971Y-43890279D01*
X35282000Y-43890279D01*
X35282000Y-43979696D01*
X34693264Y-43979696D01*
X35282000Y-44183407D01*
X35282000Y-44267096D01*
X34683220Y-44469824D01*
X35282000Y-44469824D01*
X35282000Y-44559241D01*
G37*
G36*
X35282000Y-43811761D02*
G01*
X34915611Y-43540645D01*
X34578971Y-43779747D01*
X34578971Y-43669257D01*
X34758789Y-43542098D01*
X34844829Y-43485635D01*
X34806571Y-43460640D01*
X34764986Y-43430198D01*
X34578971Y-43289105D01*
X34578971Y-43188233D01*
X34910353Y-43434473D01*
X35282000Y-43169084D01*
X35282000Y-43283848D01*
X35031913Y-43460289D01*
X34985067Y-43490893D01*
X35037641Y-43524403D01*
X35282000Y-43700374D01*
X35282000Y-43811761D01*
G37*
G36*
X35282000Y-42584837D02*
G01*
X35134281Y-42677631D01*
X35036487Y-42744566D01*
X35005956Y-42771181D01*
X34989000Y-42791668D01*
X34977369Y-42812953D01*
X34970107Y-42833983D01*
X34966731Y-42885616D01*
X34966731Y-42993199D01*
X35282000Y-42993199D01*
X35282000Y-43085993D01*
X34578971Y-43085993D01*
X34578971Y-42775170D01*
X34579127Y-42771323D01*
X34657617Y-42771323D01*
X34657617Y-42993199D01*
X34888085Y-42993199D01*
X34888085Y-42793805D01*
X34884369Y-42733802D01*
X34875048Y-42694344D01*
X34864317Y-42671911D01*
X34850414Y-42653954D01*
X34833203Y-42639847D01*
X34803135Y-42625851D01*
X34770714Y-42621211D01*
X34739399Y-42625315D01*
X34712698Y-42637227D01*
X34689460Y-42657329D01*
X34672930Y-42683376D01*
X34661827Y-42720193D01*
X34657617Y-42771323D01*
X34579127Y-42771323D01*
X34581519Y-42712257D01*
X34588200Y-42665908D01*
X34597778Y-42632666D01*
X34613382Y-42602534D01*
X34635279Y-42576716D01*
X34664199Y-42554747D01*
X34696945Y-42538559D01*
X34731791Y-42528848D01*
X34769346Y-42525553D01*
X34805686Y-42528692D01*
X34838215Y-42537802D01*
X34867657Y-42552752D01*
X34894539Y-42573852D01*
X34916302Y-42599293D01*
X34934566Y-42631680D01*
X34949086Y-42672365D01*
X34959251Y-42723024D01*
X34978105Y-42688963D01*
X34994556Y-42667117D01*
X35035848Y-42628498D01*
X35088932Y-42590095D01*
X35282000Y-42468193D01*
X35282000Y-42584837D01*
G37*
G36*
X35282000Y-42219004D02*
G01*
X34660353Y-42219004D01*
X34660353Y-42449985D01*
X34578971Y-42449985D01*
X34578971Y-41894332D01*
X34660353Y-41894332D01*
X34660353Y-42126253D01*
X35282000Y-42126253D01*
X35282000Y-42219004D01*
G37*
G36*
X35282000Y-41509692D02*
G01*
X35282000Y-41595776D01*
X34732075Y-41595776D01*
X34760574Y-41630030D01*
X34791529Y-41677286D01*
X34818438Y-41727017D01*
X34836110Y-41767900D01*
X34754044Y-41767900D01*
X34729138Y-41721082D01*
X34701435Y-41679136D01*
X34670953Y-41641681D01*
X34636708Y-41607319D01*
X34605270Y-41582327D01*
X34576235Y-41565172D01*
X34576235Y-41509692D01*
X35282000Y-41509692D01*
G37*
G36*
X35017425Y-40835666D02*
G01*
X35082940Y-40844528D01*
X35134239Y-40857741D01*
X35182584Y-40878268D01*
X35221186Y-40903569D01*
X35251524Y-40933524D01*
X35274096Y-40969164D01*
X35288036Y-41011096D01*
X35292942Y-41060939D01*
X35288116Y-41110265D01*
X35274325Y-41152357D01*
X35251885Y-41188682D01*
X35220151Y-41220198D01*
X35185559Y-41242641D01*
X35141736Y-41261505D01*
X35086828Y-41276245D01*
X35018673Y-41285977D01*
X34934845Y-41289526D01*
X34851564Y-41286219D01*
X34785757Y-41277274D01*
X34734468Y-41263966D01*
X34686127Y-41243278D01*
X34647617Y-41217891D01*
X34617439Y-41187927D01*
X34594970Y-41152283D01*
X34581108Y-41110481D01*
X34576332Y-41061922D01*
X34648043Y-41061922D01*
X34651226Y-41090279D01*
X34660461Y-41115013D01*
X34675840Y-41136960D01*
X34698180Y-41156597D01*
X34730156Y-41173436D01*
X34777019Y-41187448D01*
X34843377Y-41197281D01*
X34934588Y-41201049D01*
X35026646Y-41197502D01*
X35091543Y-41188378D01*
X35135563Y-41175626D01*
X35164073Y-41160657D01*
X35190048Y-41138201D01*
X35207493Y-41114426D01*
X35217696Y-41088925D01*
X35221134Y-41060939D01*
X35217685Y-41032990D01*
X35207446Y-41007509D01*
X35189926Y-40983736D01*
X35163816Y-40961263D01*
X35135185Y-40946259D01*
X35091122Y-40933495D01*
X35026325Y-40924372D01*
X34934588Y-40920829D01*
X34842240Y-40924386D01*
X34777259Y-40933529D01*
X34733285Y-40946295D01*
X34704890Y-40961263D01*
X34679092Y-40983698D01*
X34661702Y-41007614D01*
X34651494Y-41033431D01*
X34648043Y-41061922D01*
X34576332Y-41061922D01*
X34576235Y-41060939D01*
X34578907Y-41023892D01*
X34586584Y-40991137D01*
X34598974Y-40961990D01*
X34616235Y-40935431D01*
X34637962Y-40912072D01*
X34664584Y-40891679D01*
X34710630Y-40867544D01*
X34768961Y-40848167D01*
X34835835Y-40836868D01*
X34934845Y-40832395D01*
X35017425Y-40835666D01*
G37*
G36*
X35096243Y-40289320D02*
G01*
X35137061Y-40298814D01*
X35175784Y-40314569D01*
X35211226Y-40336297D01*
X35239969Y-40362274D01*
X35262765Y-40392745D01*
X35279384Y-40426984D01*
X35289479Y-40464354D01*
X35292942Y-40505586D01*
X35287812Y-40557762D01*
X35272972Y-40603602D01*
X35248541Y-40644420D01*
X35213697Y-40681086D01*
X35182132Y-40703171D01*
X35142098Y-40721645D01*
X35091883Y-40736043D01*
X35029461Y-40745541D01*
X34952540Y-40749004D01*
X34866695Y-40745211D01*
X34796429Y-40734769D01*
X34739361Y-40718877D01*
X34693377Y-40698418D01*
X34656677Y-40673906D01*
X34627664Y-40645818D01*
X34605447Y-40614661D01*
X34589485Y-40580017D01*
X34579649Y-40541235D01*
X34576235Y-40497465D01*
X34579357Y-40456469D01*
X34588280Y-40420765D01*
X34602632Y-40389466D01*
X34622440Y-40361885D01*
X34647146Y-40338578D01*
X34676174Y-40320279D01*
X34710191Y-40306852D01*
X34750112Y-40298541D01*
X34756780Y-40384112D01*
X34711312Y-40399096D01*
X34684288Y-40416639D01*
X34664100Y-40441810D01*
X34652142Y-40470148D01*
X34648043Y-40502722D01*
X34650652Y-40529381D01*
X34658259Y-40553244D01*
X34670867Y-40574914D01*
X34692783Y-40599389D01*
X34721142Y-40620765D01*
X34757036Y-40639028D01*
X34795635Y-40651132D01*
X34848222Y-40659702D01*
X34918304Y-40663391D01*
X34888936Y-40640625D01*
X34865759Y-40615359D01*
X34848120Y-40587395D01*
X34835309Y-40556755D01*
X34827708Y-40525461D01*
X34826522Y-40510373D01*
X34901078Y-40510373D01*
X34905788Y-40547509D01*
X34919583Y-40580112D01*
X34942966Y-40609364D01*
X34973067Y-40631573D01*
X35009097Y-40645205D01*
X35052729Y-40650013D01*
X35096230Y-40645299D01*
X35137915Y-40631120D01*
X35163356Y-40616507D01*
X35183795Y-40598942D01*
X35199848Y-40578291D01*
X35215909Y-40543164D01*
X35221134Y-40507039D01*
X35216313Y-40472606D01*
X35201977Y-40441734D01*
X35177152Y-40413305D01*
X35145668Y-40392197D01*
X35106490Y-40378893D01*
X35057516Y-40374110D01*
X35010512Y-40378830D01*
X34973019Y-40391959D01*
X34942966Y-40412834D01*
X34919675Y-40440916D01*
X34905842Y-40472991D01*
X34901078Y-40510373D01*
X34826522Y-40510373D01*
X34825168Y-40493148D01*
X34829191Y-40451439D01*
X34840970Y-40413642D01*
X34860564Y-40378890D01*
X34888683Y-40346584D01*
X34922110Y-40320520D01*
X34959992Y-40301767D01*
X35003181Y-40290158D01*
X35052814Y-40286103D01*
X35096243Y-40289320D01*
G37*
G36*
X35200618Y-39748445D02*
G01*
X35282000Y-39748445D01*
X35282000Y-40211774D01*
X35251525Y-40209747D01*
X35222331Y-40201729D01*
X35176482Y-40179347D01*
X35129281Y-40145095D01*
X35082991Y-40100737D01*
X35023322Y-40032469D01*
X34957888Y-39956831D01*
X34909347Y-39907554D01*
X34874151Y-39878040D01*
X34835967Y-39854648D01*
X34801619Y-39841865D01*
X34770073Y-39837862D01*
X34737368Y-39841991D01*
X34708828Y-39854055D01*
X34683391Y-39874450D01*
X34664061Y-39900717D01*
X34652214Y-39932028D01*
X34648043Y-39969808D01*
X34652503Y-40009710D01*
X34665109Y-40042338D01*
X34685613Y-40069313D01*
X34712784Y-40089502D01*
X34746801Y-40102259D01*
X34789606Y-40107055D01*
X34780459Y-40195532D01*
X34731153Y-40187236D01*
X34690280Y-40172816D01*
X34656418Y-40152786D01*
X34628509Y-40127144D01*
X34606368Y-40096240D01*
X34590110Y-40060107D01*
X34579862Y-40017754D01*
X34576235Y-39967928D01*
X34580119Y-39917804D01*
X34591095Y-39875312D01*
X34608562Y-39839117D01*
X34632484Y-39808199D01*
X34662462Y-39782334D01*
X34695227Y-39764172D01*
X34731389Y-39753168D01*
X34771825Y-39749385D01*
X34813503Y-39753642D01*
X34854959Y-39766611D01*
X34895169Y-39788368D01*
X34941000Y-39823757D01*
X34989275Y-39871265D01*
X35064953Y-39956430D01*
X35125765Y-40026624D01*
X35153729Y-40055935D01*
X35177544Y-40076335D01*
X35200618Y-40092223D01*
X35200618Y-39748445D01*
G37*
D12*
X57089922Y-89715875D02*
X57661350Y-89715875D01*
X57375636Y-90715875D02*
X57375636Y-89715875D01*
X58375636Y-90668256D02*
X58280398Y-90715875D01*
X58280398Y-90715875D02*
X58089922Y-90715875D01*
X58089922Y-90715875D02*
X57994684Y-90668256D01*
X57994684Y-90668256D02*
X57947065Y-90573017D01*
X57947065Y-90573017D02*
X57947065Y-90192065D01*
X57947065Y-90192065D02*
X57994684Y-90096827D01*
X57994684Y-90096827D02*
X58089922Y-90049208D01*
X58089922Y-90049208D02*
X58280398Y-90049208D01*
X58280398Y-90049208D02*
X58375636Y-90096827D01*
X58375636Y-90096827D02*
X58423255Y-90192065D01*
X58423255Y-90192065D02*
X58423255Y-90287303D01*
X58423255Y-90287303D02*
X57947065Y-90382541D01*
X59232779Y-90668256D02*
X59137541Y-90715875D01*
X59137541Y-90715875D02*
X58947065Y-90715875D01*
X58947065Y-90715875D02*
X58851827Y-90668256D01*
X58851827Y-90668256D02*
X58804208Y-90573017D01*
X58804208Y-90573017D02*
X58804208Y-90192065D01*
X58804208Y-90192065D02*
X58851827Y-90096827D01*
X58851827Y-90096827D02*
X58947065Y-90049208D01*
X58947065Y-90049208D02*
X59137541Y-90049208D01*
X59137541Y-90049208D02*
X59232779Y-90096827D01*
X59232779Y-90096827D02*
X59280398Y-90192065D01*
X59280398Y-90192065D02*
X59280398Y-90287303D01*
X59280398Y-90287303D02*
X58804208Y-90382541D01*
X59708970Y-90049208D02*
X59708970Y-90715875D01*
X59708970Y-90144446D02*
X59756589Y-90096827D01*
X59756589Y-90096827D02*
X59851827Y-90049208D01*
X59851827Y-90049208D02*
X59994684Y-90049208D01*
X59994684Y-90049208D02*
X60089922Y-90096827D01*
X60089922Y-90096827D02*
X60137541Y-90192065D01*
X60137541Y-90192065D02*
X60137541Y-90715875D01*
X60566113Y-90668256D02*
X60661351Y-90715875D01*
X60661351Y-90715875D02*
X60851827Y-90715875D01*
X60851827Y-90715875D02*
X60947065Y-90668256D01*
X60947065Y-90668256D02*
X60994684Y-90573017D01*
X60994684Y-90573017D02*
X60994684Y-90525398D01*
X60994684Y-90525398D02*
X60947065Y-90430160D01*
X60947065Y-90430160D02*
X60851827Y-90382541D01*
X60851827Y-90382541D02*
X60708970Y-90382541D01*
X60708970Y-90382541D02*
X60613732Y-90334922D01*
X60613732Y-90334922D02*
X60566113Y-90239684D01*
X60566113Y-90239684D02*
X60566113Y-90192065D01*
X60566113Y-90192065D02*
X60613732Y-90096827D01*
X60613732Y-90096827D02*
X60708970Y-90049208D01*
X60708970Y-90049208D02*
X60851827Y-90049208D01*
X60851827Y-90049208D02*
X60947065Y-90096827D01*
X61328018Y-90049208D02*
X61566113Y-90715875D01*
X61804208Y-90049208D02*
X61566113Y-90715875D01*
X61566113Y-90715875D02*
X61470875Y-90953970D01*
X61470875Y-90953970D02*
X61423256Y-91001589D01*
X61423256Y-91001589D02*
X61328018Y-91049208D01*
X62899447Y-90430160D02*
X63375637Y-90430160D01*
X62804209Y-90715875D02*
X63137542Y-89715875D01*
X63137542Y-89715875D02*
X63470875Y-90715875D01*
X63708971Y-89715875D02*
X63947066Y-90715875D01*
X63947066Y-90715875D02*
X64137542Y-90001589D01*
X64137542Y-90001589D02*
X64328018Y-90715875D01*
X64328018Y-90715875D02*
X64566114Y-89715875D01*
X65470875Y-89763494D02*
X65375637Y-89715875D01*
X65375637Y-89715875D02*
X65232780Y-89715875D01*
X65232780Y-89715875D02*
X65089923Y-89763494D01*
X65089923Y-89763494D02*
X64994685Y-89858732D01*
X64994685Y-89858732D02*
X64947066Y-89953970D01*
X64947066Y-89953970D02*
X64899447Y-90144446D01*
X64899447Y-90144446D02*
X64899447Y-90287303D01*
X64899447Y-90287303D02*
X64947066Y-90477779D01*
X64947066Y-90477779D02*
X64994685Y-90573017D01*
X64994685Y-90573017D02*
X65089923Y-90668256D01*
X65089923Y-90668256D02*
X65232780Y-90715875D01*
X65232780Y-90715875D02*
X65328018Y-90715875D01*
X65328018Y-90715875D02*
X65470875Y-90668256D01*
X65470875Y-90668256D02*
X65518494Y-90620636D01*
X65518494Y-90620636D02*
X65518494Y-90287303D01*
X65518494Y-90287303D02*
X65328018Y-90287303D01*
X66708971Y-90334922D02*
X67470876Y-90334922D01*
X69280399Y-90620636D02*
X69232780Y-90668256D01*
X69232780Y-90668256D02*
X69089923Y-90715875D01*
X69089923Y-90715875D02*
X68994685Y-90715875D01*
X68994685Y-90715875D02*
X68851828Y-90668256D01*
X68851828Y-90668256D02*
X68756590Y-90573017D01*
X68756590Y-90573017D02*
X68708971Y-90477779D01*
X68708971Y-90477779D02*
X68661352Y-90287303D01*
X68661352Y-90287303D02*
X68661352Y-90144446D01*
X68661352Y-90144446D02*
X68708971Y-89953970D01*
X68708971Y-89953970D02*
X68756590Y-89858732D01*
X68756590Y-89858732D02*
X68851828Y-89763494D01*
X68851828Y-89763494D02*
X68994685Y-89715875D01*
X68994685Y-89715875D02*
X69089923Y-89715875D01*
X69089923Y-89715875D02*
X69232780Y-89763494D01*
X69232780Y-89763494D02*
X69280399Y-89811113D01*
X70137542Y-90715875D02*
X70137542Y-90192065D01*
X70137542Y-90192065D02*
X70089923Y-90096827D01*
X70089923Y-90096827D02*
X69994685Y-90049208D01*
X69994685Y-90049208D02*
X69804209Y-90049208D01*
X69804209Y-90049208D02*
X69708971Y-90096827D01*
X70137542Y-90668256D02*
X70042304Y-90715875D01*
X70042304Y-90715875D02*
X69804209Y-90715875D01*
X69804209Y-90715875D02*
X69708971Y-90668256D01*
X69708971Y-90668256D02*
X69661352Y-90573017D01*
X69661352Y-90573017D02*
X69661352Y-90477779D01*
X69661352Y-90477779D02*
X69708971Y-90382541D01*
X69708971Y-90382541D02*
X69804209Y-90334922D01*
X69804209Y-90334922D02*
X70042304Y-90334922D01*
X70042304Y-90334922D02*
X70137542Y-90287303D01*
X70613733Y-90715875D02*
X70613733Y-90049208D01*
X70613733Y-90239684D02*
X70661352Y-90144446D01*
X70661352Y-90144446D02*
X70708971Y-90096827D01*
X70708971Y-90096827D02*
X70804209Y-90049208D01*
X70804209Y-90049208D02*
X70899447Y-90049208D01*
X71089924Y-90049208D02*
X71470876Y-90049208D01*
X71232781Y-89715875D02*
X71232781Y-90573017D01*
X71232781Y-90573017D02*
X71280400Y-90668256D01*
X71280400Y-90668256D02*
X71375638Y-90715875D01*
X71375638Y-90715875D02*
X71470876Y-90715875D01*
X72185162Y-90668256D02*
X72089924Y-90715875D01*
X72089924Y-90715875D02*
X71899448Y-90715875D01*
X71899448Y-90715875D02*
X71804210Y-90668256D01*
X71804210Y-90668256D02*
X71756591Y-90573017D01*
X71756591Y-90573017D02*
X71756591Y-90192065D01*
X71756591Y-90192065D02*
X71804210Y-90096827D01*
X71804210Y-90096827D02*
X71899448Y-90049208D01*
X71899448Y-90049208D02*
X72089924Y-90049208D01*
X72089924Y-90049208D02*
X72185162Y-90096827D01*
X72185162Y-90096827D02*
X72232781Y-90192065D01*
X72232781Y-90192065D02*
X72232781Y-90287303D01*
X72232781Y-90287303D02*
X71756591Y-90382541D01*
X72661353Y-90715875D02*
X72661353Y-90049208D01*
X72661353Y-90239684D02*
X72708972Y-90144446D01*
X72708972Y-90144446D02*
X72756591Y-90096827D01*
X72756591Y-90096827D02*
X72851829Y-90049208D01*
X72851829Y-90049208D02*
X72947067Y-90049208D01*
X73899449Y-89715875D02*
X74470877Y-89715875D01*
X74185163Y-90715875D02*
X74185163Y-89715875D01*
X74804211Y-90620636D02*
X74851830Y-90668256D01*
X74851830Y-90668256D02*
X74804211Y-90715875D01*
X74804211Y-90715875D02*
X74756592Y-90668256D01*
X74756592Y-90668256D02*
X74804211Y-90620636D01*
X74804211Y-90620636D02*
X74804211Y-90715875D01*
X57232779Y-92325819D02*
X57232779Y-91325819D01*
X57232779Y-91325819D02*
X57566112Y-92040104D01*
X57566112Y-92040104D02*
X57899445Y-91325819D01*
X57899445Y-91325819D02*
X57899445Y-92325819D01*
X58518493Y-92325819D02*
X58423255Y-92278200D01*
X58423255Y-92278200D02*
X58375636Y-92230580D01*
X58375636Y-92230580D02*
X58328017Y-92135342D01*
X58328017Y-92135342D02*
X58328017Y-91849628D01*
X58328017Y-91849628D02*
X58375636Y-91754390D01*
X58375636Y-91754390D02*
X58423255Y-91706771D01*
X58423255Y-91706771D02*
X58518493Y-91659152D01*
X58518493Y-91659152D02*
X58661350Y-91659152D01*
X58661350Y-91659152D02*
X58756588Y-91706771D01*
X58756588Y-91706771D02*
X58804207Y-91754390D01*
X58804207Y-91754390D02*
X58851826Y-91849628D01*
X58851826Y-91849628D02*
X58851826Y-92135342D01*
X58851826Y-92135342D02*
X58804207Y-92230580D01*
X58804207Y-92230580D02*
X58756588Y-92278200D01*
X58756588Y-92278200D02*
X58661350Y-92325819D01*
X58661350Y-92325819D02*
X58518493Y-92325819D01*
X59708969Y-92325819D02*
X59708969Y-91325819D01*
X59708969Y-92278200D02*
X59613731Y-92325819D01*
X59613731Y-92325819D02*
X59423255Y-92325819D01*
X59423255Y-92325819D02*
X59328017Y-92278200D01*
X59328017Y-92278200D02*
X59280398Y-92230580D01*
X59280398Y-92230580D02*
X59232779Y-92135342D01*
X59232779Y-92135342D02*
X59232779Y-91849628D01*
X59232779Y-91849628D02*
X59280398Y-91754390D01*
X59280398Y-91754390D02*
X59328017Y-91706771D01*
X59328017Y-91706771D02*
X59423255Y-91659152D01*
X59423255Y-91659152D02*
X59613731Y-91659152D01*
X59613731Y-91659152D02*
X59708969Y-91706771D01*
X60185160Y-92325819D02*
X60185160Y-91659152D01*
X60185160Y-91325819D02*
X60137541Y-91373438D01*
X60137541Y-91373438D02*
X60185160Y-91421057D01*
X60185160Y-91421057D02*
X60232779Y-91373438D01*
X60232779Y-91373438D02*
X60185160Y-91325819D01*
X60185160Y-91325819D02*
X60185160Y-91421057D01*
X60518493Y-91659152D02*
X60899445Y-91659152D01*
X60661350Y-92325819D02*
X60661350Y-91468676D01*
X60661350Y-91468676D02*
X60708969Y-91373438D01*
X60708969Y-91373438D02*
X60804207Y-91325819D01*
X60804207Y-91325819D02*
X60899445Y-91325819D01*
X61232779Y-92325819D02*
X61232779Y-91659152D01*
X61232779Y-91325819D02*
X61185160Y-91373438D01*
X61185160Y-91373438D02*
X61232779Y-91421057D01*
X61232779Y-91421057D02*
X61280398Y-91373438D01*
X61280398Y-91373438D02*
X61232779Y-91325819D01*
X61232779Y-91325819D02*
X61232779Y-91421057D01*
X62089921Y-92278200D02*
X61994683Y-92325819D01*
X61994683Y-92325819D02*
X61804207Y-92325819D01*
X61804207Y-92325819D02*
X61708969Y-92278200D01*
X61708969Y-92278200D02*
X61661350Y-92182961D01*
X61661350Y-92182961D02*
X61661350Y-91802009D01*
X61661350Y-91802009D02*
X61708969Y-91706771D01*
X61708969Y-91706771D02*
X61804207Y-91659152D01*
X61804207Y-91659152D02*
X61994683Y-91659152D01*
X61994683Y-91659152D02*
X62089921Y-91706771D01*
X62089921Y-91706771D02*
X62137540Y-91802009D01*
X62137540Y-91802009D02*
X62137540Y-91897247D01*
X62137540Y-91897247D02*
X61661350Y-91992485D01*
X62994683Y-92325819D02*
X62994683Y-91325819D01*
X62994683Y-92278200D02*
X62899445Y-92325819D01*
X62899445Y-92325819D02*
X62708969Y-92325819D01*
X62708969Y-92325819D02*
X62613731Y-92278200D01*
X62613731Y-92278200D02*
X62566112Y-92230580D01*
X62566112Y-92230580D02*
X62518493Y-92135342D01*
X62518493Y-92135342D02*
X62518493Y-91849628D01*
X62518493Y-91849628D02*
X62566112Y-91754390D01*
X62566112Y-91754390D02*
X62613731Y-91706771D01*
X62613731Y-91706771D02*
X62708969Y-91659152D01*
X62708969Y-91659152D02*
X62899445Y-91659152D01*
X62899445Y-91659152D02*
X62994683Y-91706771D01*
X64232779Y-92325819D02*
X64232779Y-91325819D01*
X64232779Y-91706771D02*
X64328017Y-91659152D01*
X64328017Y-91659152D02*
X64518493Y-91659152D01*
X64518493Y-91659152D02*
X64613731Y-91706771D01*
X64613731Y-91706771D02*
X64661350Y-91754390D01*
X64661350Y-91754390D02*
X64708969Y-91849628D01*
X64708969Y-91849628D02*
X64708969Y-92135342D01*
X64708969Y-92135342D02*
X64661350Y-92230580D01*
X64661350Y-92230580D02*
X64613731Y-92278200D01*
X64613731Y-92278200D02*
X64518493Y-92325819D01*
X64518493Y-92325819D02*
X64328017Y-92325819D01*
X64328017Y-92325819D02*
X64232779Y-92278200D01*
X65042303Y-91659152D02*
X65280398Y-92325819D01*
X65518493Y-91659152D02*
X65280398Y-92325819D01*
X65280398Y-92325819D02*
X65185160Y-92563914D01*
X65185160Y-92563914D02*
X65137541Y-92611533D01*
X65137541Y-92611533D02*
X65042303Y-92659152D01*
X66661351Y-92325819D02*
X66661351Y-91325819D01*
X66661351Y-91325819D02*
X66899446Y-91325819D01*
X66899446Y-91325819D02*
X67042303Y-91373438D01*
X67042303Y-91373438D02*
X67137541Y-91468676D01*
X67137541Y-91468676D02*
X67185160Y-91563914D01*
X67185160Y-91563914D02*
X67232779Y-91754390D01*
X67232779Y-91754390D02*
X67232779Y-91897247D01*
X67232779Y-91897247D02*
X67185160Y-92087723D01*
X67185160Y-92087723D02*
X67137541Y-92182961D01*
X67137541Y-92182961D02*
X67042303Y-92278200D01*
X67042303Y-92278200D02*
X66899446Y-92325819D01*
X66899446Y-92325819D02*
X66661351Y-92325819D01*
X67566113Y-91659152D02*
X67804208Y-92325819D01*
X68042303Y-91659152D02*
X67804208Y-92325819D01*
X67804208Y-92325819D02*
X67708970Y-92563914D01*
X67708970Y-92563914D02*
X67661351Y-92611533D01*
X67661351Y-92611533D02*
X67566113Y-92659152D01*
X69137542Y-91421057D02*
X69185161Y-91373438D01*
X69185161Y-91373438D02*
X69280399Y-91325819D01*
X69280399Y-91325819D02*
X69518494Y-91325819D01*
X69518494Y-91325819D02*
X69613732Y-91373438D01*
X69613732Y-91373438D02*
X69661351Y-91421057D01*
X69661351Y-91421057D02*
X69708970Y-91516295D01*
X69708970Y-91516295D02*
X69708970Y-91611533D01*
X69708970Y-91611533D02*
X69661351Y-91754390D01*
X69661351Y-91754390D02*
X69089923Y-92325819D01*
X69089923Y-92325819D02*
X69708970Y-92325819D01*
X70328018Y-91325819D02*
X70423256Y-91325819D01*
X70423256Y-91325819D02*
X70518494Y-91373438D01*
X70518494Y-91373438D02*
X70566113Y-91421057D01*
X70566113Y-91421057D02*
X70613732Y-91516295D01*
X70613732Y-91516295D02*
X70661351Y-91706771D01*
X70661351Y-91706771D02*
X70661351Y-91944866D01*
X70661351Y-91944866D02*
X70613732Y-92135342D01*
X70613732Y-92135342D02*
X70566113Y-92230580D01*
X70566113Y-92230580D02*
X70518494Y-92278200D01*
X70518494Y-92278200D02*
X70423256Y-92325819D01*
X70423256Y-92325819D02*
X70328018Y-92325819D01*
X70328018Y-92325819D02*
X70232780Y-92278200D01*
X70232780Y-92278200D02*
X70185161Y-92230580D01*
X70185161Y-92230580D02*
X70137542Y-92135342D01*
X70137542Y-92135342D02*
X70089923Y-91944866D01*
X70089923Y-91944866D02*
X70089923Y-91706771D01*
X70089923Y-91706771D02*
X70137542Y-91516295D01*
X70137542Y-91516295D02*
X70185161Y-91421057D01*
X70185161Y-91421057D02*
X70232780Y-91373438D01*
X70232780Y-91373438D02*
X70328018Y-91325819D01*
X71042304Y-91421057D02*
X71089923Y-91373438D01*
X71089923Y-91373438D02*
X71185161Y-91325819D01*
X71185161Y-91325819D02*
X71423256Y-91325819D01*
X71423256Y-91325819D02*
X71518494Y-91373438D01*
X71518494Y-91373438D02*
X71566113Y-91421057D01*
X71566113Y-91421057D02*
X71613732Y-91516295D01*
X71613732Y-91516295D02*
X71613732Y-91611533D01*
X71613732Y-91611533D02*
X71566113Y-91754390D01*
X71566113Y-91754390D02*
X70994685Y-92325819D01*
X70994685Y-92325819D02*
X71613732Y-92325819D01*
X72518494Y-91325819D02*
X72042304Y-91325819D01*
X72042304Y-91325819D02*
X71994685Y-91802009D01*
X71994685Y-91802009D02*
X72042304Y-91754390D01*
X72042304Y-91754390D02*
X72137542Y-91706771D01*
X72137542Y-91706771D02*
X72375637Y-91706771D01*
X72375637Y-91706771D02*
X72470875Y-91754390D01*
X72470875Y-91754390D02*
X72518494Y-91802009D01*
X72518494Y-91802009D02*
X72566113Y-91897247D01*
X72566113Y-91897247D02*
X72566113Y-92135342D01*
X72566113Y-92135342D02*
X72518494Y-92230580D01*
X72518494Y-92230580D02*
X72470875Y-92278200D01*
X72470875Y-92278200D02*
X72375637Y-92325819D01*
X72375637Y-92325819D02*
X72137542Y-92325819D01*
X72137542Y-92325819D02*
X72042304Y-92278200D01*
X72042304Y-92278200D02*
X71994685Y-92230580D01*
X67143142Y-63169580D02*
X67095523Y-63217200D01*
X67095523Y-63217200D02*
X66952666Y-63264819D01*
X66952666Y-63264819D02*
X66857428Y-63264819D01*
X66857428Y-63264819D02*
X66714571Y-63217200D01*
X66714571Y-63217200D02*
X66619333Y-63121961D01*
X66619333Y-63121961D02*
X66571714Y-63026723D01*
X66571714Y-63026723D02*
X66524095Y-62836247D01*
X66524095Y-62836247D02*
X66524095Y-62693390D01*
X66524095Y-62693390D02*
X66571714Y-62502914D01*
X66571714Y-62502914D02*
X66619333Y-62407676D01*
X66619333Y-62407676D02*
X66714571Y-62312438D01*
X66714571Y-62312438D02*
X66857428Y-62264819D01*
X66857428Y-62264819D02*
X66952666Y-62264819D01*
X66952666Y-62264819D02*
X67095523Y-62312438D01*
X67095523Y-62312438D02*
X67143142Y-62360057D01*
X67524095Y-62360057D02*
X67571714Y-62312438D01*
X67571714Y-62312438D02*
X67666952Y-62264819D01*
X67666952Y-62264819D02*
X67905047Y-62264819D01*
X67905047Y-62264819D02*
X68000285Y-62312438D01*
X68000285Y-62312438D02*
X68047904Y-62360057D01*
X68047904Y-62360057D02*
X68095523Y-62455295D01*
X68095523Y-62455295D02*
X68095523Y-62550533D01*
X68095523Y-62550533D02*
X68047904Y-62693390D01*
X68047904Y-62693390D02*
X67476476Y-63264819D01*
X67476476Y-63264819D02*
X68095523Y-63264819D01*
X69000285Y-62264819D02*
X68524095Y-62264819D01*
X68524095Y-62264819D02*
X68476476Y-62741009D01*
X68476476Y-62741009D02*
X68524095Y-62693390D01*
X68524095Y-62693390D02*
X68619333Y-62645771D01*
X68619333Y-62645771D02*
X68857428Y-62645771D01*
X68857428Y-62645771D02*
X68952666Y-62693390D01*
X68952666Y-62693390D02*
X69000285Y-62741009D01*
X69000285Y-62741009D02*
X69047904Y-62836247D01*
X69047904Y-62836247D02*
X69047904Y-63074342D01*
X69047904Y-63074342D02*
X69000285Y-63169580D01*
X69000285Y-63169580D02*
X68952666Y-63217200D01*
X68952666Y-63217200D02*
X68857428Y-63264819D01*
X68857428Y-63264819D02*
X68619333Y-63264819D01*
X68619333Y-63264819D02*
X68524095Y-63217200D01*
X68524095Y-63217200D02*
X68476476Y-63169580D01*
X43807142Y-93089819D02*
X43473809Y-92613628D01*
X43235714Y-93089819D02*
X43235714Y-92089819D01*
X43235714Y-92089819D02*
X43616666Y-92089819D01*
X43616666Y-92089819D02*
X43711904Y-92137438D01*
X43711904Y-92137438D02*
X43759523Y-92185057D01*
X43759523Y-92185057D02*
X43807142Y-92280295D01*
X43807142Y-92280295D02*
X43807142Y-92423152D01*
X43807142Y-92423152D02*
X43759523Y-92518390D01*
X43759523Y-92518390D02*
X43711904Y-92566009D01*
X43711904Y-92566009D02*
X43616666Y-92613628D01*
X43616666Y-92613628D02*
X43235714Y-92613628D01*
X44188095Y-92185057D02*
X44235714Y-92137438D01*
X44235714Y-92137438D02*
X44330952Y-92089819D01*
X44330952Y-92089819D02*
X44569047Y-92089819D01*
X44569047Y-92089819D02*
X44664285Y-92137438D01*
X44664285Y-92137438D02*
X44711904Y-92185057D01*
X44711904Y-92185057D02*
X44759523Y-92280295D01*
X44759523Y-92280295D02*
X44759523Y-92375533D01*
X44759523Y-92375533D02*
X44711904Y-92518390D01*
X44711904Y-92518390D02*
X44140476Y-93089819D01*
X44140476Y-93089819D02*
X44759523Y-93089819D01*
X45140476Y-92185057D02*
X45188095Y-92137438D01*
X45188095Y-92137438D02*
X45283333Y-92089819D01*
X45283333Y-92089819D02*
X45521428Y-92089819D01*
X45521428Y-92089819D02*
X45616666Y-92137438D01*
X45616666Y-92137438D02*
X45664285Y-92185057D01*
X45664285Y-92185057D02*
X45711904Y-92280295D01*
X45711904Y-92280295D02*
X45711904Y-92375533D01*
X45711904Y-92375533D02*
X45664285Y-92518390D01*
X45664285Y-92518390D02*
X45092857Y-93089819D01*
X45092857Y-93089819D02*
X45711904Y-93089819D01*
X49964642Y-89429819D02*
X49631309Y-88953628D01*
X49393214Y-89429819D02*
X49393214Y-88429819D01*
X49393214Y-88429819D02*
X49774166Y-88429819D01*
X49774166Y-88429819D02*
X49869404Y-88477438D01*
X49869404Y-88477438D02*
X49917023Y-88525057D01*
X49917023Y-88525057D02*
X49964642Y-88620295D01*
X49964642Y-88620295D02*
X49964642Y-88763152D01*
X49964642Y-88763152D02*
X49917023Y-88858390D01*
X49917023Y-88858390D02*
X49869404Y-88906009D01*
X49869404Y-88906009D02*
X49774166Y-88953628D01*
X49774166Y-88953628D02*
X49393214Y-88953628D01*
X50345595Y-88525057D02*
X50393214Y-88477438D01*
X50393214Y-88477438D02*
X50488452Y-88429819D01*
X50488452Y-88429819D02*
X50726547Y-88429819D01*
X50726547Y-88429819D02*
X50821785Y-88477438D01*
X50821785Y-88477438D02*
X50869404Y-88525057D01*
X50869404Y-88525057D02*
X50917023Y-88620295D01*
X50917023Y-88620295D02*
X50917023Y-88715533D01*
X50917023Y-88715533D02*
X50869404Y-88858390D01*
X50869404Y-88858390D02*
X50297976Y-89429819D01*
X50297976Y-89429819D02*
X50917023Y-89429819D01*
X51869404Y-89429819D02*
X51297976Y-89429819D01*
X51583690Y-89429819D02*
X51583690Y-88429819D01*
X51583690Y-88429819D02*
X51488452Y-88572676D01*
X51488452Y-88572676D02*
X51393214Y-88667914D01*
X51393214Y-88667914D02*
X51297976Y-88715533D01*
X106532819Y-41378094D02*
X105532819Y-41378094D01*
X105532819Y-41378094D02*
X105532819Y-41139999D01*
X105532819Y-41139999D02*
X105580438Y-40997142D01*
X105580438Y-40997142D02*
X105675676Y-40901904D01*
X105675676Y-40901904D02*
X105770914Y-40854285D01*
X105770914Y-40854285D02*
X105961390Y-40806666D01*
X105961390Y-40806666D02*
X106104247Y-40806666D01*
X106104247Y-40806666D02*
X106294723Y-40854285D01*
X106294723Y-40854285D02*
X106389961Y-40901904D01*
X106389961Y-40901904D02*
X106485200Y-40997142D01*
X106485200Y-40997142D02*
X106532819Y-41139999D01*
X106532819Y-41139999D02*
X106532819Y-41378094D01*
X105532819Y-40473332D02*
X105532819Y-39854285D01*
X105532819Y-39854285D02*
X105913771Y-40187618D01*
X105913771Y-40187618D02*
X105913771Y-40044761D01*
X105913771Y-40044761D02*
X105961390Y-39949523D01*
X105961390Y-39949523D02*
X106009009Y-39901904D01*
X106009009Y-39901904D02*
X106104247Y-39854285D01*
X106104247Y-39854285D02*
X106342342Y-39854285D01*
X106342342Y-39854285D02*
X106437580Y-39901904D01*
X106437580Y-39901904D02*
X106485200Y-39949523D01*
X106485200Y-39949523D02*
X106532819Y-40044761D01*
X106532819Y-40044761D02*
X106532819Y-40330475D01*
X106532819Y-40330475D02*
X106485200Y-40425713D01*
X106485200Y-40425713D02*
X106437580Y-40473332D01*
X94848819Y-41378094D02*
X93848819Y-41378094D01*
X93848819Y-41378094D02*
X93848819Y-41139999D01*
X93848819Y-41139999D02*
X93896438Y-40997142D01*
X93896438Y-40997142D02*
X93991676Y-40901904D01*
X93991676Y-40901904D02*
X94086914Y-40854285D01*
X94086914Y-40854285D02*
X94277390Y-40806666D01*
X94277390Y-40806666D02*
X94420247Y-40806666D01*
X94420247Y-40806666D02*
X94610723Y-40854285D01*
X94610723Y-40854285D02*
X94705961Y-40901904D01*
X94705961Y-40901904D02*
X94801200Y-40997142D01*
X94801200Y-40997142D02*
X94848819Y-41139999D01*
X94848819Y-41139999D02*
X94848819Y-41378094D01*
X94848819Y-39854285D02*
X94848819Y-40425713D01*
X94848819Y-40139999D02*
X93848819Y-40139999D01*
X93848819Y-40139999D02*
X93991676Y-40235237D01*
X93991676Y-40235237D02*
X94086914Y-40330475D01*
X94086914Y-40330475D02*
X94134533Y-40425713D01*
X107675819Y-57030857D02*
X107199628Y-57364190D01*
X107675819Y-57602285D02*
X106675819Y-57602285D01*
X106675819Y-57602285D02*
X106675819Y-57221333D01*
X106675819Y-57221333D02*
X106723438Y-57126095D01*
X106723438Y-57126095D02*
X106771057Y-57078476D01*
X106771057Y-57078476D02*
X106866295Y-57030857D01*
X106866295Y-57030857D02*
X107009152Y-57030857D01*
X107009152Y-57030857D02*
X107104390Y-57078476D01*
X107104390Y-57078476D02*
X107152009Y-57126095D01*
X107152009Y-57126095D02*
X107199628Y-57221333D01*
X107199628Y-57221333D02*
X107199628Y-57602285D01*
X107675819Y-56078476D02*
X107675819Y-56649904D01*
X107675819Y-56364190D02*
X106675819Y-56364190D01*
X106675819Y-56364190D02*
X106818676Y-56459428D01*
X106818676Y-56459428D02*
X106913914Y-56554666D01*
X106913914Y-56554666D02*
X106961533Y-56649904D01*
X106771057Y-55697523D02*
X106723438Y-55649904D01*
X106723438Y-55649904D02*
X106675819Y-55554666D01*
X106675819Y-55554666D02*
X106675819Y-55316571D01*
X106675819Y-55316571D02*
X106723438Y-55221333D01*
X106723438Y-55221333D02*
X106771057Y-55173714D01*
X106771057Y-55173714D02*
X106866295Y-55126095D01*
X106866295Y-55126095D02*
X106961533Y-55126095D01*
X106961533Y-55126095D02*
X107104390Y-55173714D01*
X107104390Y-55173714D02*
X107675819Y-55745142D01*
X107675819Y-55745142D02*
X107675819Y-55126095D01*
X107548819Y-68841857D02*
X107072628Y-69175190D01*
X107548819Y-69413285D02*
X106548819Y-69413285D01*
X106548819Y-69413285D02*
X106548819Y-69032333D01*
X106548819Y-69032333D02*
X106596438Y-68937095D01*
X106596438Y-68937095D02*
X106644057Y-68889476D01*
X106644057Y-68889476D02*
X106739295Y-68841857D01*
X106739295Y-68841857D02*
X106882152Y-68841857D01*
X106882152Y-68841857D02*
X106977390Y-68889476D01*
X106977390Y-68889476D02*
X107025009Y-68937095D01*
X107025009Y-68937095D02*
X107072628Y-69032333D01*
X107072628Y-69032333D02*
X107072628Y-69413285D01*
X107548819Y-67889476D02*
X107548819Y-68460904D01*
X107548819Y-68175190D02*
X106548819Y-68175190D01*
X106548819Y-68175190D02*
X106691676Y-68270428D01*
X106691676Y-68270428D02*
X106786914Y-68365666D01*
X106786914Y-68365666D02*
X106834533Y-68460904D01*
X106548819Y-67270428D02*
X106548819Y-67175190D01*
X106548819Y-67175190D02*
X106596438Y-67079952D01*
X106596438Y-67079952D02*
X106644057Y-67032333D01*
X106644057Y-67032333D02*
X106739295Y-66984714D01*
X106739295Y-66984714D02*
X106929771Y-66937095D01*
X106929771Y-66937095D02*
X107167866Y-66937095D01*
X107167866Y-66937095D02*
X107358342Y-66984714D01*
X107358342Y-66984714D02*
X107453580Y-67032333D01*
X107453580Y-67032333D02*
X107501200Y-67079952D01*
X107501200Y-67079952D02*
X107548819Y-67175190D01*
X107548819Y-67175190D02*
X107548819Y-67270428D01*
X107548819Y-67270428D02*
X107501200Y-67365666D01*
X107501200Y-67365666D02*
X107453580Y-67413285D01*
X107453580Y-67413285D02*
X107358342Y-67460904D01*
X107358342Y-67460904D02*
X107167866Y-67508523D01*
X107167866Y-67508523D02*
X106929771Y-67508523D01*
X106929771Y-67508523D02*
X106739295Y-67460904D01*
X106739295Y-67460904D02*
X106644057Y-67413285D01*
X106644057Y-67413285D02*
X106596438Y-67365666D01*
X106596438Y-67365666D02*
X106548819Y-67270428D01*
X87369333Y-81313819D02*
X86893143Y-81313819D01*
X86893143Y-81313819D02*
X86893143Y-80313819D01*
X87655048Y-80409057D02*
X87702667Y-80361438D01*
X87702667Y-80361438D02*
X87797905Y-80313819D01*
X87797905Y-80313819D02*
X88036000Y-80313819D01*
X88036000Y-80313819D02*
X88131238Y-80361438D01*
X88131238Y-80361438D02*
X88178857Y-80409057D01*
X88178857Y-80409057D02*
X88226476Y-80504295D01*
X88226476Y-80504295D02*
X88226476Y-80599533D01*
X88226476Y-80599533D02*
X88178857Y-80742390D01*
X88178857Y-80742390D02*
X87607429Y-81313819D01*
X87607429Y-81313819D02*
X88226476Y-81313819D01*
X62604333Y-76908819D02*
X62271000Y-76432628D01*
X62032905Y-76908819D02*
X62032905Y-75908819D01*
X62032905Y-75908819D02*
X62413857Y-75908819D01*
X62413857Y-75908819D02*
X62509095Y-75956438D01*
X62509095Y-75956438D02*
X62556714Y-76004057D01*
X62556714Y-76004057D02*
X62604333Y-76099295D01*
X62604333Y-76099295D02*
X62604333Y-76242152D01*
X62604333Y-76242152D02*
X62556714Y-76337390D01*
X62556714Y-76337390D02*
X62509095Y-76385009D01*
X62509095Y-76385009D02*
X62413857Y-76432628D01*
X62413857Y-76432628D02*
X62032905Y-76432628D01*
X62937667Y-75908819D02*
X63604333Y-75908819D01*
X63604333Y-75908819D02*
X63175762Y-76908819D01*
X63914095Y-36353819D02*
X63914095Y-37163342D01*
X63914095Y-37163342D02*
X63961714Y-37258580D01*
X63961714Y-37258580D02*
X64009333Y-37306200D01*
X64009333Y-37306200D02*
X64104571Y-37353819D01*
X64104571Y-37353819D02*
X64295047Y-37353819D01*
X64295047Y-37353819D02*
X64390285Y-37306200D01*
X64390285Y-37306200D02*
X64437904Y-37258580D01*
X64437904Y-37258580D02*
X64485523Y-37163342D01*
X64485523Y-37163342D02*
X64485523Y-36353819D01*
X65390285Y-36353819D02*
X65199809Y-36353819D01*
X65199809Y-36353819D02*
X65104571Y-36401438D01*
X65104571Y-36401438D02*
X65056952Y-36449057D01*
X65056952Y-36449057D02*
X64961714Y-36591914D01*
X64961714Y-36591914D02*
X64914095Y-36782390D01*
X64914095Y-36782390D02*
X64914095Y-37163342D01*
X64914095Y-37163342D02*
X64961714Y-37258580D01*
X64961714Y-37258580D02*
X65009333Y-37306200D01*
X65009333Y-37306200D02*
X65104571Y-37353819D01*
X65104571Y-37353819D02*
X65295047Y-37353819D01*
X65295047Y-37353819D02*
X65390285Y-37306200D01*
X65390285Y-37306200D02*
X65437904Y-37258580D01*
X65437904Y-37258580D02*
X65485523Y-37163342D01*
X65485523Y-37163342D02*
X65485523Y-36925247D01*
X65485523Y-36925247D02*
X65437904Y-36830009D01*
X65437904Y-36830009D02*
X65390285Y-36782390D01*
X65390285Y-36782390D02*
X65295047Y-36734771D01*
X65295047Y-36734771D02*
X65104571Y-36734771D01*
X65104571Y-36734771D02*
X65009333Y-36782390D01*
X65009333Y-36782390D02*
X64961714Y-36830009D01*
X64961714Y-36830009D02*
X64914095Y-36925247D01*
X98563580Y-61602857D02*
X98611200Y-61650476D01*
X98611200Y-61650476D02*
X98658819Y-61793333D01*
X98658819Y-61793333D02*
X98658819Y-61888571D01*
X98658819Y-61888571D02*
X98611200Y-62031428D01*
X98611200Y-62031428D02*
X98515961Y-62126666D01*
X98515961Y-62126666D02*
X98420723Y-62174285D01*
X98420723Y-62174285D02*
X98230247Y-62221904D01*
X98230247Y-62221904D02*
X98087390Y-62221904D01*
X98087390Y-62221904D02*
X97896914Y-62174285D01*
X97896914Y-62174285D02*
X97801676Y-62126666D01*
X97801676Y-62126666D02*
X97706438Y-62031428D01*
X97706438Y-62031428D02*
X97658819Y-61888571D01*
X97658819Y-61888571D02*
X97658819Y-61793333D01*
X97658819Y-61793333D02*
X97706438Y-61650476D01*
X97706438Y-61650476D02*
X97754057Y-61602857D01*
X98658819Y-60650476D02*
X98658819Y-61221904D01*
X98658819Y-60936190D02*
X97658819Y-60936190D01*
X97658819Y-60936190D02*
X97801676Y-61031428D01*
X97801676Y-61031428D02*
X97896914Y-61126666D01*
X97896914Y-61126666D02*
X97944533Y-61221904D01*
X97658819Y-59745714D02*
X97658819Y-60221904D01*
X97658819Y-60221904D02*
X98135009Y-60269523D01*
X98135009Y-60269523D02*
X98087390Y-60221904D01*
X98087390Y-60221904D02*
X98039771Y-60126666D01*
X98039771Y-60126666D02*
X98039771Y-59888571D01*
X98039771Y-59888571D02*
X98087390Y-59793333D01*
X98087390Y-59793333D02*
X98135009Y-59745714D01*
X98135009Y-59745714D02*
X98230247Y-59698095D01*
X98230247Y-59698095D02*
X98468342Y-59698095D01*
X98468342Y-59698095D02*
X98563580Y-59745714D01*
X98563580Y-59745714D02*
X98611200Y-59793333D01*
X98611200Y-59793333D02*
X98658819Y-59888571D01*
X98658819Y-59888571D02*
X98658819Y-60126666D01*
X98658819Y-60126666D02*
X98611200Y-60221904D01*
X98611200Y-60221904D02*
X98563580Y-60269523D01*
X98563580Y-58554857D02*
X98611200Y-58602476D01*
X98611200Y-58602476D02*
X98658819Y-58745333D01*
X98658819Y-58745333D02*
X98658819Y-58840571D01*
X98658819Y-58840571D02*
X98611200Y-58983428D01*
X98611200Y-58983428D02*
X98515961Y-59078666D01*
X98515961Y-59078666D02*
X98420723Y-59126285D01*
X98420723Y-59126285D02*
X98230247Y-59173904D01*
X98230247Y-59173904D02*
X98087390Y-59173904D01*
X98087390Y-59173904D02*
X97896914Y-59126285D01*
X97896914Y-59126285D02*
X97801676Y-59078666D01*
X97801676Y-59078666D02*
X97706438Y-58983428D01*
X97706438Y-58983428D02*
X97658819Y-58840571D01*
X97658819Y-58840571D02*
X97658819Y-58745333D01*
X97658819Y-58745333D02*
X97706438Y-58602476D01*
X97706438Y-58602476D02*
X97754057Y-58554857D01*
X98658819Y-57602476D02*
X98658819Y-58173904D01*
X98658819Y-57888190D02*
X97658819Y-57888190D01*
X97658819Y-57888190D02*
X97801676Y-57983428D01*
X97801676Y-57983428D02*
X97896914Y-58078666D01*
X97896914Y-58078666D02*
X97944533Y-58173904D01*
X98087390Y-57031047D02*
X98039771Y-57126285D01*
X98039771Y-57126285D02*
X97992152Y-57173904D01*
X97992152Y-57173904D02*
X97896914Y-57221523D01*
X97896914Y-57221523D02*
X97849295Y-57221523D01*
X97849295Y-57221523D02*
X97754057Y-57173904D01*
X97754057Y-57173904D02*
X97706438Y-57126285D01*
X97706438Y-57126285D02*
X97658819Y-57031047D01*
X97658819Y-57031047D02*
X97658819Y-56840571D01*
X97658819Y-56840571D02*
X97706438Y-56745333D01*
X97706438Y-56745333D02*
X97754057Y-56697714D01*
X97754057Y-56697714D02*
X97849295Y-56650095D01*
X97849295Y-56650095D02*
X97896914Y-56650095D01*
X97896914Y-56650095D02*
X97992152Y-56697714D01*
X97992152Y-56697714D02*
X98039771Y-56745333D01*
X98039771Y-56745333D02*
X98087390Y-56840571D01*
X98087390Y-56840571D02*
X98087390Y-57031047D01*
X98087390Y-57031047D02*
X98135009Y-57126285D01*
X98135009Y-57126285D02*
X98182628Y-57173904D01*
X98182628Y-57173904D02*
X98277866Y-57221523D01*
X98277866Y-57221523D02*
X98468342Y-57221523D01*
X98468342Y-57221523D02*
X98563580Y-57173904D01*
X98563580Y-57173904D02*
X98611200Y-57126285D01*
X98611200Y-57126285D02*
X98658819Y-57031047D01*
X98658819Y-57031047D02*
X98658819Y-56840571D01*
X98658819Y-56840571D02*
X98611200Y-56745333D01*
X98611200Y-56745333D02*
X98563580Y-56697714D01*
X98563580Y-56697714D02*
X98468342Y-56650095D01*
X98468342Y-56650095D02*
X98277866Y-56650095D01*
X98277866Y-56650095D02*
X98182628Y-56697714D01*
X98182628Y-56697714D02*
X98135009Y-56745333D01*
X98135009Y-56745333D02*
X98087390Y-56840571D01*
X106673333Y-71987580D02*
X106625714Y-72035200D01*
X106625714Y-72035200D02*
X106482857Y-72082819D01*
X106482857Y-72082819D02*
X106387619Y-72082819D01*
X106387619Y-72082819D02*
X106244762Y-72035200D01*
X106244762Y-72035200D02*
X106149524Y-71939961D01*
X106149524Y-71939961D02*
X106101905Y-71844723D01*
X106101905Y-71844723D02*
X106054286Y-71654247D01*
X106054286Y-71654247D02*
X106054286Y-71511390D01*
X106054286Y-71511390D02*
X106101905Y-71320914D01*
X106101905Y-71320914D02*
X106149524Y-71225676D01*
X106149524Y-71225676D02*
X106244762Y-71130438D01*
X106244762Y-71130438D02*
X106387619Y-71082819D01*
X106387619Y-71082819D02*
X106482857Y-71082819D01*
X106482857Y-71082819D02*
X106625714Y-71130438D01*
X106625714Y-71130438D02*
X106673333Y-71178057D01*
X107530476Y-71082819D02*
X107340000Y-71082819D01*
X107340000Y-71082819D02*
X107244762Y-71130438D01*
X107244762Y-71130438D02*
X107197143Y-71178057D01*
X107197143Y-71178057D02*
X107101905Y-71320914D01*
X107101905Y-71320914D02*
X107054286Y-71511390D01*
X107054286Y-71511390D02*
X107054286Y-71892342D01*
X107054286Y-71892342D02*
X107101905Y-71987580D01*
X107101905Y-71987580D02*
X107149524Y-72035200D01*
X107149524Y-72035200D02*
X107244762Y-72082819D01*
X107244762Y-72082819D02*
X107435238Y-72082819D01*
X107435238Y-72082819D02*
X107530476Y-72035200D01*
X107530476Y-72035200D02*
X107578095Y-71987580D01*
X107578095Y-71987580D02*
X107625714Y-71892342D01*
X107625714Y-71892342D02*
X107625714Y-71654247D01*
X107625714Y-71654247D02*
X107578095Y-71559009D01*
X107578095Y-71559009D02*
X107530476Y-71511390D01*
X107530476Y-71511390D02*
X107435238Y-71463771D01*
X107435238Y-71463771D02*
X107244762Y-71463771D01*
X107244762Y-71463771D02*
X107149524Y-71511390D01*
X107149524Y-71511390D02*
X107101905Y-71559009D01*
X107101905Y-71559009D02*
X107054286Y-71654247D01*
X59415819Y-84788594D02*
X58415819Y-84788594D01*
X58415819Y-84788594D02*
X58415819Y-84550499D01*
X58415819Y-84550499D02*
X58463438Y-84407642D01*
X58463438Y-84407642D02*
X58558676Y-84312404D01*
X58558676Y-84312404D02*
X58653914Y-84264785D01*
X58653914Y-84264785D02*
X58844390Y-84217166D01*
X58844390Y-84217166D02*
X58987247Y-84217166D01*
X58987247Y-84217166D02*
X59177723Y-84264785D01*
X59177723Y-84264785D02*
X59272961Y-84312404D01*
X59272961Y-84312404D02*
X59368200Y-84407642D01*
X59368200Y-84407642D02*
X59415819Y-84550499D01*
X59415819Y-84550499D02*
X59415819Y-84788594D01*
X58511057Y-83836213D02*
X58463438Y-83788594D01*
X58463438Y-83788594D02*
X58415819Y-83693356D01*
X58415819Y-83693356D02*
X58415819Y-83455261D01*
X58415819Y-83455261D02*
X58463438Y-83360023D01*
X58463438Y-83360023D02*
X58511057Y-83312404D01*
X58511057Y-83312404D02*
X58606295Y-83264785D01*
X58606295Y-83264785D02*
X58701533Y-83264785D01*
X58701533Y-83264785D02*
X58844390Y-83312404D01*
X58844390Y-83312404D02*
X59415819Y-83883832D01*
X59415819Y-83883832D02*
X59415819Y-83264785D01*
X54810580Y-62110857D02*
X54858200Y-62158476D01*
X54858200Y-62158476D02*
X54905819Y-62301333D01*
X54905819Y-62301333D02*
X54905819Y-62396571D01*
X54905819Y-62396571D02*
X54858200Y-62539428D01*
X54858200Y-62539428D02*
X54762961Y-62634666D01*
X54762961Y-62634666D02*
X54667723Y-62682285D01*
X54667723Y-62682285D02*
X54477247Y-62729904D01*
X54477247Y-62729904D02*
X54334390Y-62729904D01*
X54334390Y-62729904D02*
X54143914Y-62682285D01*
X54143914Y-62682285D02*
X54048676Y-62634666D01*
X54048676Y-62634666D02*
X53953438Y-62539428D01*
X53953438Y-62539428D02*
X53905819Y-62396571D01*
X53905819Y-62396571D02*
X53905819Y-62301333D01*
X53905819Y-62301333D02*
X53953438Y-62158476D01*
X53953438Y-62158476D02*
X54001057Y-62110857D01*
X54001057Y-61729904D02*
X53953438Y-61682285D01*
X53953438Y-61682285D02*
X53905819Y-61587047D01*
X53905819Y-61587047D02*
X53905819Y-61348952D01*
X53905819Y-61348952D02*
X53953438Y-61253714D01*
X53953438Y-61253714D02*
X54001057Y-61206095D01*
X54001057Y-61206095D02*
X54096295Y-61158476D01*
X54096295Y-61158476D02*
X54191533Y-61158476D01*
X54191533Y-61158476D02*
X54334390Y-61206095D01*
X54334390Y-61206095D02*
X54905819Y-61777523D01*
X54905819Y-61777523D02*
X54905819Y-61158476D01*
X54001057Y-60777523D02*
X53953438Y-60729904D01*
X53953438Y-60729904D02*
X53905819Y-60634666D01*
X53905819Y-60634666D02*
X53905819Y-60396571D01*
X53905819Y-60396571D02*
X53953438Y-60301333D01*
X53953438Y-60301333D02*
X54001057Y-60253714D01*
X54001057Y-60253714D02*
X54096295Y-60206095D01*
X54096295Y-60206095D02*
X54191533Y-60206095D01*
X54191533Y-60206095D02*
X54334390Y-60253714D01*
X54334390Y-60253714D02*
X54905819Y-60825142D01*
X54905819Y-60825142D02*
X54905819Y-60206095D01*
X88146095Y-38570819D02*
X88717523Y-38570819D01*
X88431809Y-39570819D02*
X88431809Y-38570819D01*
X89050857Y-39570819D02*
X89050857Y-38570819D01*
X89050857Y-38570819D02*
X89431809Y-38570819D01*
X89431809Y-38570819D02*
X89527047Y-38618438D01*
X89527047Y-38618438D02*
X89574666Y-38666057D01*
X89574666Y-38666057D02*
X89622285Y-38761295D01*
X89622285Y-38761295D02*
X89622285Y-38904152D01*
X89622285Y-38904152D02*
X89574666Y-38999390D01*
X89574666Y-38999390D02*
X89527047Y-39047009D01*
X89527047Y-39047009D02*
X89431809Y-39094628D01*
X89431809Y-39094628D02*
X89050857Y-39094628D01*
X90574666Y-39570819D02*
X90003238Y-39570819D01*
X90288952Y-39570819D02*
X90288952Y-38570819D01*
X90288952Y-38570819D02*
X90193714Y-38713676D01*
X90193714Y-38713676D02*
X90098476Y-38808914D01*
X90098476Y-38808914D02*
X90003238Y-38856533D01*
X70750580Y-35821857D02*
X70798200Y-35869476D01*
X70798200Y-35869476D02*
X70845819Y-36012333D01*
X70845819Y-36012333D02*
X70845819Y-36107571D01*
X70845819Y-36107571D02*
X70798200Y-36250428D01*
X70798200Y-36250428D02*
X70702961Y-36345666D01*
X70702961Y-36345666D02*
X70607723Y-36393285D01*
X70607723Y-36393285D02*
X70417247Y-36440904D01*
X70417247Y-36440904D02*
X70274390Y-36440904D01*
X70274390Y-36440904D02*
X70083914Y-36393285D01*
X70083914Y-36393285D02*
X69988676Y-36345666D01*
X69988676Y-36345666D02*
X69893438Y-36250428D01*
X69893438Y-36250428D02*
X69845819Y-36107571D01*
X69845819Y-36107571D02*
X69845819Y-36012333D01*
X69845819Y-36012333D02*
X69893438Y-35869476D01*
X69893438Y-35869476D02*
X69941057Y-35821857D01*
X69941057Y-35440904D02*
X69893438Y-35393285D01*
X69893438Y-35393285D02*
X69845819Y-35298047D01*
X69845819Y-35298047D02*
X69845819Y-35059952D01*
X69845819Y-35059952D02*
X69893438Y-34964714D01*
X69893438Y-34964714D02*
X69941057Y-34917095D01*
X69941057Y-34917095D02*
X70036295Y-34869476D01*
X70036295Y-34869476D02*
X70131533Y-34869476D01*
X70131533Y-34869476D02*
X70274390Y-34917095D01*
X70274390Y-34917095D02*
X70845819Y-35488523D01*
X70845819Y-35488523D02*
X70845819Y-34869476D01*
X69845819Y-34012333D02*
X69845819Y-34202809D01*
X69845819Y-34202809D02*
X69893438Y-34298047D01*
X69893438Y-34298047D02*
X69941057Y-34345666D01*
X69941057Y-34345666D02*
X70083914Y-34440904D01*
X70083914Y-34440904D02*
X70274390Y-34488523D01*
X70274390Y-34488523D02*
X70655342Y-34488523D01*
X70655342Y-34488523D02*
X70750580Y-34440904D01*
X70750580Y-34440904D02*
X70798200Y-34393285D01*
X70798200Y-34393285D02*
X70845819Y-34298047D01*
X70845819Y-34298047D02*
X70845819Y-34107571D01*
X70845819Y-34107571D02*
X70798200Y-34012333D01*
X70798200Y-34012333D02*
X70750580Y-33964714D01*
X70750580Y-33964714D02*
X70655342Y-33917095D01*
X70655342Y-33917095D02*
X70417247Y-33917095D01*
X70417247Y-33917095D02*
X70322009Y-33964714D01*
X70322009Y-33964714D02*
X70274390Y-34012333D01*
X70274390Y-34012333D02*
X70226771Y-34107571D01*
X70226771Y-34107571D02*
X70226771Y-34298047D01*
X70226771Y-34298047D02*
X70274390Y-34393285D01*
X70274390Y-34393285D02*
X70322009Y-34440904D01*
X70322009Y-34440904D02*
X70417247Y-34488523D01*
X38862095Y-58288819D02*
X38862095Y-57288819D01*
X38862095Y-57765009D02*
X39433523Y-57765009D01*
X39433523Y-58288819D02*
X39433523Y-57288819D01*
X40433523Y-58288819D02*
X39862095Y-58288819D01*
X40147809Y-58288819D02*
X40147809Y-57288819D01*
X40147809Y-57288819D02*
X40052571Y-57431676D01*
X40052571Y-57431676D02*
X39957333Y-57526914D01*
X39957333Y-57526914D02*
X39862095Y-57574533D01*
X104864819Y-80978333D02*
X105579104Y-80978333D01*
X105579104Y-80978333D02*
X105721961Y-81025952D01*
X105721961Y-81025952D02*
X105817200Y-81121190D01*
X105817200Y-81121190D02*
X105864819Y-81264047D01*
X105864819Y-81264047D02*
X105864819Y-81359285D01*
X105864819Y-79978333D02*
X105864819Y-80549761D01*
X105864819Y-80264047D02*
X104864819Y-80264047D01*
X104864819Y-80264047D02*
X105007676Y-80359285D01*
X105007676Y-80359285D02*
X105102914Y-80454523D01*
X105102914Y-80454523D02*
X105150533Y-80549761D01*
X83909819Y-61793333D02*
X84624104Y-61793333D01*
X84624104Y-61793333D02*
X84766961Y-61840952D01*
X84766961Y-61840952D02*
X84862200Y-61936190D01*
X84862200Y-61936190D02*
X84909819Y-62079047D01*
X84909819Y-62079047D02*
X84909819Y-62174285D01*
X84909819Y-61317142D02*
X83909819Y-61317142D01*
X83909819Y-61317142D02*
X83909819Y-60936190D01*
X83909819Y-60936190D02*
X83957438Y-60840952D01*
X83957438Y-60840952D02*
X84005057Y-60793333D01*
X84005057Y-60793333D02*
X84100295Y-60745714D01*
X84100295Y-60745714D02*
X84243152Y-60745714D01*
X84243152Y-60745714D02*
X84338390Y-60793333D01*
X84338390Y-60793333D02*
X84386009Y-60840952D01*
X84386009Y-60840952D02*
X84433628Y-60936190D01*
X84433628Y-60936190D02*
X84433628Y-61317142D01*
X84909819Y-59793333D02*
X84909819Y-60364761D01*
X84909819Y-60079047D02*
X83909819Y-60079047D01*
X83909819Y-60079047D02*
X84052676Y-60174285D01*
X84052676Y-60174285D02*
X84147914Y-60269523D01*
X84147914Y-60269523D02*
X84195533Y-60364761D01*
X82815580Y-85818666D02*
X82863200Y-85866285D01*
X82863200Y-85866285D02*
X82910819Y-86009142D01*
X82910819Y-86009142D02*
X82910819Y-86104380D01*
X82910819Y-86104380D02*
X82863200Y-86247237D01*
X82863200Y-86247237D02*
X82767961Y-86342475D01*
X82767961Y-86342475D02*
X82672723Y-86390094D01*
X82672723Y-86390094D02*
X82482247Y-86437713D01*
X82482247Y-86437713D02*
X82339390Y-86437713D01*
X82339390Y-86437713D02*
X82148914Y-86390094D01*
X82148914Y-86390094D02*
X82053676Y-86342475D01*
X82053676Y-86342475D02*
X81958438Y-86247237D01*
X81958438Y-86247237D02*
X81910819Y-86104380D01*
X81910819Y-86104380D02*
X81910819Y-86009142D01*
X81910819Y-86009142D02*
X81958438Y-85866285D01*
X81958438Y-85866285D02*
X82006057Y-85818666D01*
X81910819Y-84913904D02*
X81910819Y-85390094D01*
X81910819Y-85390094D02*
X82387009Y-85437713D01*
X82387009Y-85437713D02*
X82339390Y-85390094D01*
X82339390Y-85390094D02*
X82291771Y-85294856D01*
X82291771Y-85294856D02*
X82291771Y-85056761D01*
X82291771Y-85056761D02*
X82339390Y-84961523D01*
X82339390Y-84961523D02*
X82387009Y-84913904D01*
X82387009Y-84913904D02*
X82482247Y-84866285D01*
X82482247Y-84866285D02*
X82720342Y-84866285D01*
X82720342Y-84866285D02*
X82815580Y-84913904D01*
X82815580Y-84913904D02*
X82863200Y-84961523D01*
X82863200Y-84961523D02*
X82910819Y-85056761D01*
X82910819Y-85056761D02*
X82910819Y-85294856D01*
X82910819Y-85294856D02*
X82863200Y-85390094D01*
X82863200Y-85390094D02*
X82815580Y-85437713D01*
X75177333Y-77356819D02*
X74844000Y-76880628D01*
X74605905Y-77356819D02*
X74605905Y-76356819D01*
X74605905Y-76356819D02*
X74986857Y-76356819D01*
X74986857Y-76356819D02*
X75082095Y-76404438D01*
X75082095Y-76404438D02*
X75129714Y-76452057D01*
X75129714Y-76452057D02*
X75177333Y-76547295D01*
X75177333Y-76547295D02*
X75177333Y-76690152D01*
X75177333Y-76690152D02*
X75129714Y-76785390D01*
X75129714Y-76785390D02*
X75082095Y-76833009D01*
X75082095Y-76833009D02*
X74986857Y-76880628D01*
X74986857Y-76880628D02*
X74605905Y-76880628D01*
X75653524Y-77356819D02*
X75844000Y-77356819D01*
X75844000Y-77356819D02*
X75939238Y-77309200D01*
X75939238Y-77309200D02*
X75986857Y-77261580D01*
X75986857Y-77261580D02*
X76082095Y-77118723D01*
X76082095Y-77118723D02*
X76129714Y-76928247D01*
X76129714Y-76928247D02*
X76129714Y-76547295D01*
X76129714Y-76547295D02*
X76082095Y-76452057D01*
X76082095Y-76452057D02*
X76034476Y-76404438D01*
X76034476Y-76404438D02*
X75939238Y-76356819D01*
X75939238Y-76356819D02*
X75748762Y-76356819D01*
X75748762Y-76356819D02*
X75653524Y-76404438D01*
X75653524Y-76404438D02*
X75605905Y-76452057D01*
X75605905Y-76452057D02*
X75558286Y-76547295D01*
X75558286Y-76547295D02*
X75558286Y-76785390D01*
X75558286Y-76785390D02*
X75605905Y-76880628D01*
X75605905Y-76880628D02*
X75653524Y-76928247D01*
X75653524Y-76928247D02*
X75748762Y-76975866D01*
X75748762Y-76975866D02*
X75939238Y-76975866D01*
X75939238Y-76975866D02*
X76034476Y-76928247D01*
X76034476Y-76928247D02*
X76082095Y-76880628D01*
X76082095Y-76880628D02*
X76129714Y-76785390D01*
X25011142Y-69796819D02*
X24677809Y-69320628D01*
X24439714Y-69796819D02*
X24439714Y-68796819D01*
X24439714Y-68796819D02*
X24820666Y-68796819D01*
X24820666Y-68796819D02*
X24915904Y-68844438D01*
X24915904Y-68844438D02*
X24963523Y-68892057D01*
X24963523Y-68892057D02*
X25011142Y-68987295D01*
X25011142Y-68987295D02*
X25011142Y-69130152D01*
X25011142Y-69130152D02*
X24963523Y-69225390D01*
X24963523Y-69225390D02*
X24915904Y-69273009D01*
X24915904Y-69273009D02*
X24820666Y-69320628D01*
X24820666Y-69320628D02*
X24439714Y-69320628D01*
X25963523Y-69796819D02*
X25392095Y-69796819D01*
X25677809Y-69796819D02*
X25677809Y-68796819D01*
X25677809Y-68796819D02*
X25582571Y-68939676D01*
X25582571Y-68939676D02*
X25487333Y-69034914D01*
X25487333Y-69034914D02*
X25392095Y-69082533D01*
X26820666Y-68796819D02*
X26630190Y-68796819D01*
X26630190Y-68796819D02*
X26534952Y-68844438D01*
X26534952Y-68844438D02*
X26487333Y-68892057D01*
X26487333Y-68892057D02*
X26392095Y-69034914D01*
X26392095Y-69034914D02*
X26344476Y-69225390D01*
X26344476Y-69225390D02*
X26344476Y-69606342D01*
X26344476Y-69606342D02*
X26392095Y-69701580D01*
X26392095Y-69701580D02*
X26439714Y-69749200D01*
X26439714Y-69749200D02*
X26534952Y-69796819D01*
X26534952Y-69796819D02*
X26725428Y-69796819D01*
X26725428Y-69796819D02*
X26820666Y-69749200D01*
X26820666Y-69749200D02*
X26868285Y-69701580D01*
X26868285Y-69701580D02*
X26915904Y-69606342D01*
X26915904Y-69606342D02*
X26915904Y-69368247D01*
X26915904Y-69368247D02*
X26868285Y-69273009D01*
X26868285Y-69273009D02*
X26820666Y-69225390D01*
X26820666Y-69225390D02*
X26725428Y-69177771D01*
X26725428Y-69177771D02*
X26534952Y-69177771D01*
X26534952Y-69177771D02*
X26439714Y-69225390D01*
X26439714Y-69225390D02*
X26392095Y-69273009D01*
X26392095Y-69273009D02*
X26344476Y-69368247D01*
X43541845Y-81369819D02*
X43541845Y-82179342D01*
X43541845Y-82179342D02*
X43589464Y-82274580D01*
X43589464Y-82274580D02*
X43637083Y-82322200D01*
X43637083Y-82322200D02*
X43732321Y-82369819D01*
X43732321Y-82369819D02*
X43922797Y-82369819D01*
X43922797Y-82369819D02*
X44018035Y-82322200D01*
X44018035Y-82322200D02*
X44065654Y-82274580D01*
X44065654Y-82274580D02*
X44113273Y-82179342D01*
X44113273Y-82179342D02*
X44113273Y-81369819D01*
X44637083Y-82369819D02*
X44827559Y-82369819D01*
X44827559Y-82369819D02*
X44922797Y-82322200D01*
X44922797Y-82322200D02*
X44970416Y-82274580D01*
X44970416Y-82274580D02*
X45065654Y-82131723D01*
X45065654Y-82131723D02*
X45113273Y-81941247D01*
X45113273Y-81941247D02*
X45113273Y-81560295D01*
X45113273Y-81560295D02*
X45065654Y-81465057D01*
X45065654Y-81465057D02*
X45018035Y-81417438D01*
X45018035Y-81417438D02*
X44922797Y-81369819D01*
X44922797Y-81369819D02*
X44732321Y-81369819D01*
X44732321Y-81369819D02*
X44637083Y-81417438D01*
X44637083Y-81417438D02*
X44589464Y-81465057D01*
X44589464Y-81465057D02*
X44541845Y-81560295D01*
X44541845Y-81560295D02*
X44541845Y-81798390D01*
X44541845Y-81798390D02*
X44589464Y-81893628D01*
X44589464Y-81893628D02*
X44637083Y-81941247D01*
X44637083Y-81941247D02*
X44732321Y-81988866D01*
X44732321Y-81988866D02*
X44922797Y-81988866D01*
X44922797Y-81988866D02*
X45018035Y-81941247D01*
X45018035Y-81941247D02*
X45065654Y-81893628D01*
X45065654Y-81893628D02*
X45113273Y-81798390D01*
X95356819Y-71032666D02*
X94880628Y-71365999D01*
X95356819Y-71604094D02*
X94356819Y-71604094D01*
X94356819Y-71604094D02*
X94356819Y-71223142D01*
X94356819Y-71223142D02*
X94404438Y-71127904D01*
X94404438Y-71127904D02*
X94452057Y-71080285D01*
X94452057Y-71080285D02*
X94547295Y-71032666D01*
X94547295Y-71032666D02*
X94690152Y-71032666D01*
X94690152Y-71032666D02*
X94785390Y-71080285D01*
X94785390Y-71080285D02*
X94833009Y-71127904D01*
X94833009Y-71127904D02*
X94880628Y-71223142D01*
X94880628Y-71223142D02*
X94880628Y-71604094D01*
X94356819Y-70175523D02*
X94356819Y-70365999D01*
X94356819Y-70365999D02*
X94404438Y-70461237D01*
X94404438Y-70461237D02*
X94452057Y-70508856D01*
X94452057Y-70508856D02*
X94594914Y-70604094D01*
X94594914Y-70604094D02*
X94785390Y-70651713D01*
X94785390Y-70651713D02*
X95166342Y-70651713D01*
X95166342Y-70651713D02*
X95261580Y-70604094D01*
X95261580Y-70604094D02*
X95309200Y-70556475D01*
X95309200Y-70556475D02*
X95356819Y-70461237D01*
X95356819Y-70461237D02*
X95356819Y-70270761D01*
X95356819Y-70270761D02*
X95309200Y-70175523D01*
X95309200Y-70175523D02*
X95261580Y-70127904D01*
X95261580Y-70127904D02*
X95166342Y-70080285D01*
X95166342Y-70080285D02*
X94928247Y-70080285D01*
X94928247Y-70080285D02*
X94833009Y-70127904D01*
X94833009Y-70127904D02*
X94785390Y-70175523D01*
X94785390Y-70175523D02*
X94737771Y-70270761D01*
X94737771Y-70270761D02*
X94737771Y-70461237D01*
X94737771Y-70461237D02*
X94785390Y-70556475D01*
X94785390Y-70556475D02*
X94833009Y-70604094D01*
X94833009Y-70604094D02*
X94928247Y-70651713D01*
X107675819Y-65825666D02*
X107199628Y-66158999D01*
X107675819Y-66397094D02*
X106675819Y-66397094D01*
X106675819Y-66397094D02*
X106675819Y-66016142D01*
X106675819Y-66016142D02*
X106723438Y-65920904D01*
X106723438Y-65920904D02*
X106771057Y-65873285D01*
X106771057Y-65873285D02*
X106866295Y-65825666D01*
X106866295Y-65825666D02*
X107009152Y-65825666D01*
X107009152Y-65825666D02*
X107104390Y-65873285D01*
X107104390Y-65873285D02*
X107152009Y-65920904D01*
X107152009Y-65920904D02*
X107199628Y-66016142D01*
X107199628Y-66016142D02*
X107199628Y-66397094D01*
X106675819Y-65492332D02*
X106675819Y-64873285D01*
X106675819Y-64873285D02*
X107056771Y-65206618D01*
X107056771Y-65206618D02*
X107056771Y-65063761D01*
X107056771Y-65063761D02*
X107104390Y-64968523D01*
X107104390Y-64968523D02*
X107152009Y-64920904D01*
X107152009Y-64920904D02*
X107247247Y-64873285D01*
X107247247Y-64873285D02*
X107485342Y-64873285D01*
X107485342Y-64873285D02*
X107580580Y-64920904D01*
X107580580Y-64920904D02*
X107628200Y-64968523D01*
X107628200Y-64968523D02*
X107675819Y-65063761D01*
X107675819Y-65063761D02*
X107675819Y-65349475D01*
X107675819Y-65349475D02*
X107628200Y-65444713D01*
X107628200Y-65444713D02*
X107580580Y-65492332D01*
X107675819Y-60840857D02*
X107199628Y-61174190D01*
X107675819Y-61412285D02*
X106675819Y-61412285D01*
X106675819Y-61412285D02*
X106675819Y-61031333D01*
X106675819Y-61031333D02*
X106723438Y-60936095D01*
X106723438Y-60936095D02*
X106771057Y-60888476D01*
X106771057Y-60888476D02*
X106866295Y-60840857D01*
X106866295Y-60840857D02*
X107009152Y-60840857D01*
X107009152Y-60840857D02*
X107104390Y-60888476D01*
X107104390Y-60888476D02*
X107152009Y-60936095D01*
X107152009Y-60936095D02*
X107199628Y-61031333D01*
X107199628Y-61031333D02*
X107199628Y-61412285D01*
X107675819Y-59888476D02*
X107675819Y-60459904D01*
X107675819Y-60174190D02*
X106675819Y-60174190D01*
X106675819Y-60174190D02*
X106818676Y-60269428D01*
X106818676Y-60269428D02*
X106913914Y-60364666D01*
X106913914Y-60364666D02*
X106961533Y-60459904D01*
X107675819Y-58936095D02*
X107675819Y-59507523D01*
X107675819Y-59221809D02*
X106675819Y-59221809D01*
X106675819Y-59221809D02*
X106818676Y-59317047D01*
X106818676Y-59317047D02*
X106913914Y-59412285D01*
X106913914Y-59412285D02*
X106961533Y-59507523D01*
X106532819Y-45346857D02*
X106056628Y-45680190D01*
X106532819Y-45918285D02*
X105532819Y-45918285D01*
X105532819Y-45918285D02*
X105532819Y-45537333D01*
X105532819Y-45537333D02*
X105580438Y-45442095D01*
X105580438Y-45442095D02*
X105628057Y-45394476D01*
X105628057Y-45394476D02*
X105723295Y-45346857D01*
X105723295Y-45346857D02*
X105866152Y-45346857D01*
X105866152Y-45346857D02*
X105961390Y-45394476D01*
X105961390Y-45394476D02*
X106009009Y-45442095D01*
X106009009Y-45442095D02*
X106056628Y-45537333D01*
X106056628Y-45537333D02*
X106056628Y-45918285D01*
X106532819Y-44394476D02*
X106532819Y-44965904D01*
X106532819Y-44680190D02*
X105532819Y-44680190D01*
X105532819Y-44680190D02*
X105675676Y-44775428D01*
X105675676Y-44775428D02*
X105770914Y-44870666D01*
X105770914Y-44870666D02*
X105818533Y-44965904D01*
X105532819Y-43489714D02*
X105532819Y-43965904D01*
X105532819Y-43965904D02*
X106009009Y-44013523D01*
X106009009Y-44013523D02*
X105961390Y-43965904D01*
X105961390Y-43965904D02*
X105913771Y-43870666D01*
X105913771Y-43870666D02*
X105913771Y-43632571D01*
X105913771Y-43632571D02*
X105961390Y-43537333D01*
X105961390Y-43537333D02*
X106009009Y-43489714D01*
X106009009Y-43489714D02*
X106104247Y-43442095D01*
X106104247Y-43442095D02*
X106342342Y-43442095D01*
X106342342Y-43442095D02*
X106437580Y-43489714D01*
X106437580Y-43489714D02*
X106485200Y-43537333D01*
X106485200Y-43537333D02*
X106532819Y-43632571D01*
X106532819Y-43632571D02*
X106532819Y-43870666D01*
X106532819Y-43870666D02*
X106485200Y-43965904D01*
X106485200Y-43965904D02*
X106437580Y-44013523D01*
X29934819Y-76787333D02*
X30649104Y-76787333D01*
X30649104Y-76787333D02*
X30791961Y-76834952D01*
X30791961Y-76834952D02*
X30887200Y-76930190D01*
X30887200Y-76930190D02*
X30934819Y-77073047D01*
X30934819Y-77073047D02*
X30934819Y-77168285D01*
X29934819Y-75834952D02*
X29934819Y-76311142D01*
X29934819Y-76311142D02*
X30411009Y-76358761D01*
X30411009Y-76358761D02*
X30363390Y-76311142D01*
X30363390Y-76311142D02*
X30315771Y-76215904D01*
X30315771Y-76215904D02*
X30315771Y-75977809D01*
X30315771Y-75977809D02*
X30363390Y-75882571D01*
X30363390Y-75882571D02*
X30411009Y-75834952D01*
X30411009Y-75834952D02*
X30506247Y-75787333D01*
X30506247Y-75787333D02*
X30744342Y-75787333D01*
X30744342Y-75787333D02*
X30839580Y-75834952D01*
X30839580Y-75834952D02*
X30887200Y-75882571D01*
X30887200Y-75882571D02*
X30934819Y-75977809D01*
X30934819Y-75977809D02*
X30934819Y-76215904D01*
X30934819Y-76215904D02*
X30887200Y-76311142D01*
X30887200Y-76311142D02*
X30839580Y-76358761D01*
X98958142Y-51667580D02*
X98910523Y-51715200D01*
X98910523Y-51715200D02*
X98767666Y-51762819D01*
X98767666Y-51762819D02*
X98672428Y-51762819D01*
X98672428Y-51762819D02*
X98529571Y-51715200D01*
X98529571Y-51715200D02*
X98434333Y-51619961D01*
X98434333Y-51619961D02*
X98386714Y-51524723D01*
X98386714Y-51524723D02*
X98339095Y-51334247D01*
X98339095Y-51334247D02*
X98339095Y-51191390D01*
X98339095Y-51191390D02*
X98386714Y-51000914D01*
X98386714Y-51000914D02*
X98434333Y-50905676D01*
X98434333Y-50905676D02*
X98529571Y-50810438D01*
X98529571Y-50810438D02*
X98672428Y-50762819D01*
X98672428Y-50762819D02*
X98767666Y-50762819D01*
X98767666Y-50762819D02*
X98910523Y-50810438D01*
X98910523Y-50810438D02*
X98958142Y-50858057D01*
X99339095Y-50858057D02*
X99386714Y-50810438D01*
X99386714Y-50810438D02*
X99481952Y-50762819D01*
X99481952Y-50762819D02*
X99720047Y-50762819D01*
X99720047Y-50762819D02*
X99815285Y-50810438D01*
X99815285Y-50810438D02*
X99862904Y-50858057D01*
X99862904Y-50858057D02*
X99910523Y-50953295D01*
X99910523Y-50953295D02*
X99910523Y-51048533D01*
X99910523Y-51048533D02*
X99862904Y-51191390D01*
X99862904Y-51191390D02*
X99291476Y-51762819D01*
X99291476Y-51762819D02*
X99910523Y-51762819D01*
X100862904Y-51762819D02*
X100291476Y-51762819D01*
X100577190Y-51762819D02*
X100577190Y-50762819D01*
X100577190Y-50762819D02*
X100481952Y-50905676D01*
X100481952Y-50905676D02*
X100386714Y-51000914D01*
X100386714Y-51000914D02*
X100291476Y-51048533D01*
X67143142Y-67382819D02*
X66809809Y-66906628D01*
X66571714Y-67382819D02*
X66571714Y-66382819D01*
X66571714Y-66382819D02*
X66952666Y-66382819D01*
X66952666Y-66382819D02*
X67047904Y-66430438D01*
X67047904Y-66430438D02*
X67095523Y-66478057D01*
X67095523Y-66478057D02*
X67143142Y-66573295D01*
X67143142Y-66573295D02*
X67143142Y-66716152D01*
X67143142Y-66716152D02*
X67095523Y-66811390D01*
X67095523Y-66811390D02*
X67047904Y-66859009D01*
X67047904Y-66859009D02*
X66952666Y-66906628D01*
X66952666Y-66906628D02*
X66571714Y-66906628D01*
X68095523Y-67382819D02*
X67524095Y-67382819D01*
X67809809Y-67382819D02*
X67809809Y-66382819D01*
X67809809Y-66382819D02*
X67714571Y-66525676D01*
X67714571Y-66525676D02*
X67619333Y-66620914D01*
X67619333Y-66620914D02*
X67524095Y-66668533D01*
X68428857Y-66382819D02*
X69095523Y-66382819D01*
X69095523Y-66382819D02*
X68666952Y-67382819D01*
X70797142Y-69857580D02*
X70749523Y-69905200D01*
X70749523Y-69905200D02*
X70606666Y-69952819D01*
X70606666Y-69952819D02*
X70511428Y-69952819D01*
X70511428Y-69952819D02*
X70368571Y-69905200D01*
X70368571Y-69905200D02*
X70273333Y-69809961D01*
X70273333Y-69809961D02*
X70225714Y-69714723D01*
X70225714Y-69714723D02*
X70178095Y-69524247D01*
X70178095Y-69524247D02*
X70178095Y-69381390D01*
X70178095Y-69381390D02*
X70225714Y-69190914D01*
X70225714Y-69190914D02*
X70273333Y-69095676D01*
X70273333Y-69095676D02*
X70368571Y-69000438D01*
X70368571Y-69000438D02*
X70511428Y-68952819D01*
X70511428Y-68952819D02*
X70606666Y-68952819D01*
X70606666Y-68952819D02*
X70749523Y-69000438D01*
X70749523Y-69000438D02*
X70797142Y-69048057D01*
X71178095Y-69048057D02*
X71225714Y-69000438D01*
X71225714Y-69000438D02*
X71320952Y-68952819D01*
X71320952Y-68952819D02*
X71559047Y-68952819D01*
X71559047Y-68952819D02*
X71654285Y-69000438D01*
X71654285Y-69000438D02*
X71701904Y-69048057D01*
X71701904Y-69048057D02*
X71749523Y-69143295D01*
X71749523Y-69143295D02*
X71749523Y-69238533D01*
X71749523Y-69238533D02*
X71701904Y-69381390D01*
X71701904Y-69381390D02*
X71130476Y-69952819D01*
X71130476Y-69952819D02*
X71749523Y-69952819D01*
X72225714Y-69952819D02*
X72416190Y-69952819D01*
X72416190Y-69952819D02*
X72511428Y-69905200D01*
X72511428Y-69905200D02*
X72559047Y-69857580D01*
X72559047Y-69857580D02*
X72654285Y-69714723D01*
X72654285Y-69714723D02*
X72701904Y-69524247D01*
X72701904Y-69524247D02*
X72701904Y-69143295D01*
X72701904Y-69143295D02*
X72654285Y-69048057D01*
X72654285Y-69048057D02*
X72606666Y-69000438D01*
X72606666Y-69000438D02*
X72511428Y-68952819D01*
X72511428Y-68952819D02*
X72320952Y-68952819D01*
X72320952Y-68952819D02*
X72225714Y-69000438D01*
X72225714Y-69000438D02*
X72178095Y-69048057D01*
X72178095Y-69048057D02*
X72130476Y-69143295D01*
X72130476Y-69143295D02*
X72130476Y-69381390D01*
X72130476Y-69381390D02*
X72178095Y-69476628D01*
X72178095Y-69476628D02*
X72225714Y-69524247D01*
X72225714Y-69524247D02*
X72320952Y-69571866D01*
X72320952Y-69571866D02*
X72511428Y-69571866D01*
X72511428Y-69571866D02*
X72606666Y-69524247D01*
X72606666Y-69524247D02*
X72654285Y-69476628D01*
X72654285Y-69476628D02*
X72701904Y-69381390D01*
X38580892Y-82877819D02*
X38247559Y-82401628D01*
X38009464Y-82877819D02*
X38009464Y-81877819D01*
X38009464Y-81877819D02*
X38390416Y-81877819D01*
X38390416Y-81877819D02*
X38485654Y-81925438D01*
X38485654Y-81925438D02*
X38533273Y-81973057D01*
X38533273Y-81973057D02*
X38580892Y-82068295D01*
X38580892Y-82068295D02*
X38580892Y-82211152D01*
X38580892Y-82211152D02*
X38533273Y-82306390D01*
X38533273Y-82306390D02*
X38485654Y-82354009D01*
X38485654Y-82354009D02*
X38390416Y-82401628D01*
X38390416Y-82401628D02*
X38009464Y-82401628D01*
X38961845Y-81973057D02*
X39009464Y-81925438D01*
X39009464Y-81925438D02*
X39104702Y-81877819D01*
X39104702Y-81877819D02*
X39342797Y-81877819D01*
X39342797Y-81877819D02*
X39438035Y-81925438D01*
X39438035Y-81925438D02*
X39485654Y-81973057D01*
X39485654Y-81973057D02*
X39533273Y-82068295D01*
X39533273Y-82068295D02*
X39533273Y-82163533D01*
X39533273Y-82163533D02*
X39485654Y-82306390D01*
X39485654Y-82306390D02*
X38914226Y-82877819D01*
X38914226Y-82877819D02*
X39533273Y-82877819D01*
X39866607Y-81877819D02*
X40485654Y-81877819D01*
X40485654Y-81877819D02*
X40152321Y-82258771D01*
X40152321Y-82258771D02*
X40295178Y-82258771D01*
X40295178Y-82258771D02*
X40390416Y-82306390D01*
X40390416Y-82306390D02*
X40438035Y-82354009D01*
X40438035Y-82354009D02*
X40485654Y-82449247D01*
X40485654Y-82449247D02*
X40485654Y-82687342D01*
X40485654Y-82687342D02*
X40438035Y-82782580D01*
X40438035Y-82782580D02*
X40390416Y-82830200D01*
X40390416Y-82830200D02*
X40295178Y-82877819D01*
X40295178Y-82877819D02*
X40009464Y-82877819D01*
X40009464Y-82877819D02*
X39914226Y-82830200D01*
X39914226Y-82830200D02*
X39866607Y-82782580D01*
X97561142Y-64367580D02*
X97513523Y-64415200D01*
X97513523Y-64415200D02*
X97370666Y-64462819D01*
X97370666Y-64462819D02*
X97275428Y-64462819D01*
X97275428Y-64462819D02*
X97132571Y-64415200D01*
X97132571Y-64415200D02*
X97037333Y-64319961D01*
X97037333Y-64319961D02*
X96989714Y-64224723D01*
X96989714Y-64224723D02*
X96942095Y-64034247D01*
X96942095Y-64034247D02*
X96942095Y-63891390D01*
X96942095Y-63891390D02*
X96989714Y-63700914D01*
X96989714Y-63700914D02*
X97037333Y-63605676D01*
X97037333Y-63605676D02*
X97132571Y-63510438D01*
X97132571Y-63510438D02*
X97275428Y-63462819D01*
X97275428Y-63462819D02*
X97370666Y-63462819D01*
X97370666Y-63462819D02*
X97513523Y-63510438D01*
X97513523Y-63510438D02*
X97561142Y-63558057D01*
X98513523Y-64462819D02*
X97942095Y-64462819D01*
X98227809Y-64462819D02*
X98227809Y-63462819D01*
X98227809Y-63462819D02*
X98132571Y-63605676D01*
X98132571Y-63605676D02*
X98037333Y-63700914D01*
X98037333Y-63700914D02*
X97942095Y-63748533D01*
X98894476Y-63558057D02*
X98942095Y-63510438D01*
X98942095Y-63510438D02*
X99037333Y-63462819D01*
X99037333Y-63462819D02*
X99275428Y-63462819D01*
X99275428Y-63462819D02*
X99370666Y-63510438D01*
X99370666Y-63510438D02*
X99418285Y-63558057D01*
X99418285Y-63558057D02*
X99465904Y-63653295D01*
X99465904Y-63653295D02*
X99465904Y-63748533D01*
X99465904Y-63748533D02*
X99418285Y-63891390D01*
X99418285Y-63891390D02*
X98846857Y-64462819D01*
X98846857Y-64462819D02*
X99465904Y-64462819D01*
X24600819Y-55959333D02*
X25315104Y-55959333D01*
X25315104Y-55959333D02*
X25457961Y-56006952D01*
X25457961Y-56006952D02*
X25553200Y-56102190D01*
X25553200Y-56102190D02*
X25600819Y-56245047D01*
X25600819Y-56245047D02*
X25600819Y-56340285D01*
X24696057Y-55530761D02*
X24648438Y-55483142D01*
X24648438Y-55483142D02*
X24600819Y-55387904D01*
X24600819Y-55387904D02*
X24600819Y-55149809D01*
X24600819Y-55149809D02*
X24648438Y-55054571D01*
X24648438Y-55054571D02*
X24696057Y-55006952D01*
X24696057Y-55006952D02*
X24791295Y-54959333D01*
X24791295Y-54959333D02*
X24886533Y-54959333D01*
X24886533Y-54959333D02*
X25029390Y-55006952D01*
X25029390Y-55006952D02*
X25600819Y-55578380D01*
X25600819Y-55578380D02*
X25600819Y-54959333D01*
X92415819Y-78424666D02*
X92415819Y-78900856D01*
X92415819Y-78900856D02*
X91415819Y-78900856D01*
X92415819Y-77567523D02*
X92415819Y-78138951D01*
X92415819Y-77853237D02*
X91415819Y-77853237D01*
X91415819Y-77853237D02*
X91558676Y-77948475D01*
X91558676Y-77948475D02*
X91653914Y-78043713D01*
X91653914Y-78043713D02*
X91701533Y-78138951D01*
X31110819Y-66166904D02*
X31920342Y-66166904D01*
X31920342Y-66166904D02*
X32015580Y-66119285D01*
X32015580Y-66119285D02*
X32063200Y-66071666D01*
X32063200Y-66071666D02*
X32110819Y-65976428D01*
X32110819Y-65976428D02*
X32110819Y-65785952D01*
X32110819Y-65785952D02*
X32063200Y-65690714D01*
X32063200Y-65690714D02*
X32015580Y-65643095D01*
X32015580Y-65643095D02*
X31920342Y-65595476D01*
X31920342Y-65595476D02*
X31110819Y-65595476D01*
X31444152Y-64690714D02*
X32110819Y-64690714D01*
X31063200Y-64928809D02*
X31777485Y-65166904D01*
X31777485Y-65166904D02*
X31777485Y-64547857D01*
X66305580Y-87576857D02*
X66353200Y-87624476D01*
X66353200Y-87624476D02*
X66400819Y-87767333D01*
X66400819Y-87767333D02*
X66400819Y-87862571D01*
X66400819Y-87862571D02*
X66353200Y-88005428D01*
X66353200Y-88005428D02*
X66257961Y-88100666D01*
X66257961Y-88100666D02*
X66162723Y-88148285D01*
X66162723Y-88148285D02*
X65972247Y-88195904D01*
X65972247Y-88195904D02*
X65829390Y-88195904D01*
X65829390Y-88195904D02*
X65638914Y-88148285D01*
X65638914Y-88148285D02*
X65543676Y-88100666D01*
X65543676Y-88100666D02*
X65448438Y-88005428D01*
X65448438Y-88005428D02*
X65400819Y-87862571D01*
X65400819Y-87862571D02*
X65400819Y-87767333D01*
X65400819Y-87767333D02*
X65448438Y-87624476D01*
X65448438Y-87624476D02*
X65496057Y-87576857D01*
X66400819Y-86624476D02*
X66400819Y-87195904D01*
X66400819Y-86910190D02*
X65400819Y-86910190D01*
X65400819Y-86910190D02*
X65543676Y-87005428D01*
X65543676Y-87005428D02*
X65638914Y-87100666D01*
X65638914Y-87100666D02*
X65686533Y-87195904D01*
X65400819Y-86291142D02*
X65400819Y-85624476D01*
X65400819Y-85624476D02*
X66400819Y-86053047D01*
X71893580Y-85986857D02*
X71941200Y-86034476D01*
X71941200Y-86034476D02*
X71988819Y-86177333D01*
X71988819Y-86177333D02*
X71988819Y-86272571D01*
X71988819Y-86272571D02*
X71941200Y-86415428D01*
X71941200Y-86415428D02*
X71845961Y-86510666D01*
X71845961Y-86510666D02*
X71750723Y-86558285D01*
X71750723Y-86558285D02*
X71560247Y-86605904D01*
X71560247Y-86605904D02*
X71417390Y-86605904D01*
X71417390Y-86605904D02*
X71226914Y-86558285D01*
X71226914Y-86558285D02*
X71131676Y-86510666D01*
X71131676Y-86510666D02*
X71036438Y-86415428D01*
X71036438Y-86415428D02*
X70988819Y-86272571D01*
X70988819Y-86272571D02*
X70988819Y-86177333D01*
X70988819Y-86177333D02*
X71036438Y-86034476D01*
X71036438Y-86034476D02*
X71084057Y-85986857D01*
X71988819Y-85034476D02*
X71988819Y-85605904D01*
X71988819Y-85320190D02*
X70988819Y-85320190D01*
X70988819Y-85320190D02*
X71131676Y-85415428D01*
X71131676Y-85415428D02*
X71226914Y-85510666D01*
X71226914Y-85510666D02*
X71274533Y-85605904D01*
X71988819Y-84082095D02*
X71988819Y-84653523D01*
X71988819Y-84367809D02*
X70988819Y-84367809D01*
X70988819Y-84367809D02*
X71131676Y-84463047D01*
X71131676Y-84463047D02*
X71226914Y-84558285D01*
X71226914Y-84558285D02*
X71274533Y-84653523D01*
X62241580Y-87830857D02*
X62289200Y-87878476D01*
X62289200Y-87878476D02*
X62336819Y-88021333D01*
X62336819Y-88021333D02*
X62336819Y-88116571D01*
X62336819Y-88116571D02*
X62289200Y-88259428D01*
X62289200Y-88259428D02*
X62193961Y-88354666D01*
X62193961Y-88354666D02*
X62098723Y-88402285D01*
X62098723Y-88402285D02*
X61908247Y-88449904D01*
X61908247Y-88449904D02*
X61765390Y-88449904D01*
X61765390Y-88449904D02*
X61574914Y-88402285D01*
X61574914Y-88402285D02*
X61479676Y-88354666D01*
X61479676Y-88354666D02*
X61384438Y-88259428D01*
X61384438Y-88259428D02*
X61336819Y-88116571D01*
X61336819Y-88116571D02*
X61336819Y-88021333D01*
X61336819Y-88021333D02*
X61384438Y-87878476D01*
X61384438Y-87878476D02*
X61432057Y-87830857D01*
X61432057Y-87449904D02*
X61384438Y-87402285D01*
X61384438Y-87402285D02*
X61336819Y-87307047D01*
X61336819Y-87307047D02*
X61336819Y-87068952D01*
X61336819Y-87068952D02*
X61384438Y-86973714D01*
X61384438Y-86973714D02*
X61432057Y-86926095D01*
X61432057Y-86926095D02*
X61527295Y-86878476D01*
X61527295Y-86878476D02*
X61622533Y-86878476D01*
X61622533Y-86878476D02*
X61765390Y-86926095D01*
X61765390Y-86926095D02*
X62336819Y-87497523D01*
X62336819Y-87497523D02*
X62336819Y-86878476D01*
X61336819Y-86259428D02*
X61336819Y-86164190D01*
X61336819Y-86164190D02*
X61384438Y-86068952D01*
X61384438Y-86068952D02*
X61432057Y-86021333D01*
X61432057Y-86021333D02*
X61527295Y-85973714D01*
X61527295Y-85973714D02*
X61717771Y-85926095D01*
X61717771Y-85926095D02*
X61955866Y-85926095D01*
X61955866Y-85926095D02*
X62146342Y-85973714D01*
X62146342Y-85973714D02*
X62241580Y-86021333D01*
X62241580Y-86021333D02*
X62289200Y-86068952D01*
X62289200Y-86068952D02*
X62336819Y-86164190D01*
X62336819Y-86164190D02*
X62336819Y-86259428D01*
X62336819Y-86259428D02*
X62289200Y-86354666D01*
X62289200Y-86354666D02*
X62241580Y-86402285D01*
X62241580Y-86402285D02*
X62146342Y-86449904D01*
X62146342Y-86449904D02*
X61955866Y-86497523D01*
X61955866Y-86497523D02*
X61717771Y-86497523D01*
X61717771Y-86497523D02*
X61527295Y-86449904D01*
X61527295Y-86449904D02*
X61432057Y-86402285D01*
X61432057Y-86402285D02*
X61384438Y-86354666D01*
X61384438Y-86354666D02*
X61336819Y-86259428D01*
X103124095Y-36014819D02*
X103124095Y-35014819D01*
X103124095Y-35491009D02*
X103695523Y-35491009D01*
X103695523Y-36014819D02*
X103695523Y-35014819D01*
X104124095Y-35110057D02*
X104171714Y-35062438D01*
X104171714Y-35062438D02*
X104266952Y-35014819D01*
X104266952Y-35014819D02*
X104505047Y-35014819D01*
X104505047Y-35014819D02*
X104600285Y-35062438D01*
X104600285Y-35062438D02*
X104647904Y-35110057D01*
X104647904Y-35110057D02*
X104695523Y-35205295D01*
X104695523Y-35205295D02*
X104695523Y-35300533D01*
X104695523Y-35300533D02*
X104647904Y-35443390D01*
X104647904Y-35443390D02*
X104076476Y-36014819D01*
X104076476Y-36014819D02*
X104695523Y-36014819D01*
X96880819Y-65698666D02*
X96404628Y-66031999D01*
X96880819Y-66270094D02*
X95880819Y-66270094D01*
X95880819Y-66270094D02*
X95880819Y-65889142D01*
X95880819Y-65889142D02*
X95928438Y-65793904D01*
X95928438Y-65793904D02*
X95976057Y-65746285D01*
X95976057Y-65746285D02*
X96071295Y-65698666D01*
X96071295Y-65698666D02*
X96214152Y-65698666D01*
X96214152Y-65698666D02*
X96309390Y-65746285D01*
X96309390Y-65746285D02*
X96357009Y-65793904D01*
X96357009Y-65793904D02*
X96404628Y-65889142D01*
X96404628Y-65889142D02*
X96404628Y-66270094D01*
X96880819Y-64746285D02*
X96880819Y-65317713D01*
X96880819Y-65031999D02*
X95880819Y-65031999D01*
X95880819Y-65031999D02*
X96023676Y-65127237D01*
X96023676Y-65127237D02*
X96118914Y-65222475D01*
X96118914Y-65222475D02*
X96166533Y-65317713D01*
X88908819Y-66801904D02*
X89718342Y-66801904D01*
X89718342Y-66801904D02*
X89813580Y-66754285D01*
X89813580Y-66754285D02*
X89861200Y-66706666D01*
X89861200Y-66706666D02*
X89908819Y-66611428D01*
X89908819Y-66611428D02*
X89908819Y-66420952D01*
X89908819Y-66420952D02*
X89861200Y-66325714D01*
X89861200Y-66325714D02*
X89813580Y-66278095D01*
X89813580Y-66278095D02*
X89718342Y-66230476D01*
X89718342Y-66230476D02*
X88908819Y-66230476D01*
X89908819Y-65230476D02*
X89908819Y-65801904D01*
X89908819Y-65516190D02*
X88908819Y-65516190D01*
X88908819Y-65516190D02*
X89051676Y-65611428D01*
X89051676Y-65611428D02*
X89146914Y-65706666D01*
X89146914Y-65706666D02*
X89194533Y-65801904D01*
X38215845Y-78397819D02*
X38787273Y-78397819D01*
X38501559Y-79397819D02*
X38501559Y-78397819D01*
X39120607Y-79397819D02*
X39120607Y-78397819D01*
X39120607Y-78397819D02*
X39501559Y-78397819D01*
X39501559Y-78397819D02*
X39596797Y-78445438D01*
X39596797Y-78445438D02*
X39644416Y-78493057D01*
X39644416Y-78493057D02*
X39692035Y-78588295D01*
X39692035Y-78588295D02*
X39692035Y-78731152D01*
X39692035Y-78731152D02*
X39644416Y-78826390D01*
X39644416Y-78826390D02*
X39596797Y-78874009D01*
X39596797Y-78874009D02*
X39501559Y-78921628D01*
X39501559Y-78921628D02*
X39120607Y-78921628D01*
X40072988Y-78493057D02*
X40120607Y-78445438D01*
X40120607Y-78445438D02*
X40215845Y-78397819D01*
X40215845Y-78397819D02*
X40453940Y-78397819D01*
X40453940Y-78397819D02*
X40549178Y-78445438D01*
X40549178Y-78445438D02*
X40596797Y-78493057D01*
X40596797Y-78493057D02*
X40644416Y-78588295D01*
X40644416Y-78588295D02*
X40644416Y-78683533D01*
X40644416Y-78683533D02*
X40596797Y-78826390D01*
X40596797Y-78826390D02*
X40025369Y-79397819D01*
X40025369Y-79397819D02*
X40644416Y-79397819D01*
X54335819Y-80629357D02*
X53859628Y-80962690D01*
X54335819Y-81200785D02*
X53335819Y-81200785D01*
X53335819Y-81200785D02*
X53335819Y-80819833D01*
X53335819Y-80819833D02*
X53383438Y-80724595D01*
X53383438Y-80724595D02*
X53431057Y-80676976D01*
X53431057Y-80676976D02*
X53526295Y-80629357D01*
X53526295Y-80629357D02*
X53669152Y-80629357D01*
X53669152Y-80629357D02*
X53764390Y-80676976D01*
X53764390Y-80676976D02*
X53812009Y-80724595D01*
X53812009Y-80724595D02*
X53859628Y-80819833D01*
X53859628Y-80819833D02*
X53859628Y-81200785D01*
X54335819Y-79676976D02*
X54335819Y-80248404D01*
X54335819Y-79962690D02*
X53335819Y-79962690D01*
X53335819Y-79962690D02*
X53478676Y-80057928D01*
X53478676Y-80057928D02*
X53573914Y-80153166D01*
X53573914Y-80153166D02*
X53621533Y-80248404D01*
X53669152Y-78819833D02*
X54335819Y-78819833D01*
X53288200Y-79057928D02*
X54002485Y-79296023D01*
X54002485Y-79296023D02*
X54002485Y-78676976D01*
X88163142Y-64113580D02*
X88115523Y-64161200D01*
X88115523Y-64161200D02*
X87972666Y-64208819D01*
X87972666Y-64208819D02*
X87877428Y-64208819D01*
X87877428Y-64208819D02*
X87734571Y-64161200D01*
X87734571Y-64161200D02*
X87639333Y-64065961D01*
X87639333Y-64065961D02*
X87591714Y-63970723D01*
X87591714Y-63970723D02*
X87544095Y-63780247D01*
X87544095Y-63780247D02*
X87544095Y-63637390D01*
X87544095Y-63637390D02*
X87591714Y-63446914D01*
X87591714Y-63446914D02*
X87639333Y-63351676D01*
X87639333Y-63351676D02*
X87734571Y-63256438D01*
X87734571Y-63256438D02*
X87877428Y-63208819D01*
X87877428Y-63208819D02*
X87972666Y-63208819D01*
X87972666Y-63208819D02*
X88115523Y-63256438D01*
X88115523Y-63256438D02*
X88163142Y-63304057D01*
X89115523Y-64208819D02*
X88544095Y-64208819D01*
X88829809Y-64208819D02*
X88829809Y-63208819D01*
X88829809Y-63208819D02*
X88734571Y-63351676D01*
X88734571Y-63351676D02*
X88639333Y-63446914D01*
X88639333Y-63446914D02*
X88544095Y-63494533D01*
X89734571Y-63208819D02*
X89829809Y-63208819D01*
X89829809Y-63208819D02*
X89925047Y-63256438D01*
X89925047Y-63256438D02*
X89972666Y-63304057D01*
X89972666Y-63304057D02*
X90020285Y-63399295D01*
X90020285Y-63399295D02*
X90067904Y-63589771D01*
X90067904Y-63589771D02*
X90067904Y-63827866D01*
X90067904Y-63827866D02*
X90020285Y-64018342D01*
X90020285Y-64018342D02*
X89972666Y-64113580D01*
X89972666Y-64113580D02*
X89925047Y-64161200D01*
X89925047Y-64161200D02*
X89829809Y-64208819D01*
X89829809Y-64208819D02*
X89734571Y-64208819D01*
X89734571Y-64208819D02*
X89639333Y-64161200D01*
X89639333Y-64161200D02*
X89591714Y-64113580D01*
X89591714Y-64113580D02*
X89544095Y-64018342D01*
X89544095Y-64018342D02*
X89496476Y-63827866D01*
X89496476Y-63827866D02*
X89496476Y-63589771D01*
X89496476Y-63589771D02*
X89544095Y-63399295D01*
X89544095Y-63399295D02*
X89591714Y-63304057D01*
X89591714Y-63304057D02*
X89639333Y-63256438D01*
X89639333Y-63256438D02*
X89734571Y-63208819D01*
X75692095Y-67018819D02*
X75692095Y-67828342D01*
X75692095Y-67828342D02*
X75739714Y-67923580D01*
X75739714Y-67923580D02*
X75787333Y-67971200D01*
X75787333Y-67971200D02*
X75882571Y-68018819D01*
X75882571Y-68018819D02*
X76073047Y-68018819D01*
X76073047Y-68018819D02*
X76168285Y-67971200D01*
X76168285Y-67971200D02*
X76215904Y-67923580D01*
X76215904Y-67923580D02*
X76263523Y-67828342D01*
X76263523Y-67828342D02*
X76263523Y-67018819D01*
X76644476Y-67018819D02*
X77311142Y-67018819D01*
X77311142Y-67018819D02*
X76882571Y-68018819D01*
X103879333Y-75035580D02*
X103831714Y-75083200D01*
X103831714Y-75083200D02*
X103688857Y-75130819D01*
X103688857Y-75130819D02*
X103593619Y-75130819D01*
X103593619Y-75130819D02*
X103450762Y-75083200D01*
X103450762Y-75083200D02*
X103355524Y-74987961D01*
X103355524Y-74987961D02*
X103307905Y-74892723D01*
X103307905Y-74892723D02*
X103260286Y-74702247D01*
X103260286Y-74702247D02*
X103260286Y-74559390D01*
X103260286Y-74559390D02*
X103307905Y-74368914D01*
X103307905Y-74368914D02*
X103355524Y-74273676D01*
X103355524Y-74273676D02*
X103450762Y-74178438D01*
X103450762Y-74178438D02*
X103593619Y-74130819D01*
X103593619Y-74130819D02*
X103688857Y-74130819D01*
X103688857Y-74130819D02*
X103831714Y-74178438D01*
X103831714Y-74178438D02*
X103879333Y-74226057D01*
X104212667Y-74130819D02*
X104831714Y-74130819D01*
X104831714Y-74130819D02*
X104498381Y-74511771D01*
X104498381Y-74511771D02*
X104641238Y-74511771D01*
X104641238Y-74511771D02*
X104736476Y-74559390D01*
X104736476Y-74559390D02*
X104784095Y-74607009D01*
X104784095Y-74607009D02*
X104831714Y-74702247D01*
X104831714Y-74702247D02*
X104831714Y-74940342D01*
X104831714Y-74940342D02*
X104784095Y-75035580D01*
X104784095Y-75035580D02*
X104736476Y-75083200D01*
X104736476Y-75083200D02*
X104641238Y-75130819D01*
X104641238Y-75130819D02*
X104355524Y-75130819D01*
X104355524Y-75130819D02*
X104260286Y-75083200D01*
X104260286Y-75083200D02*
X104212667Y-75035580D01*
X49489330Y-78747857D02*
X49536950Y-78795476D01*
X49536950Y-78795476D02*
X49584569Y-78938333D01*
X49584569Y-78938333D02*
X49584569Y-79033571D01*
X49584569Y-79033571D02*
X49536950Y-79176428D01*
X49536950Y-79176428D02*
X49441711Y-79271666D01*
X49441711Y-79271666D02*
X49346473Y-79319285D01*
X49346473Y-79319285D02*
X49155997Y-79366904D01*
X49155997Y-79366904D02*
X49013140Y-79366904D01*
X49013140Y-79366904D02*
X48822664Y-79319285D01*
X48822664Y-79319285D02*
X48727426Y-79271666D01*
X48727426Y-79271666D02*
X48632188Y-79176428D01*
X48632188Y-79176428D02*
X48584569Y-79033571D01*
X48584569Y-79033571D02*
X48584569Y-78938333D01*
X48584569Y-78938333D02*
X48632188Y-78795476D01*
X48632188Y-78795476D02*
X48679807Y-78747857D01*
X48584569Y-78414523D02*
X48584569Y-77795476D01*
X48584569Y-77795476D02*
X48965521Y-78128809D01*
X48965521Y-78128809D02*
X48965521Y-77985952D01*
X48965521Y-77985952D02*
X49013140Y-77890714D01*
X49013140Y-77890714D02*
X49060759Y-77843095D01*
X49060759Y-77843095D02*
X49155997Y-77795476D01*
X49155997Y-77795476D02*
X49394092Y-77795476D01*
X49394092Y-77795476D02*
X49489330Y-77843095D01*
X49489330Y-77843095D02*
X49536950Y-77890714D01*
X49536950Y-77890714D02*
X49584569Y-77985952D01*
X49584569Y-77985952D02*
X49584569Y-78271666D01*
X49584569Y-78271666D02*
X49536950Y-78366904D01*
X49536950Y-78366904D02*
X49489330Y-78414523D01*
X48679807Y-77414523D02*
X48632188Y-77366904D01*
X48632188Y-77366904D02*
X48584569Y-77271666D01*
X48584569Y-77271666D02*
X48584569Y-77033571D01*
X48584569Y-77033571D02*
X48632188Y-76938333D01*
X48632188Y-76938333D02*
X48679807Y-76890714D01*
X48679807Y-76890714D02*
X48775045Y-76843095D01*
X48775045Y-76843095D02*
X48870283Y-76843095D01*
X48870283Y-76843095D02*
X49013140Y-76890714D01*
X49013140Y-76890714D02*
X49584569Y-77462142D01*
X49584569Y-77462142D02*
X49584569Y-76843095D01*
X75431333Y-88211580D02*
X75383714Y-88259200D01*
X75383714Y-88259200D02*
X75240857Y-88306819D01*
X75240857Y-88306819D02*
X75145619Y-88306819D01*
X75145619Y-88306819D02*
X75002762Y-88259200D01*
X75002762Y-88259200D02*
X74907524Y-88163961D01*
X74907524Y-88163961D02*
X74859905Y-88068723D01*
X74859905Y-88068723D02*
X74812286Y-87878247D01*
X74812286Y-87878247D02*
X74812286Y-87735390D01*
X74812286Y-87735390D02*
X74859905Y-87544914D01*
X74859905Y-87544914D02*
X74907524Y-87449676D01*
X74907524Y-87449676D02*
X75002762Y-87354438D01*
X75002762Y-87354438D02*
X75145619Y-87306819D01*
X75145619Y-87306819D02*
X75240857Y-87306819D01*
X75240857Y-87306819D02*
X75383714Y-87354438D01*
X75383714Y-87354438D02*
X75431333Y-87402057D01*
X76002762Y-87735390D02*
X75907524Y-87687771D01*
X75907524Y-87687771D02*
X75859905Y-87640152D01*
X75859905Y-87640152D02*
X75812286Y-87544914D01*
X75812286Y-87544914D02*
X75812286Y-87497295D01*
X75812286Y-87497295D02*
X75859905Y-87402057D01*
X75859905Y-87402057D02*
X75907524Y-87354438D01*
X75907524Y-87354438D02*
X76002762Y-87306819D01*
X76002762Y-87306819D02*
X76193238Y-87306819D01*
X76193238Y-87306819D02*
X76288476Y-87354438D01*
X76288476Y-87354438D02*
X76336095Y-87402057D01*
X76336095Y-87402057D02*
X76383714Y-87497295D01*
X76383714Y-87497295D02*
X76383714Y-87544914D01*
X76383714Y-87544914D02*
X76336095Y-87640152D01*
X76336095Y-87640152D02*
X76288476Y-87687771D01*
X76288476Y-87687771D02*
X76193238Y-87735390D01*
X76193238Y-87735390D02*
X76002762Y-87735390D01*
X76002762Y-87735390D02*
X75907524Y-87783009D01*
X75907524Y-87783009D02*
X75859905Y-87830628D01*
X75859905Y-87830628D02*
X75812286Y-87925866D01*
X75812286Y-87925866D02*
X75812286Y-88116342D01*
X75812286Y-88116342D02*
X75859905Y-88211580D01*
X75859905Y-88211580D02*
X75907524Y-88259200D01*
X75907524Y-88259200D02*
X76002762Y-88306819D01*
X76002762Y-88306819D02*
X76193238Y-88306819D01*
X76193238Y-88306819D02*
X76288476Y-88259200D01*
X76288476Y-88259200D02*
X76336095Y-88211580D01*
X76336095Y-88211580D02*
X76383714Y-88116342D01*
X76383714Y-88116342D02*
X76383714Y-87925866D01*
X76383714Y-87925866D02*
X76336095Y-87830628D01*
X76336095Y-87830628D02*
X76288476Y-87783009D01*
X76288476Y-87783009D02*
X76193238Y-87735390D01*
X61225580Y-35821857D02*
X61273200Y-35869476D01*
X61273200Y-35869476D02*
X61320819Y-36012333D01*
X61320819Y-36012333D02*
X61320819Y-36107571D01*
X61320819Y-36107571D02*
X61273200Y-36250428D01*
X61273200Y-36250428D02*
X61177961Y-36345666D01*
X61177961Y-36345666D02*
X61082723Y-36393285D01*
X61082723Y-36393285D02*
X60892247Y-36440904D01*
X60892247Y-36440904D02*
X60749390Y-36440904D01*
X60749390Y-36440904D02*
X60558914Y-36393285D01*
X60558914Y-36393285D02*
X60463676Y-36345666D01*
X60463676Y-36345666D02*
X60368438Y-36250428D01*
X60368438Y-36250428D02*
X60320819Y-36107571D01*
X60320819Y-36107571D02*
X60320819Y-36012333D01*
X60320819Y-36012333D02*
X60368438Y-35869476D01*
X60368438Y-35869476D02*
X60416057Y-35821857D01*
X60416057Y-35440904D02*
X60368438Y-35393285D01*
X60368438Y-35393285D02*
X60320819Y-35298047D01*
X60320819Y-35298047D02*
X60320819Y-35059952D01*
X60320819Y-35059952D02*
X60368438Y-34964714D01*
X60368438Y-34964714D02*
X60416057Y-34917095D01*
X60416057Y-34917095D02*
X60511295Y-34869476D01*
X60511295Y-34869476D02*
X60606533Y-34869476D01*
X60606533Y-34869476D02*
X60749390Y-34917095D01*
X60749390Y-34917095D02*
X61320819Y-35488523D01*
X61320819Y-35488523D02*
X61320819Y-34869476D01*
X60654152Y-34012333D02*
X61320819Y-34012333D01*
X60273200Y-34250428D02*
X60987485Y-34488523D01*
X60987485Y-34488523D02*
X60987485Y-33869476D01*
X77335142Y-58115580D02*
X77287523Y-58163200D01*
X77287523Y-58163200D02*
X77144666Y-58210819D01*
X77144666Y-58210819D02*
X77049428Y-58210819D01*
X77049428Y-58210819D02*
X76906571Y-58163200D01*
X76906571Y-58163200D02*
X76811333Y-58067961D01*
X76811333Y-58067961D02*
X76763714Y-57972723D01*
X76763714Y-57972723D02*
X76716095Y-57782247D01*
X76716095Y-57782247D02*
X76716095Y-57639390D01*
X76716095Y-57639390D02*
X76763714Y-57448914D01*
X76763714Y-57448914D02*
X76811333Y-57353676D01*
X76811333Y-57353676D02*
X76906571Y-57258438D01*
X76906571Y-57258438D02*
X77049428Y-57210819D01*
X77049428Y-57210819D02*
X77144666Y-57210819D01*
X77144666Y-57210819D02*
X77287523Y-57258438D01*
X77287523Y-57258438D02*
X77335142Y-57306057D01*
X77668476Y-57210819D02*
X78287523Y-57210819D01*
X78287523Y-57210819D02*
X77954190Y-57591771D01*
X77954190Y-57591771D02*
X78097047Y-57591771D01*
X78097047Y-57591771D02*
X78192285Y-57639390D01*
X78192285Y-57639390D02*
X78239904Y-57687009D01*
X78239904Y-57687009D02*
X78287523Y-57782247D01*
X78287523Y-57782247D02*
X78287523Y-58020342D01*
X78287523Y-58020342D02*
X78239904Y-58115580D01*
X78239904Y-58115580D02*
X78192285Y-58163200D01*
X78192285Y-58163200D02*
X78097047Y-58210819D01*
X78097047Y-58210819D02*
X77811333Y-58210819D01*
X77811333Y-58210819D02*
X77716095Y-58163200D01*
X77716095Y-58163200D02*
X77668476Y-58115580D01*
X78906571Y-57210819D02*
X79001809Y-57210819D01*
X79001809Y-57210819D02*
X79097047Y-57258438D01*
X79097047Y-57258438D02*
X79144666Y-57306057D01*
X79144666Y-57306057D02*
X79192285Y-57401295D01*
X79192285Y-57401295D02*
X79239904Y-57591771D01*
X79239904Y-57591771D02*
X79239904Y-57829866D01*
X79239904Y-57829866D02*
X79192285Y-58020342D01*
X79192285Y-58020342D02*
X79144666Y-58115580D01*
X79144666Y-58115580D02*
X79097047Y-58163200D01*
X79097047Y-58163200D02*
X79001809Y-58210819D01*
X79001809Y-58210819D02*
X78906571Y-58210819D01*
X78906571Y-58210819D02*
X78811333Y-58163200D01*
X78811333Y-58163200D02*
X78763714Y-58115580D01*
X78763714Y-58115580D02*
X78716095Y-58020342D01*
X78716095Y-58020342D02*
X78668476Y-57829866D01*
X78668476Y-57829866D02*
X78668476Y-57591771D01*
X78668476Y-57591771D02*
X78716095Y-57401295D01*
X78716095Y-57401295D02*
X78763714Y-57306057D01*
X78763714Y-57306057D02*
X78811333Y-57258438D01*
X78811333Y-57258438D02*
X78906571Y-57210819D01*
X86244580Y-67730666D02*
X86292200Y-67778285D01*
X86292200Y-67778285D02*
X86339819Y-67921142D01*
X86339819Y-67921142D02*
X86339819Y-68016380D01*
X86339819Y-68016380D02*
X86292200Y-68159237D01*
X86292200Y-68159237D02*
X86196961Y-68254475D01*
X86196961Y-68254475D02*
X86101723Y-68302094D01*
X86101723Y-68302094D02*
X85911247Y-68349713D01*
X85911247Y-68349713D02*
X85768390Y-68349713D01*
X85768390Y-68349713D02*
X85577914Y-68302094D01*
X85577914Y-68302094D02*
X85482676Y-68254475D01*
X85482676Y-68254475D02*
X85387438Y-68159237D01*
X85387438Y-68159237D02*
X85339819Y-68016380D01*
X85339819Y-68016380D02*
X85339819Y-67921142D01*
X85339819Y-67921142D02*
X85387438Y-67778285D01*
X85387438Y-67778285D02*
X85435057Y-67730666D01*
X85339819Y-67397332D02*
X85339819Y-66730666D01*
X85339819Y-66730666D02*
X86339819Y-67159237D01*
X54413819Y-31829333D02*
X55128104Y-31829333D01*
X55128104Y-31829333D02*
X55270961Y-31876952D01*
X55270961Y-31876952D02*
X55366200Y-31972190D01*
X55366200Y-31972190D02*
X55413819Y-32115047D01*
X55413819Y-32115047D02*
X55413819Y-32210285D01*
X54747152Y-30924571D02*
X55413819Y-30924571D01*
X54366200Y-31162666D02*
X55080485Y-31400761D01*
X55080485Y-31400761D02*
X55080485Y-30781714D01*
X75438095Y-93672819D02*
X75438095Y-92672819D01*
X75438095Y-93149009D02*
X76009523Y-93149009D01*
X76009523Y-93672819D02*
X76009523Y-92672819D01*
X76390476Y-92672819D02*
X77009523Y-92672819D01*
X77009523Y-92672819D02*
X76676190Y-93053771D01*
X76676190Y-93053771D02*
X76819047Y-93053771D01*
X76819047Y-93053771D02*
X76914285Y-93101390D01*
X76914285Y-93101390D02*
X76961904Y-93149009D01*
X76961904Y-93149009D02*
X77009523Y-93244247D01*
X77009523Y-93244247D02*
X77009523Y-93482342D01*
X77009523Y-93482342D02*
X76961904Y-93577580D01*
X76961904Y-93577580D02*
X76914285Y-93625200D01*
X76914285Y-93625200D02*
X76819047Y-93672819D01*
X76819047Y-93672819D02*
X76533333Y-93672819D01*
X76533333Y-93672819D02*
X76438095Y-93625200D01*
X76438095Y-93625200D02*
X76390476Y-93577580D01*
X86258142Y-53953580D02*
X86210523Y-54001200D01*
X86210523Y-54001200D02*
X86067666Y-54048819D01*
X86067666Y-54048819D02*
X85972428Y-54048819D01*
X85972428Y-54048819D02*
X85829571Y-54001200D01*
X85829571Y-54001200D02*
X85734333Y-53905961D01*
X85734333Y-53905961D02*
X85686714Y-53810723D01*
X85686714Y-53810723D02*
X85639095Y-53620247D01*
X85639095Y-53620247D02*
X85639095Y-53477390D01*
X85639095Y-53477390D02*
X85686714Y-53286914D01*
X85686714Y-53286914D02*
X85734333Y-53191676D01*
X85734333Y-53191676D02*
X85829571Y-53096438D01*
X85829571Y-53096438D02*
X85972428Y-53048819D01*
X85972428Y-53048819D02*
X86067666Y-53048819D01*
X86067666Y-53048819D02*
X86210523Y-53096438D01*
X86210523Y-53096438D02*
X86258142Y-53144057D01*
X87210523Y-54048819D02*
X86639095Y-54048819D01*
X86924809Y-54048819D02*
X86924809Y-53048819D01*
X86924809Y-53048819D02*
X86829571Y-53191676D01*
X86829571Y-53191676D02*
X86734333Y-53286914D01*
X86734333Y-53286914D02*
X86639095Y-53334533D01*
X87686714Y-54048819D02*
X87877190Y-54048819D01*
X87877190Y-54048819D02*
X87972428Y-54001200D01*
X87972428Y-54001200D02*
X88020047Y-53953580D01*
X88020047Y-53953580D02*
X88115285Y-53810723D01*
X88115285Y-53810723D02*
X88162904Y-53620247D01*
X88162904Y-53620247D02*
X88162904Y-53239295D01*
X88162904Y-53239295D02*
X88115285Y-53144057D01*
X88115285Y-53144057D02*
X88067666Y-53096438D01*
X88067666Y-53096438D02*
X87972428Y-53048819D01*
X87972428Y-53048819D02*
X87781952Y-53048819D01*
X87781952Y-53048819D02*
X87686714Y-53096438D01*
X87686714Y-53096438D02*
X87639095Y-53144057D01*
X87639095Y-53144057D02*
X87591476Y-53239295D01*
X87591476Y-53239295D02*
X87591476Y-53477390D01*
X87591476Y-53477390D02*
X87639095Y-53572628D01*
X87639095Y-53572628D02*
X87686714Y-53620247D01*
X87686714Y-53620247D02*
X87781952Y-53667866D01*
X87781952Y-53667866D02*
X87972428Y-53667866D01*
X87972428Y-53667866D02*
X88067666Y-53620247D01*
X88067666Y-53620247D02*
X88115285Y-53572628D01*
X88115285Y-53572628D02*
X88162904Y-53477390D01*
X98563580Y-70778666D02*
X98611200Y-70826285D01*
X98611200Y-70826285D02*
X98658819Y-70969142D01*
X98658819Y-70969142D02*
X98658819Y-71064380D01*
X98658819Y-71064380D02*
X98611200Y-71207237D01*
X98611200Y-71207237D02*
X98515961Y-71302475D01*
X98515961Y-71302475D02*
X98420723Y-71350094D01*
X98420723Y-71350094D02*
X98230247Y-71397713D01*
X98230247Y-71397713D02*
X98087390Y-71397713D01*
X98087390Y-71397713D02*
X97896914Y-71350094D01*
X97896914Y-71350094D02*
X97801676Y-71302475D01*
X97801676Y-71302475D02*
X97706438Y-71207237D01*
X97706438Y-71207237D02*
X97658819Y-71064380D01*
X97658819Y-71064380D02*
X97658819Y-70969142D01*
X97658819Y-70969142D02*
X97706438Y-70826285D01*
X97706438Y-70826285D02*
X97754057Y-70778666D01*
X98658819Y-70302475D02*
X98658819Y-70111999D01*
X98658819Y-70111999D02*
X98611200Y-70016761D01*
X98611200Y-70016761D02*
X98563580Y-69969142D01*
X98563580Y-69969142D02*
X98420723Y-69873904D01*
X98420723Y-69873904D02*
X98230247Y-69826285D01*
X98230247Y-69826285D02*
X97849295Y-69826285D01*
X97849295Y-69826285D02*
X97754057Y-69873904D01*
X97754057Y-69873904D02*
X97706438Y-69921523D01*
X97706438Y-69921523D02*
X97658819Y-70016761D01*
X97658819Y-70016761D02*
X97658819Y-70207237D01*
X97658819Y-70207237D02*
X97706438Y-70302475D01*
X97706438Y-70302475D02*
X97754057Y-70350094D01*
X97754057Y-70350094D02*
X97849295Y-70397713D01*
X97849295Y-70397713D02*
X98087390Y-70397713D01*
X98087390Y-70397713D02*
X98182628Y-70350094D01*
X98182628Y-70350094D02*
X98230247Y-70302475D01*
X98230247Y-70302475D02*
X98277866Y-70207237D01*
X98277866Y-70207237D02*
X98277866Y-70016761D01*
X98277866Y-70016761D02*
X98230247Y-69921523D01*
X98230247Y-69921523D02*
X98182628Y-69873904D01*
X98182628Y-69873904D02*
X98087390Y-69826285D01*
X39583330Y-94241857D02*
X39630950Y-94289476D01*
X39630950Y-94289476D02*
X39678569Y-94432333D01*
X39678569Y-94432333D02*
X39678569Y-94527571D01*
X39678569Y-94527571D02*
X39630950Y-94670428D01*
X39630950Y-94670428D02*
X39535711Y-94765666D01*
X39535711Y-94765666D02*
X39440473Y-94813285D01*
X39440473Y-94813285D02*
X39249997Y-94860904D01*
X39249997Y-94860904D02*
X39107140Y-94860904D01*
X39107140Y-94860904D02*
X38916664Y-94813285D01*
X38916664Y-94813285D02*
X38821426Y-94765666D01*
X38821426Y-94765666D02*
X38726188Y-94670428D01*
X38726188Y-94670428D02*
X38678569Y-94527571D01*
X38678569Y-94527571D02*
X38678569Y-94432333D01*
X38678569Y-94432333D02*
X38726188Y-94289476D01*
X38726188Y-94289476D02*
X38773807Y-94241857D01*
X38678569Y-93908523D02*
X38678569Y-93289476D01*
X38678569Y-93289476D02*
X39059521Y-93622809D01*
X39059521Y-93622809D02*
X39059521Y-93479952D01*
X39059521Y-93479952D02*
X39107140Y-93384714D01*
X39107140Y-93384714D02*
X39154759Y-93337095D01*
X39154759Y-93337095D02*
X39249997Y-93289476D01*
X39249997Y-93289476D02*
X39488092Y-93289476D01*
X39488092Y-93289476D02*
X39583330Y-93337095D01*
X39583330Y-93337095D02*
X39630950Y-93384714D01*
X39630950Y-93384714D02*
X39678569Y-93479952D01*
X39678569Y-93479952D02*
X39678569Y-93765666D01*
X39678569Y-93765666D02*
X39630950Y-93860904D01*
X39630950Y-93860904D02*
X39583330Y-93908523D01*
X39678569Y-92337095D02*
X39678569Y-92908523D01*
X39678569Y-92622809D02*
X38678569Y-92622809D01*
X38678569Y-92622809D02*
X38821426Y-92718047D01*
X38821426Y-92718047D02*
X38916664Y-92813285D01*
X38916664Y-92813285D02*
X38964283Y-92908523D01*
X97260819Y-60364666D02*
X96784628Y-60697999D01*
X97260819Y-60936094D02*
X96260819Y-60936094D01*
X96260819Y-60936094D02*
X96260819Y-60555142D01*
X96260819Y-60555142D02*
X96308438Y-60459904D01*
X96308438Y-60459904D02*
X96356057Y-60412285D01*
X96356057Y-60412285D02*
X96451295Y-60364666D01*
X96451295Y-60364666D02*
X96594152Y-60364666D01*
X96594152Y-60364666D02*
X96689390Y-60412285D01*
X96689390Y-60412285D02*
X96737009Y-60459904D01*
X96737009Y-60459904D02*
X96784628Y-60555142D01*
X96784628Y-60555142D02*
X96784628Y-60936094D01*
X96260819Y-59459904D02*
X96260819Y-59936094D01*
X96260819Y-59936094D02*
X96737009Y-59983713D01*
X96737009Y-59983713D02*
X96689390Y-59936094D01*
X96689390Y-59936094D02*
X96641771Y-59840856D01*
X96641771Y-59840856D02*
X96641771Y-59602761D01*
X96641771Y-59602761D02*
X96689390Y-59507523D01*
X96689390Y-59507523D02*
X96737009Y-59459904D01*
X96737009Y-59459904D02*
X96832247Y-59412285D01*
X96832247Y-59412285D02*
X97070342Y-59412285D01*
X97070342Y-59412285D02*
X97165580Y-59459904D01*
X97165580Y-59459904D02*
X97213200Y-59507523D01*
X97213200Y-59507523D02*
X97260819Y-59602761D01*
X97260819Y-59602761D02*
X97260819Y-59840856D01*
X97260819Y-59840856D02*
X97213200Y-59936094D01*
X97213200Y-59936094D02*
X97165580Y-59983713D01*
X73450819Y-35186857D02*
X72974628Y-35520190D01*
X73450819Y-35758285D02*
X72450819Y-35758285D01*
X72450819Y-35758285D02*
X72450819Y-35377333D01*
X72450819Y-35377333D02*
X72498438Y-35282095D01*
X72498438Y-35282095D02*
X72546057Y-35234476D01*
X72546057Y-35234476D02*
X72641295Y-35186857D01*
X72641295Y-35186857D02*
X72784152Y-35186857D01*
X72784152Y-35186857D02*
X72879390Y-35234476D01*
X72879390Y-35234476D02*
X72927009Y-35282095D01*
X72927009Y-35282095D02*
X72974628Y-35377333D01*
X72974628Y-35377333D02*
X72974628Y-35758285D01*
X73450819Y-34234476D02*
X73450819Y-34805904D01*
X73450819Y-34520190D02*
X72450819Y-34520190D01*
X72450819Y-34520190D02*
X72593676Y-34615428D01*
X72593676Y-34615428D02*
X72688914Y-34710666D01*
X72688914Y-34710666D02*
X72736533Y-34805904D01*
X73450819Y-33758285D02*
X73450819Y-33567809D01*
X73450819Y-33567809D02*
X73403200Y-33472571D01*
X73403200Y-33472571D02*
X73355580Y-33424952D01*
X73355580Y-33424952D02*
X73212723Y-33329714D01*
X73212723Y-33329714D02*
X73022247Y-33282095D01*
X73022247Y-33282095D02*
X72641295Y-33282095D01*
X72641295Y-33282095D02*
X72546057Y-33329714D01*
X72546057Y-33329714D02*
X72498438Y-33377333D01*
X72498438Y-33377333D02*
X72450819Y-33472571D01*
X72450819Y-33472571D02*
X72450819Y-33663047D01*
X72450819Y-33663047D02*
X72498438Y-33758285D01*
X72498438Y-33758285D02*
X72546057Y-33805904D01*
X72546057Y-33805904D02*
X72641295Y-33853523D01*
X72641295Y-33853523D02*
X72879390Y-33853523D01*
X72879390Y-33853523D02*
X72974628Y-33805904D01*
X72974628Y-33805904D02*
X73022247Y-33758285D01*
X73022247Y-33758285D02*
X73069866Y-33663047D01*
X73069866Y-33663047D02*
X73069866Y-33472571D01*
X73069866Y-33472571D02*
X73022247Y-33377333D01*
X73022247Y-33377333D02*
X72974628Y-33329714D01*
X72974628Y-33329714D02*
X72879390Y-33282095D01*
X70095819Y-58237333D02*
X70810104Y-58237333D01*
X70810104Y-58237333D02*
X70952961Y-58284952D01*
X70952961Y-58284952D02*
X71048200Y-58380190D01*
X71048200Y-58380190D02*
X71095819Y-58523047D01*
X71095819Y-58523047D02*
X71095819Y-58618285D01*
X71095819Y-57761142D02*
X70095819Y-57761142D01*
X70095819Y-57761142D02*
X70095819Y-57380190D01*
X70095819Y-57380190D02*
X70143438Y-57284952D01*
X70143438Y-57284952D02*
X70191057Y-57237333D01*
X70191057Y-57237333D02*
X70286295Y-57189714D01*
X70286295Y-57189714D02*
X70429152Y-57189714D01*
X70429152Y-57189714D02*
X70524390Y-57237333D01*
X70524390Y-57237333D02*
X70572009Y-57284952D01*
X70572009Y-57284952D02*
X70619628Y-57380190D01*
X70619628Y-57380190D02*
X70619628Y-57761142D01*
X70191057Y-56808761D02*
X70143438Y-56761142D01*
X70143438Y-56761142D02*
X70095819Y-56665904D01*
X70095819Y-56665904D02*
X70095819Y-56427809D01*
X70095819Y-56427809D02*
X70143438Y-56332571D01*
X70143438Y-56332571D02*
X70191057Y-56284952D01*
X70191057Y-56284952D02*
X70286295Y-56237333D01*
X70286295Y-56237333D02*
X70381533Y-56237333D01*
X70381533Y-56237333D02*
X70524390Y-56284952D01*
X70524390Y-56284952D02*
X71095819Y-56856380D01*
X71095819Y-56856380D02*
X71095819Y-56237333D01*
X94848819Y-45346857D02*
X94372628Y-45680190D01*
X94848819Y-45918285D02*
X93848819Y-45918285D01*
X93848819Y-45918285D02*
X93848819Y-45537333D01*
X93848819Y-45537333D02*
X93896438Y-45442095D01*
X93896438Y-45442095D02*
X93944057Y-45394476D01*
X93944057Y-45394476D02*
X94039295Y-45346857D01*
X94039295Y-45346857D02*
X94182152Y-45346857D01*
X94182152Y-45346857D02*
X94277390Y-45394476D01*
X94277390Y-45394476D02*
X94325009Y-45442095D01*
X94325009Y-45442095D02*
X94372628Y-45537333D01*
X94372628Y-45537333D02*
X94372628Y-45918285D01*
X94848819Y-44394476D02*
X94848819Y-44965904D01*
X94848819Y-44680190D02*
X93848819Y-44680190D01*
X93848819Y-44680190D02*
X93991676Y-44775428D01*
X93991676Y-44775428D02*
X94086914Y-44870666D01*
X94086914Y-44870666D02*
X94134533Y-44965904D01*
X93848819Y-44061142D02*
X93848819Y-43442095D01*
X93848819Y-43442095D02*
X94229771Y-43775428D01*
X94229771Y-43775428D02*
X94229771Y-43632571D01*
X94229771Y-43632571D02*
X94277390Y-43537333D01*
X94277390Y-43537333D02*
X94325009Y-43489714D01*
X94325009Y-43489714D02*
X94420247Y-43442095D01*
X94420247Y-43442095D02*
X94658342Y-43442095D01*
X94658342Y-43442095D02*
X94753580Y-43489714D01*
X94753580Y-43489714D02*
X94801200Y-43537333D01*
X94801200Y-43537333D02*
X94848819Y-43632571D01*
X94848819Y-43632571D02*
X94848819Y-43918285D01*
X94848819Y-43918285D02*
X94801200Y-44013523D01*
X94801200Y-44013523D02*
X94753580Y-44061142D01*
X97776819Y-78398666D02*
X97776819Y-78874856D01*
X97776819Y-78874856D02*
X96776819Y-78874856D01*
X96776819Y-78160570D02*
X96776819Y-77541523D01*
X96776819Y-77541523D02*
X97157771Y-77874856D01*
X97157771Y-77874856D02*
X97157771Y-77731999D01*
X97157771Y-77731999D02*
X97205390Y-77636761D01*
X97205390Y-77636761D02*
X97253009Y-77589142D01*
X97253009Y-77589142D02*
X97348247Y-77541523D01*
X97348247Y-77541523D02*
X97586342Y-77541523D01*
X97586342Y-77541523D02*
X97681580Y-77589142D01*
X97681580Y-77589142D02*
X97729200Y-77636761D01*
X97729200Y-77636761D02*
X97776819Y-77731999D01*
X97776819Y-77731999D02*
X97776819Y-78017713D01*
X97776819Y-78017713D02*
X97729200Y-78112951D01*
X97729200Y-78112951D02*
X97681580Y-78160570D01*
X21647819Y-47069333D02*
X22362104Y-47069333D01*
X22362104Y-47069333D02*
X22504961Y-47116952D01*
X22504961Y-47116952D02*
X22600200Y-47212190D01*
X22600200Y-47212190D02*
X22647819Y-47355047D01*
X22647819Y-47355047D02*
X22647819Y-47450285D01*
X21647819Y-46688380D02*
X21647819Y-46069333D01*
X21647819Y-46069333D02*
X22028771Y-46402666D01*
X22028771Y-46402666D02*
X22028771Y-46259809D01*
X22028771Y-46259809D02*
X22076390Y-46164571D01*
X22076390Y-46164571D02*
X22124009Y-46116952D01*
X22124009Y-46116952D02*
X22219247Y-46069333D01*
X22219247Y-46069333D02*
X22457342Y-46069333D01*
X22457342Y-46069333D02*
X22552580Y-46116952D01*
X22552580Y-46116952D02*
X22600200Y-46164571D01*
X22600200Y-46164571D02*
X22647819Y-46259809D01*
X22647819Y-46259809D02*
X22647819Y-46545523D01*
X22647819Y-46545523D02*
X22600200Y-46640761D01*
X22600200Y-46640761D02*
X22552580Y-46688380D01*
X80005819Y-69032333D02*
X80720104Y-69032333D01*
X80720104Y-69032333D02*
X80862961Y-69079952D01*
X80862961Y-69079952D02*
X80958200Y-69175190D01*
X80958200Y-69175190D02*
X81005819Y-69318047D01*
X81005819Y-69318047D02*
X81005819Y-69413285D01*
X81005819Y-68556142D02*
X80005819Y-68556142D01*
X80005819Y-68556142D02*
X80005819Y-68175190D01*
X80005819Y-68175190D02*
X80053438Y-68079952D01*
X80053438Y-68079952D02*
X80101057Y-68032333D01*
X80101057Y-68032333D02*
X80196295Y-67984714D01*
X80196295Y-67984714D02*
X80339152Y-67984714D01*
X80339152Y-67984714D02*
X80434390Y-68032333D01*
X80434390Y-68032333D02*
X80482009Y-68079952D01*
X80482009Y-68079952D02*
X80529628Y-68175190D01*
X80529628Y-68175190D02*
X80529628Y-68556142D01*
X80005819Y-67651380D02*
X80005819Y-67032333D01*
X80005819Y-67032333D02*
X80386771Y-67365666D01*
X80386771Y-67365666D02*
X80386771Y-67222809D01*
X80386771Y-67222809D02*
X80434390Y-67127571D01*
X80434390Y-67127571D02*
X80482009Y-67079952D01*
X80482009Y-67079952D02*
X80577247Y-67032333D01*
X80577247Y-67032333D02*
X80815342Y-67032333D01*
X80815342Y-67032333D02*
X80910580Y-67079952D01*
X80910580Y-67079952D02*
X80958200Y-67127571D01*
X80958200Y-67127571D02*
X81005819Y-67222809D01*
X81005819Y-67222809D02*
X81005819Y-67508523D01*
X81005819Y-67508523D02*
X80958200Y-67603761D01*
X80958200Y-67603761D02*
X80910580Y-67651380D01*
X84074095Y-47968819D02*
X84074095Y-48778342D01*
X84074095Y-48778342D02*
X84121714Y-48873580D01*
X84121714Y-48873580D02*
X84169333Y-48921200D01*
X84169333Y-48921200D02*
X84264571Y-48968819D01*
X84264571Y-48968819D02*
X84455047Y-48968819D01*
X84455047Y-48968819D02*
X84550285Y-48921200D01*
X84550285Y-48921200D02*
X84597904Y-48873580D01*
X84597904Y-48873580D02*
X84645523Y-48778342D01*
X84645523Y-48778342D02*
X84645523Y-47968819D01*
X85264571Y-48397390D02*
X85169333Y-48349771D01*
X85169333Y-48349771D02*
X85121714Y-48302152D01*
X85121714Y-48302152D02*
X85074095Y-48206914D01*
X85074095Y-48206914D02*
X85074095Y-48159295D01*
X85074095Y-48159295D02*
X85121714Y-48064057D01*
X85121714Y-48064057D02*
X85169333Y-48016438D01*
X85169333Y-48016438D02*
X85264571Y-47968819D01*
X85264571Y-47968819D02*
X85455047Y-47968819D01*
X85455047Y-47968819D02*
X85550285Y-48016438D01*
X85550285Y-48016438D02*
X85597904Y-48064057D01*
X85597904Y-48064057D02*
X85645523Y-48159295D01*
X85645523Y-48159295D02*
X85645523Y-48206914D01*
X85645523Y-48206914D02*
X85597904Y-48302152D01*
X85597904Y-48302152D02*
X85550285Y-48349771D01*
X85550285Y-48349771D02*
X85455047Y-48397390D01*
X85455047Y-48397390D02*
X85264571Y-48397390D01*
X85264571Y-48397390D02*
X85169333Y-48445009D01*
X85169333Y-48445009D02*
X85121714Y-48492628D01*
X85121714Y-48492628D02*
X85074095Y-48587866D01*
X85074095Y-48587866D02*
X85074095Y-48778342D01*
X85074095Y-48778342D02*
X85121714Y-48873580D01*
X85121714Y-48873580D02*
X85169333Y-48921200D01*
X85169333Y-48921200D02*
X85264571Y-48968819D01*
X85264571Y-48968819D02*
X85455047Y-48968819D01*
X85455047Y-48968819D02*
X85550285Y-48921200D01*
X85550285Y-48921200D02*
X85597904Y-48873580D01*
X85597904Y-48873580D02*
X85645523Y-48778342D01*
X85645523Y-48778342D02*
X85645523Y-48587866D01*
X85645523Y-48587866D02*
X85597904Y-48492628D01*
X85597904Y-48492628D02*
X85550285Y-48445009D01*
X85550285Y-48445009D02*
X85455047Y-48397390D01*
X49248892Y-87322819D02*
X48915559Y-86846628D01*
X48677464Y-87322819D02*
X48677464Y-86322819D01*
X48677464Y-86322819D02*
X49058416Y-86322819D01*
X49058416Y-86322819D02*
X49153654Y-86370438D01*
X49153654Y-86370438D02*
X49201273Y-86418057D01*
X49201273Y-86418057D02*
X49248892Y-86513295D01*
X49248892Y-86513295D02*
X49248892Y-86656152D01*
X49248892Y-86656152D02*
X49201273Y-86751390D01*
X49201273Y-86751390D02*
X49153654Y-86799009D01*
X49153654Y-86799009D02*
X49058416Y-86846628D01*
X49058416Y-86846628D02*
X48677464Y-86846628D01*
X49629845Y-86418057D02*
X49677464Y-86370438D01*
X49677464Y-86370438D02*
X49772702Y-86322819D01*
X49772702Y-86322819D02*
X50010797Y-86322819D01*
X50010797Y-86322819D02*
X50106035Y-86370438D01*
X50106035Y-86370438D02*
X50153654Y-86418057D01*
X50153654Y-86418057D02*
X50201273Y-86513295D01*
X50201273Y-86513295D02*
X50201273Y-86608533D01*
X50201273Y-86608533D02*
X50153654Y-86751390D01*
X50153654Y-86751390D02*
X49582226Y-87322819D01*
X49582226Y-87322819D02*
X50201273Y-87322819D01*
X50820321Y-86322819D02*
X50915559Y-86322819D01*
X50915559Y-86322819D02*
X51010797Y-86370438D01*
X51010797Y-86370438D02*
X51058416Y-86418057D01*
X51058416Y-86418057D02*
X51106035Y-86513295D01*
X51106035Y-86513295D02*
X51153654Y-86703771D01*
X51153654Y-86703771D02*
X51153654Y-86941866D01*
X51153654Y-86941866D02*
X51106035Y-87132342D01*
X51106035Y-87132342D02*
X51058416Y-87227580D01*
X51058416Y-87227580D02*
X51010797Y-87275200D01*
X51010797Y-87275200D02*
X50915559Y-87322819D01*
X50915559Y-87322819D02*
X50820321Y-87322819D01*
X50820321Y-87322819D02*
X50725083Y-87275200D01*
X50725083Y-87275200D02*
X50677464Y-87227580D01*
X50677464Y-87227580D02*
X50629845Y-87132342D01*
X50629845Y-87132342D02*
X50582226Y-86941866D01*
X50582226Y-86941866D02*
X50582226Y-86703771D01*
X50582226Y-86703771D02*
X50629845Y-86513295D01*
X50629845Y-86513295D02*
X50677464Y-86418057D01*
X50677464Y-86418057D02*
X50725083Y-86370438D01*
X50725083Y-86370438D02*
X50820321Y-86322819D01*
X60801095Y-59808819D02*
X60801095Y-60618342D01*
X60801095Y-60618342D02*
X60848714Y-60713580D01*
X60848714Y-60713580D02*
X60896333Y-60761200D01*
X60896333Y-60761200D02*
X60991571Y-60808819D01*
X60991571Y-60808819D02*
X61182047Y-60808819D01*
X61182047Y-60808819D02*
X61277285Y-60761200D01*
X61277285Y-60761200D02*
X61324904Y-60713580D01*
X61324904Y-60713580D02*
X61372523Y-60618342D01*
X61372523Y-60618342D02*
X61372523Y-59808819D01*
X62324904Y-59808819D02*
X61848714Y-59808819D01*
X61848714Y-59808819D02*
X61801095Y-60285009D01*
X61801095Y-60285009D02*
X61848714Y-60237390D01*
X61848714Y-60237390D02*
X61943952Y-60189771D01*
X61943952Y-60189771D02*
X62182047Y-60189771D01*
X62182047Y-60189771D02*
X62277285Y-60237390D01*
X62277285Y-60237390D02*
X62324904Y-60285009D01*
X62324904Y-60285009D02*
X62372523Y-60380247D01*
X62372523Y-60380247D02*
X62372523Y-60618342D01*
X62372523Y-60618342D02*
X62324904Y-60713580D01*
X62324904Y-60713580D02*
X62277285Y-60761200D01*
X62277285Y-60761200D02*
X62182047Y-60808819D01*
X62182047Y-60808819D02*
X61943952Y-60808819D01*
X61943952Y-60808819D02*
X61848714Y-60761200D01*
X61848714Y-60761200D02*
X61801095Y-60713580D01*
X85115142Y-37443580D02*
X85067523Y-37491200D01*
X85067523Y-37491200D02*
X84924666Y-37538819D01*
X84924666Y-37538819D02*
X84829428Y-37538819D01*
X84829428Y-37538819D02*
X84686571Y-37491200D01*
X84686571Y-37491200D02*
X84591333Y-37395961D01*
X84591333Y-37395961D02*
X84543714Y-37300723D01*
X84543714Y-37300723D02*
X84496095Y-37110247D01*
X84496095Y-37110247D02*
X84496095Y-36967390D01*
X84496095Y-36967390D02*
X84543714Y-36776914D01*
X84543714Y-36776914D02*
X84591333Y-36681676D01*
X84591333Y-36681676D02*
X84686571Y-36586438D01*
X84686571Y-36586438D02*
X84829428Y-36538819D01*
X84829428Y-36538819D02*
X84924666Y-36538819D01*
X84924666Y-36538819D02*
X85067523Y-36586438D01*
X85067523Y-36586438D02*
X85115142Y-36634057D01*
X85496095Y-36634057D02*
X85543714Y-36586438D01*
X85543714Y-36586438D02*
X85638952Y-36538819D01*
X85638952Y-36538819D02*
X85877047Y-36538819D01*
X85877047Y-36538819D02*
X85972285Y-36586438D01*
X85972285Y-36586438D02*
X86019904Y-36634057D01*
X86019904Y-36634057D02*
X86067523Y-36729295D01*
X86067523Y-36729295D02*
X86067523Y-36824533D01*
X86067523Y-36824533D02*
X86019904Y-36967390D01*
X86019904Y-36967390D02*
X85448476Y-37538819D01*
X85448476Y-37538819D02*
X86067523Y-37538819D01*
X86400857Y-36538819D02*
X87067523Y-36538819D01*
X87067523Y-36538819D02*
X86638952Y-37538819D01*
X97260819Y-55538666D02*
X96784628Y-55871999D01*
X97260819Y-56110094D02*
X96260819Y-56110094D01*
X96260819Y-56110094D02*
X96260819Y-55729142D01*
X96260819Y-55729142D02*
X96308438Y-55633904D01*
X96308438Y-55633904D02*
X96356057Y-55586285D01*
X96356057Y-55586285D02*
X96451295Y-55538666D01*
X96451295Y-55538666D02*
X96594152Y-55538666D01*
X96594152Y-55538666D02*
X96689390Y-55586285D01*
X96689390Y-55586285D02*
X96737009Y-55633904D01*
X96737009Y-55633904D02*
X96784628Y-55729142D01*
X96784628Y-55729142D02*
X96784628Y-56110094D01*
X96594152Y-54681523D02*
X97260819Y-54681523D01*
X96213200Y-54919618D02*
X96927485Y-55157713D01*
X96927485Y-55157713D02*
X96927485Y-54538666D01*
X89274333Y-74908580D02*
X89226714Y-74956200D01*
X89226714Y-74956200D02*
X89083857Y-75003819D01*
X89083857Y-75003819D02*
X88988619Y-75003819D01*
X88988619Y-75003819D02*
X88845762Y-74956200D01*
X88845762Y-74956200D02*
X88750524Y-74860961D01*
X88750524Y-74860961D02*
X88702905Y-74765723D01*
X88702905Y-74765723D02*
X88655286Y-74575247D01*
X88655286Y-74575247D02*
X88655286Y-74432390D01*
X88655286Y-74432390D02*
X88702905Y-74241914D01*
X88702905Y-74241914D02*
X88750524Y-74146676D01*
X88750524Y-74146676D02*
X88845762Y-74051438D01*
X88845762Y-74051438D02*
X88988619Y-74003819D01*
X88988619Y-74003819D02*
X89083857Y-74003819D01*
X89083857Y-74003819D02*
X89226714Y-74051438D01*
X89226714Y-74051438D02*
X89274333Y-74099057D01*
X90226714Y-75003819D02*
X89655286Y-75003819D01*
X89941000Y-75003819D02*
X89941000Y-74003819D01*
X89941000Y-74003819D02*
X89845762Y-74146676D01*
X89845762Y-74146676D02*
X89750524Y-74241914D01*
X89750524Y-74241914D02*
X89655286Y-74289533D01*
X74836095Y-83708819D02*
X74836095Y-84518342D01*
X74836095Y-84518342D02*
X74883714Y-84613580D01*
X74883714Y-84613580D02*
X74931333Y-84661200D01*
X74931333Y-84661200D02*
X75026571Y-84708819D01*
X75026571Y-84708819D02*
X75217047Y-84708819D01*
X75217047Y-84708819D02*
X75312285Y-84661200D01*
X75312285Y-84661200D02*
X75359904Y-84613580D01*
X75359904Y-84613580D02*
X75407523Y-84518342D01*
X75407523Y-84518342D02*
X75407523Y-83708819D01*
X75836095Y-83804057D02*
X75883714Y-83756438D01*
X75883714Y-83756438D02*
X75978952Y-83708819D01*
X75978952Y-83708819D02*
X76217047Y-83708819D01*
X76217047Y-83708819D02*
X76312285Y-83756438D01*
X76312285Y-83756438D02*
X76359904Y-83804057D01*
X76359904Y-83804057D02*
X76407523Y-83899295D01*
X76407523Y-83899295D02*
X76407523Y-83994533D01*
X76407523Y-83994533D02*
X76359904Y-84137390D01*
X76359904Y-84137390D02*
X75788476Y-84708819D01*
X75788476Y-84708819D02*
X76407523Y-84708819D01*
X54683580Y-65920857D02*
X54731200Y-65968476D01*
X54731200Y-65968476D02*
X54778819Y-66111333D01*
X54778819Y-66111333D02*
X54778819Y-66206571D01*
X54778819Y-66206571D02*
X54731200Y-66349428D01*
X54731200Y-66349428D02*
X54635961Y-66444666D01*
X54635961Y-66444666D02*
X54540723Y-66492285D01*
X54540723Y-66492285D02*
X54350247Y-66539904D01*
X54350247Y-66539904D02*
X54207390Y-66539904D01*
X54207390Y-66539904D02*
X54016914Y-66492285D01*
X54016914Y-66492285D02*
X53921676Y-66444666D01*
X53921676Y-66444666D02*
X53826438Y-66349428D01*
X53826438Y-66349428D02*
X53778819Y-66206571D01*
X53778819Y-66206571D02*
X53778819Y-66111333D01*
X53778819Y-66111333D02*
X53826438Y-65968476D01*
X53826438Y-65968476D02*
X53874057Y-65920857D01*
X53874057Y-65539904D02*
X53826438Y-65492285D01*
X53826438Y-65492285D02*
X53778819Y-65397047D01*
X53778819Y-65397047D02*
X53778819Y-65158952D01*
X53778819Y-65158952D02*
X53826438Y-65063714D01*
X53826438Y-65063714D02*
X53874057Y-65016095D01*
X53874057Y-65016095D02*
X53969295Y-64968476D01*
X53969295Y-64968476D02*
X54064533Y-64968476D01*
X54064533Y-64968476D02*
X54207390Y-65016095D01*
X54207390Y-65016095D02*
X54778819Y-65587523D01*
X54778819Y-65587523D02*
X54778819Y-64968476D01*
X53778819Y-64635142D02*
X53778819Y-64016095D01*
X53778819Y-64016095D02*
X54159771Y-64349428D01*
X54159771Y-64349428D02*
X54159771Y-64206571D01*
X54159771Y-64206571D02*
X54207390Y-64111333D01*
X54207390Y-64111333D02*
X54255009Y-64063714D01*
X54255009Y-64063714D02*
X54350247Y-64016095D01*
X54350247Y-64016095D02*
X54588342Y-64016095D01*
X54588342Y-64016095D02*
X54683580Y-64063714D01*
X54683580Y-64063714D02*
X54731200Y-64111333D01*
X54731200Y-64111333D02*
X54778819Y-64206571D01*
X54778819Y-64206571D02*
X54778819Y-64492285D01*
X54778819Y-64492285D02*
X54731200Y-64587523D01*
X54731200Y-64587523D02*
X54683580Y-64635142D01*
X86893142Y-60938580D02*
X86845523Y-60986200D01*
X86845523Y-60986200D02*
X86702666Y-61033819D01*
X86702666Y-61033819D02*
X86607428Y-61033819D01*
X86607428Y-61033819D02*
X86464571Y-60986200D01*
X86464571Y-60986200D02*
X86369333Y-60890961D01*
X86369333Y-60890961D02*
X86321714Y-60795723D01*
X86321714Y-60795723D02*
X86274095Y-60605247D01*
X86274095Y-60605247D02*
X86274095Y-60462390D01*
X86274095Y-60462390D02*
X86321714Y-60271914D01*
X86321714Y-60271914D02*
X86369333Y-60176676D01*
X86369333Y-60176676D02*
X86464571Y-60081438D01*
X86464571Y-60081438D02*
X86607428Y-60033819D01*
X86607428Y-60033819D02*
X86702666Y-60033819D01*
X86702666Y-60033819D02*
X86845523Y-60081438D01*
X86845523Y-60081438D02*
X86893142Y-60129057D01*
X87845523Y-61033819D02*
X87274095Y-61033819D01*
X87559809Y-61033819D02*
X87559809Y-60033819D01*
X87559809Y-60033819D02*
X87464571Y-60176676D01*
X87464571Y-60176676D02*
X87369333Y-60271914D01*
X87369333Y-60271914D02*
X87274095Y-60319533D01*
X88178857Y-60033819D02*
X88797904Y-60033819D01*
X88797904Y-60033819D02*
X88464571Y-60414771D01*
X88464571Y-60414771D02*
X88607428Y-60414771D01*
X88607428Y-60414771D02*
X88702666Y-60462390D01*
X88702666Y-60462390D02*
X88750285Y-60510009D01*
X88750285Y-60510009D02*
X88797904Y-60605247D01*
X88797904Y-60605247D02*
X88797904Y-60843342D01*
X88797904Y-60843342D02*
X88750285Y-60938580D01*
X88750285Y-60938580D02*
X88702666Y-60986200D01*
X88702666Y-60986200D02*
X88607428Y-61033819D01*
X88607428Y-61033819D02*
X88321714Y-61033819D01*
X88321714Y-61033819D02*
X88226476Y-60986200D01*
X88226476Y-60986200D02*
X88178857Y-60938580D01*
X75925819Y-35186857D02*
X75449628Y-35520190D01*
X75925819Y-35758285D02*
X74925819Y-35758285D01*
X74925819Y-35758285D02*
X74925819Y-35377333D01*
X74925819Y-35377333D02*
X74973438Y-35282095D01*
X74973438Y-35282095D02*
X75021057Y-35234476D01*
X75021057Y-35234476D02*
X75116295Y-35186857D01*
X75116295Y-35186857D02*
X75259152Y-35186857D01*
X75259152Y-35186857D02*
X75354390Y-35234476D01*
X75354390Y-35234476D02*
X75402009Y-35282095D01*
X75402009Y-35282095D02*
X75449628Y-35377333D01*
X75449628Y-35377333D02*
X75449628Y-35758285D01*
X75925819Y-34234476D02*
X75925819Y-34805904D01*
X75925819Y-34520190D02*
X74925819Y-34520190D01*
X74925819Y-34520190D02*
X75068676Y-34615428D01*
X75068676Y-34615428D02*
X75163914Y-34710666D01*
X75163914Y-34710666D02*
X75211533Y-34805904D01*
X75354390Y-33663047D02*
X75306771Y-33758285D01*
X75306771Y-33758285D02*
X75259152Y-33805904D01*
X75259152Y-33805904D02*
X75163914Y-33853523D01*
X75163914Y-33853523D02*
X75116295Y-33853523D01*
X75116295Y-33853523D02*
X75021057Y-33805904D01*
X75021057Y-33805904D02*
X74973438Y-33758285D01*
X74973438Y-33758285D02*
X74925819Y-33663047D01*
X74925819Y-33663047D02*
X74925819Y-33472571D01*
X74925819Y-33472571D02*
X74973438Y-33377333D01*
X74973438Y-33377333D02*
X75021057Y-33329714D01*
X75021057Y-33329714D02*
X75116295Y-33282095D01*
X75116295Y-33282095D02*
X75163914Y-33282095D01*
X75163914Y-33282095D02*
X75259152Y-33329714D01*
X75259152Y-33329714D02*
X75306771Y-33377333D01*
X75306771Y-33377333D02*
X75354390Y-33472571D01*
X75354390Y-33472571D02*
X75354390Y-33663047D01*
X75354390Y-33663047D02*
X75402009Y-33758285D01*
X75402009Y-33758285D02*
X75449628Y-33805904D01*
X75449628Y-33805904D02*
X75544866Y-33853523D01*
X75544866Y-33853523D02*
X75735342Y-33853523D01*
X75735342Y-33853523D02*
X75830580Y-33805904D01*
X75830580Y-33805904D02*
X75878200Y-33758285D01*
X75878200Y-33758285D02*
X75925819Y-33663047D01*
X75925819Y-33663047D02*
X75925819Y-33472571D01*
X75925819Y-33472571D02*
X75878200Y-33377333D01*
X75878200Y-33377333D02*
X75830580Y-33329714D01*
X75830580Y-33329714D02*
X75735342Y-33282095D01*
X75735342Y-33282095D02*
X75544866Y-33282095D01*
X75544866Y-33282095D02*
X75449628Y-33329714D01*
X75449628Y-33329714D02*
X75402009Y-33377333D01*
X75402009Y-33377333D02*
X75354390Y-33472571D01*
X70002142Y-46968580D02*
X69954523Y-47016200D01*
X69954523Y-47016200D02*
X69811666Y-47063819D01*
X69811666Y-47063819D02*
X69716428Y-47063819D01*
X69716428Y-47063819D02*
X69573571Y-47016200D01*
X69573571Y-47016200D02*
X69478333Y-46920961D01*
X69478333Y-46920961D02*
X69430714Y-46825723D01*
X69430714Y-46825723D02*
X69383095Y-46635247D01*
X69383095Y-46635247D02*
X69383095Y-46492390D01*
X69383095Y-46492390D02*
X69430714Y-46301914D01*
X69430714Y-46301914D02*
X69478333Y-46206676D01*
X69478333Y-46206676D02*
X69573571Y-46111438D01*
X69573571Y-46111438D02*
X69716428Y-46063819D01*
X69716428Y-46063819D02*
X69811666Y-46063819D01*
X69811666Y-46063819D02*
X69954523Y-46111438D01*
X69954523Y-46111438D02*
X70002142Y-46159057D01*
X70383095Y-46159057D02*
X70430714Y-46111438D01*
X70430714Y-46111438D02*
X70525952Y-46063819D01*
X70525952Y-46063819D02*
X70764047Y-46063819D01*
X70764047Y-46063819D02*
X70859285Y-46111438D01*
X70859285Y-46111438D02*
X70906904Y-46159057D01*
X70906904Y-46159057D02*
X70954523Y-46254295D01*
X70954523Y-46254295D02*
X70954523Y-46349533D01*
X70954523Y-46349533D02*
X70906904Y-46492390D01*
X70906904Y-46492390D02*
X70335476Y-47063819D01*
X70335476Y-47063819D02*
X70954523Y-47063819D01*
X71525952Y-46492390D02*
X71430714Y-46444771D01*
X71430714Y-46444771D02*
X71383095Y-46397152D01*
X71383095Y-46397152D02*
X71335476Y-46301914D01*
X71335476Y-46301914D02*
X71335476Y-46254295D01*
X71335476Y-46254295D02*
X71383095Y-46159057D01*
X71383095Y-46159057D02*
X71430714Y-46111438D01*
X71430714Y-46111438D02*
X71525952Y-46063819D01*
X71525952Y-46063819D02*
X71716428Y-46063819D01*
X71716428Y-46063819D02*
X71811666Y-46111438D01*
X71811666Y-46111438D02*
X71859285Y-46159057D01*
X71859285Y-46159057D02*
X71906904Y-46254295D01*
X71906904Y-46254295D02*
X71906904Y-46301914D01*
X71906904Y-46301914D02*
X71859285Y-46397152D01*
X71859285Y-46397152D02*
X71811666Y-46444771D01*
X71811666Y-46444771D02*
X71716428Y-46492390D01*
X71716428Y-46492390D02*
X71525952Y-46492390D01*
X71525952Y-46492390D02*
X71430714Y-46540009D01*
X71430714Y-46540009D02*
X71383095Y-46587628D01*
X71383095Y-46587628D02*
X71335476Y-46682866D01*
X71335476Y-46682866D02*
X71335476Y-46873342D01*
X71335476Y-46873342D02*
X71383095Y-46968580D01*
X71383095Y-46968580D02*
X71430714Y-47016200D01*
X71430714Y-47016200D02*
X71525952Y-47063819D01*
X71525952Y-47063819D02*
X71716428Y-47063819D01*
X71716428Y-47063819D02*
X71811666Y-47016200D01*
X71811666Y-47016200D02*
X71859285Y-46968580D01*
X71859285Y-46968580D02*
X71906904Y-46873342D01*
X71906904Y-46873342D02*
X71906904Y-46682866D01*
X71906904Y-46682866D02*
X71859285Y-46587628D01*
X71859285Y-46587628D02*
X71811666Y-46540009D01*
X71811666Y-46540009D02*
X71716428Y-46492390D01*
X86352142Y-56874580D02*
X86304523Y-56922200D01*
X86304523Y-56922200D02*
X86161666Y-56969819D01*
X86161666Y-56969819D02*
X86066428Y-56969819D01*
X86066428Y-56969819D02*
X85923571Y-56922200D01*
X85923571Y-56922200D02*
X85828333Y-56826961D01*
X85828333Y-56826961D02*
X85780714Y-56731723D01*
X85780714Y-56731723D02*
X85733095Y-56541247D01*
X85733095Y-56541247D02*
X85733095Y-56398390D01*
X85733095Y-56398390D02*
X85780714Y-56207914D01*
X85780714Y-56207914D02*
X85828333Y-56112676D01*
X85828333Y-56112676D02*
X85923571Y-56017438D01*
X85923571Y-56017438D02*
X86066428Y-55969819D01*
X86066428Y-55969819D02*
X86161666Y-55969819D01*
X86161666Y-55969819D02*
X86304523Y-56017438D01*
X86304523Y-56017438D02*
X86352142Y-56065057D01*
X87304523Y-56969819D02*
X86733095Y-56969819D01*
X87018809Y-56969819D02*
X87018809Y-55969819D01*
X87018809Y-55969819D02*
X86923571Y-56112676D01*
X86923571Y-56112676D02*
X86828333Y-56207914D01*
X86828333Y-56207914D02*
X86733095Y-56255533D01*
X88161666Y-55969819D02*
X87971190Y-55969819D01*
X87971190Y-55969819D02*
X87875952Y-56017438D01*
X87875952Y-56017438D02*
X87828333Y-56065057D01*
X87828333Y-56065057D02*
X87733095Y-56207914D01*
X87733095Y-56207914D02*
X87685476Y-56398390D01*
X87685476Y-56398390D02*
X87685476Y-56779342D01*
X87685476Y-56779342D02*
X87733095Y-56874580D01*
X87733095Y-56874580D02*
X87780714Y-56922200D01*
X87780714Y-56922200D02*
X87875952Y-56969819D01*
X87875952Y-56969819D02*
X88066428Y-56969819D01*
X88066428Y-56969819D02*
X88161666Y-56922200D01*
X88161666Y-56922200D02*
X88209285Y-56874580D01*
X88209285Y-56874580D02*
X88256904Y-56779342D01*
X88256904Y-56779342D02*
X88256904Y-56541247D01*
X88256904Y-56541247D02*
X88209285Y-56446009D01*
X88209285Y-56446009D02*
X88161666Y-56398390D01*
X88161666Y-56398390D02*
X88066428Y-56350771D01*
X88066428Y-56350771D02*
X87875952Y-56350771D01*
X87875952Y-56350771D02*
X87780714Y-56398390D01*
X87780714Y-56398390D02*
X87733095Y-56446009D01*
X87733095Y-56446009D02*
X87685476Y-56541247D01*
X71367333Y-76974819D02*
X71034000Y-76498628D01*
X70795905Y-76974819D02*
X70795905Y-75974819D01*
X70795905Y-75974819D02*
X71176857Y-75974819D01*
X71176857Y-75974819D02*
X71272095Y-76022438D01*
X71272095Y-76022438D02*
X71319714Y-76070057D01*
X71319714Y-76070057D02*
X71367333Y-76165295D01*
X71367333Y-76165295D02*
X71367333Y-76308152D01*
X71367333Y-76308152D02*
X71319714Y-76403390D01*
X71319714Y-76403390D02*
X71272095Y-76451009D01*
X71272095Y-76451009D02*
X71176857Y-76498628D01*
X71176857Y-76498628D02*
X70795905Y-76498628D01*
X71748286Y-76070057D02*
X71795905Y-76022438D01*
X71795905Y-76022438D02*
X71891143Y-75974819D01*
X71891143Y-75974819D02*
X72129238Y-75974819D01*
X72129238Y-75974819D02*
X72224476Y-76022438D01*
X72224476Y-76022438D02*
X72272095Y-76070057D01*
X72272095Y-76070057D02*
X72319714Y-76165295D01*
X72319714Y-76165295D02*
X72319714Y-76260533D01*
X72319714Y-76260533D02*
X72272095Y-76403390D01*
X72272095Y-76403390D02*
X71700667Y-76974819D01*
X71700667Y-76974819D02*
X72319714Y-76974819D01*
X67303333Y-77356819D02*
X66970000Y-76880628D01*
X66731905Y-77356819D02*
X66731905Y-76356819D01*
X66731905Y-76356819D02*
X67112857Y-76356819D01*
X67112857Y-76356819D02*
X67208095Y-76404438D01*
X67208095Y-76404438D02*
X67255714Y-76452057D01*
X67255714Y-76452057D02*
X67303333Y-76547295D01*
X67303333Y-76547295D02*
X67303333Y-76690152D01*
X67303333Y-76690152D02*
X67255714Y-76785390D01*
X67255714Y-76785390D02*
X67208095Y-76833009D01*
X67208095Y-76833009D02*
X67112857Y-76880628D01*
X67112857Y-76880628D02*
X66731905Y-76880628D01*
X67874762Y-76785390D02*
X67779524Y-76737771D01*
X67779524Y-76737771D02*
X67731905Y-76690152D01*
X67731905Y-76690152D02*
X67684286Y-76594914D01*
X67684286Y-76594914D02*
X67684286Y-76547295D01*
X67684286Y-76547295D02*
X67731905Y-76452057D01*
X67731905Y-76452057D02*
X67779524Y-76404438D01*
X67779524Y-76404438D02*
X67874762Y-76356819D01*
X67874762Y-76356819D02*
X68065238Y-76356819D01*
X68065238Y-76356819D02*
X68160476Y-76404438D01*
X68160476Y-76404438D02*
X68208095Y-76452057D01*
X68208095Y-76452057D02*
X68255714Y-76547295D01*
X68255714Y-76547295D02*
X68255714Y-76594914D01*
X68255714Y-76594914D02*
X68208095Y-76690152D01*
X68208095Y-76690152D02*
X68160476Y-76737771D01*
X68160476Y-76737771D02*
X68065238Y-76785390D01*
X68065238Y-76785390D02*
X67874762Y-76785390D01*
X67874762Y-76785390D02*
X67779524Y-76833009D01*
X67779524Y-76833009D02*
X67731905Y-76880628D01*
X67731905Y-76880628D02*
X67684286Y-76975866D01*
X67684286Y-76975866D02*
X67684286Y-77166342D01*
X67684286Y-77166342D02*
X67731905Y-77261580D01*
X67731905Y-77261580D02*
X67779524Y-77309200D01*
X67779524Y-77309200D02*
X67874762Y-77356819D01*
X67874762Y-77356819D02*
X68065238Y-77356819D01*
X68065238Y-77356819D02*
X68160476Y-77309200D01*
X68160476Y-77309200D02*
X68208095Y-77261580D01*
X68208095Y-77261580D02*
X68255714Y-77166342D01*
X68255714Y-77166342D02*
X68255714Y-76975866D01*
X68255714Y-76975866D02*
X68208095Y-76880628D01*
X68208095Y-76880628D02*
X68160476Y-76833009D01*
X68160476Y-76833009D02*
X68065238Y-76785390D01*
X102992819Y-68325904D02*
X103802342Y-68325904D01*
X103802342Y-68325904D02*
X103897580Y-68278285D01*
X103897580Y-68278285D02*
X103945200Y-68230666D01*
X103945200Y-68230666D02*
X103992819Y-68135428D01*
X103992819Y-68135428D02*
X103992819Y-67944952D01*
X103992819Y-67944952D02*
X103945200Y-67849714D01*
X103945200Y-67849714D02*
X103897580Y-67802095D01*
X103897580Y-67802095D02*
X103802342Y-67754476D01*
X103802342Y-67754476D02*
X102992819Y-67754476D01*
X102992819Y-67373523D02*
X102992819Y-66754476D01*
X102992819Y-66754476D02*
X103373771Y-67087809D01*
X103373771Y-67087809D02*
X103373771Y-66944952D01*
X103373771Y-66944952D02*
X103421390Y-66849714D01*
X103421390Y-66849714D02*
X103469009Y-66802095D01*
X103469009Y-66802095D02*
X103564247Y-66754476D01*
X103564247Y-66754476D02*
X103802342Y-66754476D01*
X103802342Y-66754476D02*
X103897580Y-66802095D01*
X103897580Y-66802095D02*
X103945200Y-66849714D01*
X103945200Y-66849714D02*
X103992819Y-66944952D01*
X103992819Y-66944952D02*
X103992819Y-67230666D01*
X103992819Y-67230666D02*
X103945200Y-67325904D01*
X103945200Y-67325904D02*
X103897580Y-67373523D01*
X69607580Y-87322857D02*
X69655200Y-87370476D01*
X69655200Y-87370476D02*
X69702819Y-87513333D01*
X69702819Y-87513333D02*
X69702819Y-87608571D01*
X69702819Y-87608571D02*
X69655200Y-87751428D01*
X69655200Y-87751428D02*
X69559961Y-87846666D01*
X69559961Y-87846666D02*
X69464723Y-87894285D01*
X69464723Y-87894285D02*
X69274247Y-87941904D01*
X69274247Y-87941904D02*
X69131390Y-87941904D01*
X69131390Y-87941904D02*
X68940914Y-87894285D01*
X68940914Y-87894285D02*
X68845676Y-87846666D01*
X68845676Y-87846666D02*
X68750438Y-87751428D01*
X68750438Y-87751428D02*
X68702819Y-87608571D01*
X68702819Y-87608571D02*
X68702819Y-87513333D01*
X68702819Y-87513333D02*
X68750438Y-87370476D01*
X68750438Y-87370476D02*
X68798057Y-87322857D01*
X69702819Y-86370476D02*
X69702819Y-86941904D01*
X69702819Y-86656190D02*
X68702819Y-86656190D01*
X68702819Y-86656190D02*
X68845676Y-86751428D01*
X68845676Y-86751428D02*
X68940914Y-86846666D01*
X68940914Y-86846666D02*
X68988533Y-86941904D01*
X69036152Y-85513333D02*
X69702819Y-85513333D01*
X68655200Y-85751428D02*
X69369485Y-85989523D01*
X69369485Y-85989523D02*
X69369485Y-85370476D01*
X89782333Y-73456580D02*
X89734714Y-73504200D01*
X89734714Y-73504200D02*
X89591857Y-73551819D01*
X89591857Y-73551819D02*
X89496619Y-73551819D01*
X89496619Y-73551819D02*
X89353762Y-73504200D01*
X89353762Y-73504200D02*
X89258524Y-73408961D01*
X89258524Y-73408961D02*
X89210905Y-73313723D01*
X89210905Y-73313723D02*
X89163286Y-73123247D01*
X89163286Y-73123247D02*
X89163286Y-72980390D01*
X89163286Y-72980390D02*
X89210905Y-72789914D01*
X89210905Y-72789914D02*
X89258524Y-72694676D01*
X89258524Y-72694676D02*
X89353762Y-72599438D01*
X89353762Y-72599438D02*
X89496619Y-72551819D01*
X89496619Y-72551819D02*
X89591857Y-72551819D01*
X89591857Y-72551819D02*
X89734714Y-72599438D01*
X89734714Y-72599438D02*
X89782333Y-72647057D01*
X90639476Y-72885152D02*
X90639476Y-73551819D01*
X90401381Y-72504200D02*
X90163286Y-73218485D01*
X90163286Y-73218485D02*
X90782333Y-73218485D01*
X55380095Y-75654819D02*
X55951523Y-75654819D01*
X55665809Y-76654819D02*
X55665809Y-75654819D01*
X56284857Y-76654819D02*
X56284857Y-75654819D01*
X56284857Y-75654819D02*
X56665809Y-75654819D01*
X56665809Y-75654819D02*
X56761047Y-75702438D01*
X56761047Y-75702438D02*
X56808666Y-75750057D01*
X56808666Y-75750057D02*
X56856285Y-75845295D01*
X56856285Y-75845295D02*
X56856285Y-75988152D01*
X56856285Y-75988152D02*
X56808666Y-76083390D01*
X56808666Y-76083390D02*
X56761047Y-76131009D01*
X56761047Y-76131009D02*
X56665809Y-76178628D01*
X56665809Y-76178628D02*
X56284857Y-76178628D01*
X57189619Y-75654819D02*
X57808666Y-75654819D01*
X57808666Y-75654819D02*
X57475333Y-76035771D01*
X57475333Y-76035771D02*
X57618190Y-76035771D01*
X57618190Y-76035771D02*
X57713428Y-76083390D01*
X57713428Y-76083390D02*
X57761047Y-76131009D01*
X57761047Y-76131009D02*
X57808666Y-76226247D01*
X57808666Y-76226247D02*
X57808666Y-76464342D01*
X57808666Y-76464342D02*
X57761047Y-76559580D01*
X57761047Y-76559580D02*
X57713428Y-76607200D01*
X57713428Y-76607200D02*
X57618190Y-76654819D01*
X57618190Y-76654819D02*
X57332476Y-76654819D01*
X57332476Y-76654819D02*
X57237238Y-76607200D01*
X57237238Y-76607200D02*
X57189619Y-76559580D01*
X80001580Y-85818666D02*
X80049200Y-85866285D01*
X80049200Y-85866285D02*
X80096819Y-86009142D01*
X80096819Y-86009142D02*
X80096819Y-86104380D01*
X80096819Y-86104380D02*
X80049200Y-86247237D01*
X80049200Y-86247237D02*
X79953961Y-86342475D01*
X79953961Y-86342475D02*
X79858723Y-86390094D01*
X79858723Y-86390094D02*
X79668247Y-86437713D01*
X79668247Y-86437713D02*
X79525390Y-86437713D01*
X79525390Y-86437713D02*
X79334914Y-86390094D01*
X79334914Y-86390094D02*
X79239676Y-86342475D01*
X79239676Y-86342475D02*
X79144438Y-86247237D01*
X79144438Y-86247237D02*
X79096819Y-86104380D01*
X79096819Y-86104380D02*
X79096819Y-86009142D01*
X79096819Y-86009142D02*
X79144438Y-85866285D01*
X79144438Y-85866285D02*
X79192057Y-85818666D01*
X79192057Y-85437713D02*
X79144438Y-85390094D01*
X79144438Y-85390094D02*
X79096819Y-85294856D01*
X79096819Y-85294856D02*
X79096819Y-85056761D01*
X79096819Y-85056761D02*
X79144438Y-84961523D01*
X79144438Y-84961523D02*
X79192057Y-84913904D01*
X79192057Y-84913904D02*
X79287295Y-84866285D01*
X79287295Y-84866285D02*
X79382533Y-84866285D01*
X79382533Y-84866285D02*
X79525390Y-84913904D01*
X79525390Y-84913904D02*
X80096819Y-85485332D01*
X80096819Y-85485332D02*
X80096819Y-84866285D01*
D13*
%TO.C,C25*%
X68497252Y-61870000D02*
X67074748Y-61870000D01*
X68497252Y-60050000D02*
X67074748Y-60050000D01*
%TO.C,R22*%
X45177064Y-91715000D02*
X43722936Y-91715000D01*
X45177064Y-89895000D02*
X43722936Y-89895000D01*
%TO.C,R21*%
X49880436Y-89895000D02*
X51334564Y-89895000D01*
X49880436Y-91715000D02*
X51334564Y-91715000D01*
%TO.C,D3*%
X102451000Y-39640000D02*
X102451000Y-42325000D01*
X102451000Y-42325000D02*
X104371000Y-42325000D01*
X104371000Y-42325000D02*
X104371000Y-39640000D01*
%TO.C,D1*%
X91656000Y-38955000D02*
X91656000Y-41640000D01*
X93576000Y-38955000D02*
X91656000Y-38955000D01*
X93576000Y-41640000D02*
X93576000Y-38955000D01*
%TO.C,R12*%
X104327000Y-56160936D02*
X104327000Y-56615064D01*
X105797000Y-56160936D02*
X105797000Y-56615064D01*
%TO.C,R10*%
X104327000Y-67791064D02*
X104327000Y-67336936D01*
X105797000Y-67791064D02*
X105797000Y-67336936D01*
%TO.C,L2*%
X89036000Y-76759000D02*
X86036000Y-76759000D01*
X89036000Y-79959000D02*
X86036000Y-79959000D01*
%TO.C,R7*%
X62313436Y-77817000D02*
X62767564Y-77817000D01*
X62313436Y-79287000D02*
X62767564Y-79287000D01*
%TO.C,U6*%
X64676000Y-37739000D02*
X62726000Y-37739000D01*
X64676000Y-37739000D02*
X66626000Y-37739000D01*
X64676000Y-47859000D02*
X62726000Y-47859000D01*
X64676000Y-47859000D02*
X66626000Y-47859000D01*
X61976000Y-37794000D02*
X61736000Y-37464000D01*
X62216000Y-37464000D01*
X61976000Y-37794000D01*
G36*
X61976000Y-37794000D02*
G01*
X61736000Y-37464000D01*
X62216000Y-37464000D01*
X61976000Y-37794000D01*
G37*
%TO.C,C15*%
X100540748Y-60304000D02*
X101963252Y-60304000D01*
X100540748Y-62124000D02*
X101963252Y-62124000D01*
%TO.C,C18*%
X99502000Y-59422000D02*
X103722000Y-59422000D01*
X103722000Y-56402000D02*
X99502000Y-56402000D01*
X103722000Y-59422000D02*
X103722000Y-56402000D01*
%TO.C,C6*%
X102064748Y-70464000D02*
X103487252Y-70464000D01*
X102064748Y-72284000D02*
X103487252Y-72284000D01*
%TO.C,D2*%
X55461000Y-83050500D02*
X55461000Y-85735500D01*
X55461000Y-85735500D02*
X57381000Y-85735500D01*
X57381000Y-85735500D02*
X57381000Y-83050500D01*
%TO.C,C22*%
X55621000Y-61206748D02*
X55621000Y-61729252D01*
X57091000Y-61206748D02*
X57091000Y-61729252D01*
%TO.C,TP1*%
X89092000Y-40894000D02*
G75*
G02*
X87692000Y-40894000I-700000J0D01*
G01*
X87692000Y-40894000D02*
G75*
G02*
X89092000Y-40894000I700000J0D01*
G01*
%TO.C,C26*%
X69656000Y-38092748D02*
X69656000Y-38615252D01*
X71126000Y-38092748D02*
X71126000Y-38615252D01*
%TO.C,J1*%
X94984000Y-85298000D02*
X93704000Y-85298000D01*
X94984000Y-85898000D02*
X93704000Y-85898000D01*
X94984000Y-89498000D02*
X93704000Y-89498000D01*
X94984000Y-90098000D02*
X93704000Y-90098000D01*
X96794000Y-82998000D02*
X97394000Y-82998000D01*
X97094000Y-83598000D02*
X96794000Y-82998000D01*
X97394000Y-82998000D02*
X97094000Y-83598000D01*
X98084000Y-82788000D02*
X111104000Y-82788000D01*
X98084000Y-83598000D02*
X98084000Y-82788000D01*
X98084000Y-91798000D02*
X98084000Y-92608000D01*
X98084000Y-92608000D02*
X111104000Y-92608000D01*
X98094000Y-87208000D02*
X98094000Y-88188000D01*
X111104000Y-82788000D02*
X111104000Y-87698000D01*
X111104000Y-92608000D02*
X111104000Y-87698000D01*
%TO.C,JP1*%
X82091000Y-58739000D02*
X82091000Y-57339000D01*
X82791000Y-56639000D02*
X83391000Y-56639000D01*
X83391000Y-59439000D02*
X82791000Y-59439000D01*
X84091000Y-57339000D02*
X84091000Y-58739000D01*
X82091000Y-57339000D02*
G75*
G02*
X82791000Y-56639000I700000J0D01*
G01*
X82791000Y-59439000D02*
G75*
G02*
X82091000Y-58739000I-1J699999D01*
G01*
X83391000Y-56639000D02*
G75*
G02*
X84091000Y-57339000I0J-700000D01*
G01*
X84091000Y-58739000D02*
G75*
G02*
X83391000Y-59439000I-699999J-1D01*
G01*
%TO.C,C5*%
X81546000Y-81126748D02*
X81546000Y-82549252D01*
X83366000Y-81126748D02*
X83366000Y-82549252D01*
%TO.C,R9*%
X75116936Y-77817000D02*
X75571064Y-77817000D01*
X75116936Y-79287000D02*
X75571064Y-79287000D01*
%TO.C,R16*%
X25426936Y-66067000D02*
X25881064Y-66067000D01*
X25426936Y-67537000D02*
X25881064Y-67537000D01*
%TO.C,U9*%
X44049750Y-83165000D02*
X42099750Y-83165000D01*
X44049750Y-83165000D02*
X45999750Y-83165000D01*
X44049750Y-88285000D02*
X42099750Y-88285000D01*
X44049750Y-88285000D02*
X45999750Y-88285000D01*
X46989750Y-88520000D02*
X46509750Y-88520000D01*
X46749750Y-88190000D01*
X46989750Y-88520000D01*
G36*
X46989750Y-88520000D02*
G01*
X46509750Y-88520000D01*
X46749750Y-88190000D01*
X46989750Y-88520000D01*
G37*
%TO.C,R6*%
X94167000Y-67844936D02*
X94167000Y-68299064D01*
X95637000Y-67844936D02*
X95637000Y-68299064D01*
%TO.C,R3*%
X104539500Y-63753276D02*
X104539500Y-64262724D01*
X105584500Y-63753276D02*
X105584500Y-64262724D01*
%TO.C,R11*%
X104327000Y-59970936D02*
X104327000Y-60425064D01*
X105797000Y-59970936D02*
X105797000Y-60425064D01*
%TO.C,R15*%
X102676000Y-44931064D02*
X102676000Y-44476936D01*
X104146000Y-44931064D02*
X104146000Y-44476936D01*
%TO.C,J5*%
X20574000Y-78860000D02*
X35574000Y-78860000D01*
X20574000Y-93860000D02*
X20574000Y-78860000D01*
X20774000Y-86360000D02*
X21774000Y-85360000D01*
X20774000Y-86360000D02*
X21774000Y-87360000D01*
X35574000Y-78860000D02*
X35574000Y-93860000D01*
X35574000Y-93860000D02*
X20574000Y-93860000D01*
%TO.C,C21*%
X99248000Y-55358000D02*
X103468000Y-55358000D01*
X103468000Y-52338000D02*
X99248000Y-52338000D01*
X103468000Y-55358000D02*
X103468000Y-52338000D01*
%TO.C,R17*%
X68013064Y-64543000D02*
X67558936Y-64543000D01*
X68013064Y-66013000D02*
X67558936Y-66013000D01*
%TO.C,C29*%
X71701252Y-67083000D02*
X71178748Y-67083000D01*
X71701252Y-68553000D02*
X71178748Y-68553000D01*
%TO.C,R23*%
X38234750Y-85497936D02*
X38234750Y-85952064D01*
X39704750Y-85497936D02*
X39704750Y-85952064D01*
%TO.C,C12*%
X100990748Y-63273000D02*
X101513252Y-63273000D01*
X100990748Y-64743000D02*
X101513252Y-64743000D01*
%TO.C,J2*%
X20958000Y-62760000D02*
X20958000Y-59160000D01*
X22838000Y-57280000D02*
X26438000Y-57280000D01*
X22838000Y-64640000D02*
X26438000Y-64640000D01*
X28318000Y-62760000D02*
X28318000Y-59160000D01*
%TO.C,L1*%
X92861000Y-79758000D02*
X92861000Y-76758000D01*
X96061000Y-79758000D02*
X96061000Y-76758000D01*
%TO.C,U4*%
X29606000Y-62120000D02*
X29606000Y-54720000D01*
X33706000Y-62120000D02*
X33706000Y-54720000D01*
X29731000Y-63170000D02*
X29401000Y-63410000D01*
X29401000Y-62930000D01*
X29731000Y-63170000D01*
G36*
X29731000Y-63170000D02*
G01*
X29401000Y-63410000D01*
X29401000Y-62930000D01*
X29731000Y-63170000D01*
G37*
%TO.C,C17*%
X64182000Y-80866000D02*
X64182000Y-85086000D01*
X64182000Y-85086000D02*
X67202000Y-85086000D01*
X67202000Y-85086000D02*
X67202000Y-80866000D01*
%TO.C,C11*%
X70799000Y-82115252D02*
X70799000Y-81592748D01*
X72269000Y-82115252D02*
X72269000Y-81592748D01*
%TO.C,C20*%
X60372000Y-81120000D02*
X60372000Y-85340000D01*
X60372000Y-85340000D02*
X63392000Y-85340000D01*
X63392000Y-85340000D02*
X63392000Y-81120000D01*
%TO.C,R1*%
X94379500Y-63753276D02*
X94379500Y-64262724D01*
X95424500Y-63753276D02*
X95424500Y-64262724D01*
%TO.C,U1*%
X90294000Y-67437000D02*
X90294000Y-66637000D01*
X90294000Y-67437000D02*
X90294000Y-68237000D01*
X93414000Y-67437000D02*
X93414000Y-66637000D01*
X93414000Y-67437000D02*
X93414000Y-68237000D01*
X90344000Y-68737000D02*
X90014000Y-68977000D01*
X90014000Y-68497000D01*
X90344000Y-68737000D01*
G36*
X90344000Y-68737000D02*
G01*
X90014000Y-68977000D01*
X90014000Y-68497000D01*
X90344000Y-68737000D01*
G37*
%TO.C,TP2*%
X40177750Y-80391000D02*
G75*
G02*
X38777750Y-80391000I-700000J0D01*
G01*
X38777750Y-80391000D02*
G75*
G02*
X40177750Y-80391000I700000J0D01*
G01*
%TO.C,R14*%
X55686000Y-79759436D02*
X55686000Y-80213564D01*
X57156000Y-79759436D02*
X57156000Y-80213564D01*
%TO.C,C10*%
X91719748Y-63019000D02*
X92242252Y-63019000D01*
X91719748Y-64489000D02*
X92242252Y-64489000D01*
%TO.C,U7*%
X74168000Y-61194000D02*
X72218000Y-61194000D01*
X74168000Y-61194000D02*
X76118000Y-61194000D01*
X74168000Y-66314000D02*
X72218000Y-66314000D01*
X74168000Y-66314000D02*
X76118000Y-66314000D01*
X77108000Y-66549000D02*
X76628000Y-66549000D01*
X76868000Y-66219000D01*
X77108000Y-66549000D01*
G36*
X77108000Y-66549000D02*
G01*
X76628000Y-66549000D01*
X76868000Y-66219000D01*
X77108000Y-66549000D01*
G37*
%TO.C,C3*%
X100439252Y-73639000D02*
X99016748Y-73639000D01*
X100439252Y-75459000D02*
X99016748Y-75459000D01*
%TO.C,C32*%
X48394750Y-81922252D02*
X48394750Y-81399748D01*
X49864750Y-81922252D02*
X49864750Y-81399748D01*
%TO.C,C8*%
X75859252Y-85437000D02*
X75336748Y-85437000D01*
X75859252Y-86907000D02*
X75336748Y-86907000D01*
%TO.C,C24*%
X58861000Y-38092748D02*
X58861000Y-38615252D01*
X60331000Y-38092748D02*
X60331000Y-38615252D01*
%TO.C,C30*%
X77716748Y-58701000D02*
X78239252Y-58701000D01*
X77716748Y-60171000D02*
X78239252Y-60171000D01*
%TO.C,C7*%
X87055000Y-67825252D02*
X87055000Y-67302748D01*
X88525000Y-67825252D02*
X88525000Y-67302748D01*
%TO.C,J4*%
X20863000Y-33214000D02*
X20863000Y-35874000D01*
X53943000Y-33214000D02*
X20863000Y-33214000D01*
X53943000Y-33214000D02*
X53943000Y-35874000D01*
X53943000Y-35874000D02*
X20863000Y-35874000D01*
X56543000Y-34544000D02*
X56543000Y-35874000D01*
X56543000Y-35874000D02*
X55213000Y-35874000D01*
%TO.C,C19*%
X88876000Y-52084000D02*
X88876000Y-55104000D01*
X88876000Y-55104000D02*
X93096000Y-55104000D01*
X93096000Y-52084000D02*
X88876000Y-52084000D01*
%TO.C,C9*%
X97469000Y-67825252D02*
X97469000Y-67302748D01*
X98939000Y-67825252D02*
X98939000Y-67302748D01*
%TO.C,C31*%
X38234750Y-90035748D02*
X38234750Y-90558252D01*
X39704750Y-90035748D02*
X39704750Y-90558252D01*
%TO.C,R5*%
X94421000Y-59970936D02*
X94421000Y-60425064D01*
X95891000Y-59970936D02*
X95891000Y-60425064D01*
%TO.C,R19*%
X72261000Y-38126936D02*
X72261000Y-38581064D01*
X73731000Y-38126936D02*
X73731000Y-38581064D01*
%TO.C,JP2*%
X72181000Y-58104000D02*
X72181000Y-56704000D01*
X72881000Y-56004000D02*
X73481000Y-56004000D01*
X73481000Y-58804000D02*
X72881000Y-58804000D01*
X74181000Y-56704000D02*
X74181000Y-58104000D01*
X72181000Y-56704000D02*
G75*
G02*
X72881000Y-56004000I699999J1D01*
G01*
X72881000Y-58804000D02*
G75*
G02*
X72181000Y-58104000I0J700000D01*
G01*
X73481000Y-56004000D02*
G75*
G02*
X74181000Y-56704000I1J-699999D01*
G01*
X74181000Y-58104000D02*
G75*
G02*
X73481000Y-58804000I-700000J0D01*
G01*
%TO.C,R13*%
X91881000Y-44931064D02*
X91881000Y-44476936D01*
X93351000Y-44931064D02*
X93351000Y-44476936D01*
%TO.C,L3*%
X98222000Y-79732000D02*
X98222000Y-76732000D01*
X101422000Y-79732000D02*
X101422000Y-76732000D01*
%TO.C,J3*%
X20863000Y-48454000D02*
X22193000Y-48454000D01*
X20863000Y-49784000D02*
X20863000Y-48454000D01*
X23463000Y-48454000D02*
X56543000Y-48454000D01*
X23463000Y-51114000D02*
X23463000Y-48454000D01*
X23463000Y-51114000D02*
X56543000Y-51114000D01*
X56543000Y-51114000D02*
X56543000Y-48454000D01*
%TO.C,JP3*%
X79551000Y-65724000D02*
X79551000Y-64324000D01*
X80251000Y-63624000D02*
X80851000Y-63624000D01*
X80851000Y-66424000D02*
X80251000Y-66424000D01*
X81551000Y-64324000D02*
X81551000Y-65724000D01*
X79551000Y-64324000D02*
G75*
G02*
X80251000Y-63624000I699999J1D01*
G01*
X80251000Y-66424000D02*
G75*
G02*
X79551000Y-65724000I0J700000D01*
G01*
X80851000Y-63624000D02*
G75*
G02*
X81551000Y-64324000I1J-699999D01*
G01*
X81551000Y-65724000D02*
G75*
G02*
X80851000Y-66424000I-700000J0D01*
G01*
%TO.C,U8*%
X80616000Y-38364000D02*
X78666000Y-38364000D01*
X80616000Y-38364000D02*
X82566000Y-38364000D01*
X80616000Y-47234000D02*
X78666000Y-47234000D01*
X80616000Y-47234000D02*
X82566000Y-47234000D01*
X83556000Y-47499000D02*
X83076000Y-47499000D01*
X83316000Y-47169000D01*
X83556000Y-47499000D01*
G36*
X83556000Y-47499000D02*
G01*
X83076000Y-47499000D01*
X83316000Y-47169000D01*
X83556000Y-47499000D01*
G37*
%TO.C,R20*%
X49664686Y-84228000D02*
X50118814Y-84228000D01*
X49664686Y-85698000D02*
X50118814Y-85698000D01*
%TO.C,U5*%
X61563000Y-61194000D02*
X59613000Y-61194000D01*
X61563000Y-61194000D02*
X63513000Y-61194000D01*
X61563000Y-66314000D02*
X59613000Y-66314000D01*
X61563000Y-66314000D02*
X63513000Y-66314000D01*
X58863000Y-61289000D02*
X58623000Y-60959000D01*
X59103000Y-60959000D01*
X58863000Y-61289000D01*
G36*
X58863000Y-61289000D02*
G01*
X58623000Y-60959000D01*
X59103000Y-60959000D01*
X58863000Y-61289000D01*
G37*
%TO.C,C27*%
X84896000Y-40520252D02*
X84896000Y-39997748D01*
X86366000Y-40520252D02*
X86366000Y-39997748D01*
%TO.C,R4*%
X94421000Y-55144936D02*
X94421000Y-55599064D01*
X95891000Y-55144936D02*
X95891000Y-55599064D01*
%TO.C,C1*%
X92666748Y-73639000D02*
X94089252Y-73639000D01*
X92666748Y-75459000D02*
X94089252Y-75459000D01*
%TO.C,U2*%
X75598000Y-80294000D02*
X74798000Y-80294000D01*
X75598000Y-80294000D02*
X76398000Y-80294000D01*
X75598000Y-83414000D02*
X74798000Y-83414000D01*
X75598000Y-83414000D02*
X76398000Y-83414000D01*
X77138000Y-83694000D02*
X76658000Y-83694000D01*
X76898000Y-83364000D01*
X77138000Y-83694000D01*
G36*
X77138000Y-83694000D02*
G01*
X76658000Y-83694000D01*
X76898000Y-83364000D01*
X77138000Y-83694000D01*
G37*
%TO.C,C23*%
X55621000Y-65016748D02*
X55621000Y-65539252D01*
X57091000Y-65016748D02*
X57091000Y-65539252D01*
%TO.C,C13*%
X90634748Y-59669000D02*
X92057252Y-59669000D01*
X90634748Y-61489000D02*
X92057252Y-61489000D01*
%TO.C,R18*%
X74736000Y-38126936D02*
X74736000Y-38581064D01*
X76206000Y-38126936D02*
X76206000Y-38581064D01*
%TO.C,C28*%
X73939748Y-45874000D02*
X74462252Y-45874000D01*
X73939748Y-47344000D02*
X74462252Y-47344000D01*
%TO.C,C16*%
X88876000Y-55894000D02*
X88876000Y-58914000D01*
X88876000Y-58914000D02*
X93096000Y-58914000D01*
X93096000Y-55894000D02*
X88876000Y-55894000D01*
%TO.C,R2*%
X71279276Y-78029500D02*
X71788724Y-78029500D01*
X71279276Y-79074500D02*
X71788724Y-79074500D01*
%TO.C,R8*%
X67242936Y-77817000D02*
X67697064Y-77817000D01*
X67242936Y-79287000D02*
X67697064Y-79287000D01*
%TO.C,U3*%
X99692000Y-67564000D02*
X99692000Y-66764000D01*
X99692000Y-67564000D02*
X99692000Y-68364000D01*
X102812000Y-67564000D02*
X102812000Y-66764000D01*
X102812000Y-67564000D02*
X102812000Y-68364000D01*
X99742000Y-68864000D02*
X99412000Y-69104000D01*
X99412000Y-68624000D01*
X99742000Y-68864000D01*
G36*
X99742000Y-68864000D02*
G01*
X99412000Y-69104000D01*
X99412000Y-68624000D01*
X99742000Y-68864000D01*
G37*
%TO.C,C14*%
X68084000Y-83327252D02*
X68084000Y-81904748D01*
X69904000Y-83327252D02*
X69904000Y-81904748D01*
%TO.C,C4*%
X90660252Y-70337000D02*
X89237748Y-70337000D01*
X90660252Y-72157000D02*
X89237748Y-72157000D01*
%TO.C,TP3*%
X57342000Y-74168000D02*
G75*
G02*
X55942000Y-74168000I-700000J0D01*
G01*
X55942000Y-74168000D02*
G75*
G02*
X57342000Y-74168000I700000J0D01*
G01*
%TO.C,C2*%
X78732000Y-81130748D02*
X78732000Y-82553252D01*
X80552000Y-81130748D02*
X80552000Y-82553252D01*
%TD*%
M02*
