M48
; DRILL file {KiCad 9.0.4} date 2025-09-05T01:27:02-0400
; FORMAT={-:-/ absolute / metric / decimal}
; #@! TF.CreationDate,2025-09-05T01:27:02-04:00
; #@! TF.GenerationSoftware,Kicad,Pcbnew,9.0.4
; #@! TF.FileFunction,Plated,1,4,PTH
FMAT,2
METRIC
; #@! TA.AperFunction,Plated,PTH,ViaDrill
T1C0.400
; #@! TA.AperFunction,Plated,PTH,ComponentDrill
T2C0.500
; #@! TA.AperFunction,Plated,PTH,ComponentDrill
T3C0.890
; #@! TA.AperFunction,Plated,PTH,ComponentDrill
T4C1.000
; #@! TA.AperFunction,Plated,PTH,ComponentDrill
T5C1.500
; #@! TA.AperFunction,Plated,PTH,ComponentDrill
T6C1.700
; #@! TA.AperFunction,Plated,PTH,ComponentDrill
T7C1.800
; #@! TA.AperFunction,Plated,PTH,ComponentDrill
T8C2.010
; #@! TA.AperFunction,Plated,PTH,ComponentDrill
T9C3.700
%
G90
G05
T1
X22.098Y-46.99
X22.352Y-36.83
X23.876Y-43.18
X24.13Y-39.116
X26.162Y-45.466
X26.924Y-36.83
X26.924Y-39.116
X26.924Y-42.672
X27.178Y-52.324
X28.194Y-31.75
X28.194Y-53.848
X28.194Y-77.47
X28.448Y-95.504
X29.718Y-40.386
X29.972Y-43.18
X30.226Y-46.736
X30.734Y-51.816
X32.766Y-40.132
X32.766Y-52.07
X33.02Y-31.242
X36.576Y-44.196
X36.83Y-31.242
X37.33Y-85.089
X38.354Y-82.042
X38.862Y-92.964
X39.878Y-38.862
X41.256Y-89.535
X41.656Y-80.518
X42.164Y-31.242
X42.545Y-93.98
X43.18Y-42.418
X43.688Y-82.55
X45.72Y-43.942
X46.228Y-32.766
X46.355Y-93.98
X46.717Y-79.883
X47.752Y-52.07
X48.26Y-39.116
X48.26Y-46.99
X49.022Y-32.766
X49.022Y-79.248
X49.53Y-88.9
X49.53Y-93.345
X50.546Y-53.34
X50.8Y-74.168
X51.562Y-32.766
X51.816Y-46.99
X52.07Y-80.518
X52.07Y-82.55
X52.324Y-53.34
X52.578Y-76.962
X52.705Y-93.345
X52.832Y-45.72
X53.594Y-75.184
X53.848Y-44.958
X53.848Y-47.244
X54.356Y-38.354
X54.356Y-40.132
X54.356Y-41.91
X54.356Y-70.612
X54.61Y-43.942
X54.61Y-53.34
X54.864Y-32.766
X54.864Y-42.926
X56.134Y-37.084
X56.134Y-38.608
X56.134Y-40.132
X56.388Y-67.564
X56.388Y-86.36
X56.642Y-41.656
X56.642Y-43.942
X57.15Y-53.086
X57.658Y-48.006
X57.912Y-39.37
X58.166Y-35.56
X58.166Y-60.452
X58.674Y-32.258
X58.674Y-43.942
X58.928Y-51.054
X58.961Y-46.609
X59.596Y-40.894
X59.596Y-76.454
X59.69Y-49.022
X59.69Y-71.374
X60.96Y-34.544
X60.96Y-68.834
X61.501Y-63.754
X61.976Y-48.768
X61.976Y-80.01
X62.865Y-67.31
X64.262Y-71.374
X65.532Y-79.756
X66.04Y-59.055
X66.294Y-67.056
X66.548Y-68.834
X67.056Y-48.514
X67.31Y-62.865
X68.834Y-39.37
X68.834Y-58.42
X69.088Y-67.818
X69.088Y-71.374
X69.121Y-44.069
X69.342Y-79.756
X70.866Y-60.198
X71.661Y-40.168
X72.898Y-86.106
X73.152Y-48.26
X73.181Y-60.179
X73.816Y-63.354
X73.914Y-71.374
X74.422Y-44.704
X74.836Y-68.199
X75.438Y-81.788
X76.454Y-44.958
X76.454Y-76.708
X77.216Y-67.564
X77.376Y-56.134
X78.011Y-36.994
X78.486Y-70.104
X78.74Y-61.468
X78.994Y-55.626
X79.502Y-85.09
X79.756Y-56.896
X80.264Y-34.29
X80.264Y-53.34
X80.461Y-45.212
X80.772Y-62.738
X82.042Y-61.214
X82.296Y-55.118
X82.296Y-85.09
X83.058Y-65.786
X83.566Y-38.1
X84.328Y-62.992
X84.582Y-42.672
X84.582Y-47.752
X84.582Y-49.53
X84.836Y-58.674
X85.598Y-45.72
X86.36Y-71.12
X87.63Y-38.862
X87.63Y-65.278
X88.392Y-73.406
X89.408Y-34.544
X89.441Y-44.069
X91.346Y-53.594
X91.346Y-57.404
X91.346Y-60.579
X91.694Y-67.31
X92.202Y-37.084
X94.234Y-39.624
X94.996Y-70.358
X95.25Y-72.644
X98.204Y-65.278
X98.552Y-72.644
X100.871Y-47.244
X100.998Y-53.848
X101.252Y-57.912
X101.252Y-61.214
X101.346Y-67.31
X101.6Y-39.624
X105.918Y-71.374
X106.68Y-68.326
T2
X36.849Y-62.484
X37.662Y-60.522
X37.662Y-64.446
X39.624Y-59.709
X39.624Y-65.259
X41.586Y-60.522
X41.586Y-64.446
X42.399Y-62.484
X79.013Y-91.948
X79.826Y-89.986
X79.826Y-93.91
X81.788Y-89.173
X81.788Y-94.723
X83.75Y-89.986
X83.75Y-93.91
X84.563Y-91.948
X95.199Y-35.744
X96.012Y-33.782
X96.012Y-37.706
X97.974Y-32.969
X97.974Y-38.519
X99.936Y-33.782
X99.936Y-37.706
X100.749Y-35.744
T3
X33.274Y-86.36
X33.274Y-88.9
T4
X22.193Y-34.544
X22.193Y-49.784
X24.733Y-34.544
X24.733Y-49.784
X27.273Y-34.544
X27.273Y-49.784
X29.813Y-34.544
X29.813Y-49.784
X32.353Y-34.544
X32.353Y-49.784
X34.893Y-34.544
X34.893Y-49.784
X37.433Y-34.544
X37.433Y-49.784
X39.973Y-34.544
X39.973Y-49.784
X42.513Y-34.544
X42.513Y-49.784
X45.053Y-34.544
X45.053Y-49.784
X47.593Y-34.544
X47.593Y-49.784
X50.133Y-34.544
X50.133Y-49.784
X52.673Y-34.544
X52.673Y-49.784
X55.213Y-34.544
X55.213Y-49.784
T5
X24.638Y-60.96
T6
X22.098Y-58.42
X22.098Y-63.5
X27.178Y-58.42
X27.178Y-63.5
T7
X91.594Y-85.598
X91.594Y-89.798
X97.094Y-85.598
X97.094Y-89.798
T8
X28.194Y-81.28
X28.194Y-91.44
T9
X39.624Y-62.484
X81.788Y-91.948
X97.974Y-35.744
M30
